<svg width="192" height="222" viewBox="0 0 192 222" fill="none" xmlns="http://www.w3.org/2000/svg">
<g clip-path="url(#clip0_206_1780)">
<path opacity="0.5" d="M112.07 1.767C56.5984 -8.92474 6.67206 30.0054 0.560421 88.7281C-5.55122 147.451 39.4834 219.287 81.2025 194.371C121.562 170.261 171.733 163.436 187.57 115.142C205.332 60.981 167.548 12.4646 112.07 1.767Z" fill="#4D6F3D"/>
<path d="M145.424 48.9434H45.0581C37.8882 48.9434 32.0759 54.7672 32.0759 61.9513V208.109C32.0759 215.293 37.8882 221.117 45.0581 221.117H145.424C152.594 221.117 158.406 215.293 158.406 208.109V61.9513C158.406 54.7672 152.594 48.9434 145.424 48.9434Z" fill="white" stroke="#4D4D4D" stroke-width="3" stroke-miterlimit="10"/>
<path d="M143.673 58.9277H47.1128C44.0921 58.9277 41.6433 61.3814 41.6433 64.4081V207.349C41.6433 210.376 44.0921 212.829 47.1128 212.829H143.673C146.694 212.829 149.143 210.376 149.143 207.349V64.4081C149.143 61.3814 146.694 58.9277 143.673 58.9277Z" fill="#F2F2F2"/>
<path d="M80.2043 40.5156H114.913C119.962 40.5156 124.06 44.6215 124.06 49.6808V57.84H71.0339V49.6984C71.0339 44.6274 75.1434 40.5098 80.2043 40.5098V40.5156Z" fill="#4D4D4D"/>
<path d="M75.0034 72.1816H55.2267C53.9952 72.1816 52.9968 73.182 52.9968 74.4159V94.2319C52.9968 95.4659 53.9952 96.4662 55.2267 96.4662H75.0034C76.2349 96.4662 77.2332 95.4659 77.2332 94.2319V74.4159C77.2332 73.182 76.2349 72.1816 75.0034 72.1816Z" fill="#CCCCCC"/>
<path d="M109.023 72.1087L81.0046 72.3145L81.0218 74.6539L109.04 74.4481L109.023 72.1087Z" fill="#CCCCCC"/>
<path d="M120.686 80.4148L81.0227 80.6992L81.0352 82.4538L120.699 82.1694L120.686 80.4148Z" fill="#CCCCCC"/>
<path d="M127.556 85.1897L81.0161 85.5234L81.0286 87.2781L127.568 86.9444L127.556 85.1897Z" fill="#CCCCCC"/>
<path d="M112.979 92.4655L80.9333 92.6953L80.9459 94.4499L112.992 94.2202L112.979 92.4655Z" fill="#CCCCCC"/>
<path d="M74.7697 118.867H54.993C53.7615 118.867 52.7632 119.868 52.7632 121.101V140.917C52.7632 142.151 53.7615 143.152 54.993 143.152H74.7697C76.0013 143.152 76.9996 142.151 76.9996 140.917V121.101C76.9996 119.868 76.0013 118.867 74.7697 118.867Z" fill="#CCCCCC"/>
<path d="M108.787 118.796L80.7686 119.002L80.7857 121.341L108.804 121.136L108.787 118.796Z" fill="#CCCCCC"/>
<path d="M120.453 127.106L80.79 127.391L80.8026 129.145L120.466 128.861L120.453 127.106Z" fill="#CCCCCC"/>
<path d="M127.323 131.883L80.7834 132.217L80.796 133.971L127.335 133.638L127.323 131.883Z" fill="#CCCCCC"/>
<path d="M112.741 139.157L80.6948 139.387L80.7074 141.141L112.753 140.912L112.741 139.157Z" fill="#CCCCCC"/>
<path d="M74.0344 165.436H54.2577C53.0262 165.436 52.0278 166.436 52.0278 167.67V187.486C52.0278 188.72 53.0262 189.72 54.2577 189.72H74.0344C75.2659 189.72 76.2642 188.72 76.2642 187.486V167.67C76.2642 166.436 75.2659 165.436 74.0344 165.436Z" fill="#CCCCCC"/>
<path d="M108.053 165.363L80.0352 165.568L80.0523 167.908L108.07 167.702L108.053 165.363Z" fill="#CCCCCC"/>
<path d="M119.718 173.667L80.0542 173.951L80.0667 175.706L119.73 175.421L119.718 173.667Z" fill="#CCCCCC"/>
<path d="M126.587 178.45L80.0476 178.783L80.0601 180.538L126.6 180.204L126.587 178.45Z" fill="#CCCCCC"/>
<path d="M112.005 185.725L79.9592 185.955L79.9718 187.71L112.018 187.48L112.005 185.725Z" fill="#CCCCCC"/>
<path d="M56.8342 75.4623L55.6099 76.7168L72.2076 92.98L73.432 91.7255L56.8342 75.4623Z" fill="#808080"/>
<path d="M72.2636 75.521L55.6687 91.7871L56.8933 93.0414L73.4882 76.7753L72.2636 75.521Z" fill="#808080"/>
</g>
<defs>
<clipPath id="clip0_206_1780">
<rect width="192" height="222" fill="white"/>
</clipPath>
</defs>
</svg>
