<svg width="111" height="79" viewBox="0 0 111 79" fill="none" xmlns="http://www.w3.org/2000/svg">
<g clip-path="url(#clip0_206_1497)">
<path d="M107.203 0H3.79684C1.6999 0 0 1.70207 0 3.80168V62.9334C0 65.033 1.6999 66.7351 3.79684 66.7351H107.203C109.3 66.7351 111 65.033 111 62.9334V3.80168C111 1.70207 109.3 0 107.203 0Z" fill="#E6E6E6"/>
<path d="M2.06689 0H108.929C110.071 0 110.996 0.925733 110.996 2.06953V57.4983H0V2.06953C0 0.925733 0.924555 0 2.06689 0Z" fill="#384A30"/>
<path d="M67.8664 78.3083H43.076C42.5008 78.3083 42.0939 77.7529 42.2624 77.2015L45.4963 66.7305H65.253L68.717 77.111C68.9143 77.6953 68.4787 78.3042 67.8582 78.3042L67.8664 78.3083Z" fill="#CCCCCC"/>
<path d="M45.5333 66.7344H65.2571L68.5937 76.543C68.5937 76.543 69.4443 78.7236 67.0487 78.3081L45.5333 66.7344Z" fill="#B3B3B3"/>
<path d="M4.0927 2.54688H106.911C108.054 2.54688 108.978 3.47261 108.978 4.6164V57.5025H2.0217V4.6164C2.0217 3.47261 2.94625 2.54688 4.08859 2.54688H4.0927Z" fill="#D9D9D9"/>
<path d="M41.416 76.9492H69.4156C70.184 76.9492 70.8086 77.5746 70.8086 78.344V78.8542C70.8086 78.9323 70.7469 78.9941 70.6689 78.9941H40.0147C39.9367 78.9941 39.875 78.9323 39.875 78.8542V78.4921C39.875 77.6404 40.5654 76.9492 41.416 76.9492Z" fill="#CCCCCC"/>
<path d="M87.8615 66.7344H93.2568C93.2568 67.4873 92.6486 68.0962 91.8966 68.0962H89.2257C88.4737 68.0962 87.8656 67.4873 87.8656 66.7344H87.8615Z" fill="#999999"/>
<path d="M4.08037 2.54688H106.907C108.033 2.54688 108.945 3.46026 108.945 4.5876V8.92003H2.0217V4.60406C2.0217 3.46849 2.94214 2.54688 4.07626 2.54688H4.08037Z" fill="#4D6F3D"/>
<path d="M6.66092 4.24609H5.35011C4.77141 4.24609 4.30228 4.71582 4.30228 5.29526V6.60774C4.30228 7.18718 4.77141 7.65691 5.35011 7.65691H6.66092C7.23962 7.65691 7.70875 7.18718 7.70875 6.60774V5.29526C7.70875 4.71582 7.23962 4.24609 6.66092 4.24609Z" fill="white"/>
<path d="M17.4515 10.3242H5.06246C4.24774 10.3242 3.58728 10.9855 3.58728 11.8013V54.5907C3.58728 55.4065 4.24774 56.0678 5.06246 56.0678H17.4515C18.2662 56.0678 18.9267 55.4065 18.9267 54.5907V11.8013C18.9267 10.9855 18.2662 10.3242 17.4515 10.3242Z" fill="white"/>
<path d="M7.95116 11.2148H6.07329C5.20637 11.2148 4.5036 11.9185 4.5036 12.7865V14.6668C4.5036 15.5348 5.20637 16.2385 6.07329 16.2385H7.95116C8.81808 16.2385 9.52085 15.5348 9.52085 14.6668V12.7865C9.52085 11.9185 8.81808 11.2148 7.95116 11.2148Z" fill="#CCCCCC"/>
<path d="M11.7523 18.0092L4.49579 18.0625L4.50784 19.7082L11.7644 19.6549L11.7523 18.0092Z" fill="#CCCCCC"/>
<path d="M14.8072 22.7155L4.53461 22.7891L4.54343 24.0233L14.816 23.9497L14.8072 22.7155Z" fill="#CCCCCC"/>
<path d="M16.6095 25.3785L4.55777 25.4648L4.56659 26.6991L16.6184 26.6128L16.6095 25.3785Z" fill="#CCCCCC"/>
<path d="M12.8731 28.0694L4.57281 28.1289L4.58164 29.3632L12.8819 29.3037L12.8731 28.0694Z" fill="#CCCCCC"/>
<path d="M83.1401 17.75H33.3538C32.5391 17.75 31.8787 18.4113 31.8787 19.2271V44.9583C31.8787 45.7741 32.5391 46.4354 33.3538 46.4354H83.1401C83.9548 46.4354 84.6153 45.7741 84.6153 44.9583V19.2271C84.6153 18.4113 83.9548 17.75 83.1401 17.75Z" fill="white"/>
<path opacity="0.1" d="M95.4634 0H108.929C110.071 0 111 0.929847 111 2.07364V62.7606C111 64.9576 109.221 66.7392 107.026 66.7392H95.4634V0Z" fill="#1A1A1A"/>
<path d="M36.8219 27.1562H20.18V28.3906H36.8219V27.1562Z" fill="#CCCCCC"/>
<path d="M47.3947 31.4766H26.3601V32.7109H47.3947V31.4766Z" fill="#CCCCCC"/>
<path d="M37.0192 35.7969H22.7564V37.0312H37.0192V35.7969Z" fill="#CCCCCC"/>
<path d="M58.2428 29.2695C57.5731 29.2695 31.8745 44.5297 31.8745 45.2004C31.8745 45.8834 32.4252 46.4347 33.1073 46.4347H83.399C84.0687 46.4347 84.6111 45.8916 84.6111 45.2209C84.6111 44.5503 58.9126 29.2695 58.2428 29.2695Z" fill="#F2F2F2"/>
<path d="M58.2428 34.9151C57.5731 34.9151 31.8745 19.655 31.8745 18.9843C31.8745 18.3013 32.4252 17.75 33.1073 17.75H83.399C84.0687 17.75 84.6111 18.2931 84.6111 18.9637C84.6111 19.6344 58.9126 34.9151 58.2428 34.9151Z" fill="#E6E6E6"/>
</g>
<defs>
<clipPath id="clip0_206_1497">
<rect width="111" height="79" fill="white"/>
</clipPath>
</defs>
</svg>
