<svg width="346" height="202" viewBox="0 0 346 202" fill="none" xmlns="http://www.w3.org/2000/svg">
<g clip-path="url(#clip0_206_1261)">
<path d="M339.357 117.962C313.333 163.449 223.335 166.491 151.897 186.908C78.0532 208.01 -6.78093 135.509 1.18199 79.2776C9.14491 23.0459 97.0412 -10.9987 197.504 3.23725C297.967 17.4732 368.541 66.9499 339.357 117.955V117.962Z" fill="#5E8B4B" fill-opacity="0.58"/>
<path d="M281.412 34.2852H58.2911C54.7637 34.2852 51.9041 37.1454 51.9041 40.6737V169.579C51.9041 173.107 54.7637 175.967 58.2911 175.967H281.412C284.939 175.967 287.799 173.107 287.799 169.579V40.6737C287.799 37.1454 284.939 34.2852 281.412 34.2852Z" fill="#E6E6E6"/>
<path d="M55.381 34.2852H284.315C286.237 34.2852 287.792 35.8408 287.792 37.7629V156.352H51.9041V37.7629C51.9041 35.8408 53.4594 34.2852 55.381 34.2852Z" fill="#445A3A"/>
<path d="M196.128 200.541H143.45C142.234 200.541 141.363 199.359 141.722 198.197L148.6 175.969H190.592L197.953 198.011C198.368 199.255 197.442 200.541 196.128 200.541Z" fill="#CCCCCC"/>
<path d="M148.669 175.969H190.585L197.67 196.787C197.67 196.787 199.474 201.419 194.387 200.541L148.662 175.969H148.669Z" fill="#B3B3B3"/>
<path d="M59.6804 39.6953H280.016C281.937 39.6953 283.492 41.251 283.492 43.1731V156.362H56.2036V43.1731C56.2036 41.251 57.7588 39.6953 59.6804 39.6953Z" fill="#D9D9D9"/>
<path d="M139.234 197.652H200.034C201.326 197.652 202.377 198.703 202.377 199.996V201.759C202.377 201.891 202.273 201.994 202.142 201.994H136.877C136.745 201.994 136.642 201.891 136.642 201.759V200.245C136.642 198.814 137.803 197.652 139.234 197.652Z" fill="#CCCCCC"/>
<path d="M59.6597 39.6953H279.995C281.889 39.6953 283.423 41.2302 283.423 43.1247V53.2261H56.2036V43.1523C56.2036 41.2441 57.7519 39.6953 59.6597 39.6953Z" fill="#4D6F3D"/>
<path d="M254.509 61.0938H85.1245C83.754 61.0938 82.643 62.205 82.643 63.5759V105.06C82.643 106.431 83.754 107.542 85.1245 107.542H254.509C255.88 107.542 256.991 106.431 256.991 105.06V63.5759C256.991 62.205 255.88 61.0938 254.509 61.0938Z" fill="white"/>
<path d="M168.763 65.6758H89.8179C88.3596 65.6758 87.1774 66.8583 87.1774 68.3169V100.896C87.1774 102.354 88.3596 103.537 89.8179 103.537H168.763C170.221 103.537 171.403 102.354 171.403 100.896V68.3169C171.403 66.8583 170.221 65.6758 168.763 65.6758Z" fill="#CCCCCC"/>
<path d="M210.371 65.1825L177.193 65.4258L177.213 68.1913L210.391 67.948L210.371 65.1825Z" fill="#CCCCCC"/>
<path d="M224.254 75.0349L177.287 75.3711L177.302 77.4452L224.269 77.1091L224.254 75.0349Z" fill="#CCCCCC"/>
<path d="M232.437 80.6524L177.327 81.0469L177.342 83.121L232.452 82.7266L232.437 80.6524Z" fill="#CCCCCC"/>
<path d="M215.295 86.4432L177.347 86.7148L177.362 88.789L215.31 88.5174L215.295 86.4432Z" fill="#CCCCCC"/>
<path d="M254.509 109.914H85.1245C83.754 109.914 82.643 111.025 82.643 112.396V152.09C82.643 153.46 83.754 154.572 85.1245 154.572H254.509C255.88 154.572 256.991 153.46 256.991 152.09V112.396C256.991 111.025 255.88 109.914 254.509 109.914Z" fill="white"/>
<path d="M112.932 114.496H89.5137C88.0554 114.496 86.8733 115.679 86.8733 117.137V140.562C86.8733 142.021 88.0554 143.203 89.5137 143.203H112.932C114.391 143.203 115.573 142.021 115.573 140.562V117.137C115.573 115.679 114.391 114.496 112.932 114.496Z" fill="#CCCCCC"/>
<path d="M153.223 114.405L120.045 114.648L120.065 117.414L153.243 117.171L153.223 114.405Z" fill="#CCCCCC"/>
<path d="M167.036 124.23L120.068 124.566L120.083 126.641L167.05 126.304L167.036 124.23Z" fill="#CCCCCC"/>
<path d="M175.163 129.875L120.053 130.27L120.068 132.344L175.178 131.949L175.163 129.875Z" fill="#CCCCCC"/>
<path d="M157.903 138.474L119.955 138.746L119.97 140.82L157.918 140.549L157.903 138.474Z" fill="#CCCCCC"/>
<path opacity="0.1" d="M235.708 34.2852H284.308C286.23 34.2852 287.792 35.8477 287.792 37.7698V169.281C287.792 172.973 284.799 175.967 281.108 175.967H235.701V34.2852H235.708Z" fill="#1A1A1A"/>
<path d="M66.5236 43.3008H62.8048C61.8313 43.3008 61.0421 44.0901 61.0421 45.0639V48.7836C61.0421 49.7573 61.8313 50.5467 62.8048 50.5467H66.5236C67.497 50.5467 68.2862 49.7573 68.2862 48.7836V45.0639C68.2862 44.0901 67.497 43.3008 66.5236 43.3008Z" fill="white"/>
<path d="M245.631 114.491L212.453 114.734L212.473 117.5L245.651 117.257L245.631 114.491Z" fill="#CCCCCC"/>
<path d="M245.752 124.41L198.784 124.746L198.799 126.82L245.767 126.484L245.752 124.41Z" fill="#CCCCCC"/>
<path d="M245.841 130.121L190.731 130.516L190.746 132.59L245.856 132.195L245.841 130.121Z" fill="#CCCCCC"/>
<path d="M246.06 138.592L208.113 138.863L208.128 140.937L246.075 140.666L246.06 138.592Z" fill="#CCCCCC"/>
<path d="M238.452 176.68H249.913C249.913 178.277 248.62 179.57 247.023 179.57H241.348C239.752 179.57 238.459 178.277 238.459 176.68H238.452Z" fill="#999999"/>
<path d="M52.0217 55.2218C66.9177 55.2218 78.9933 47.8451 78.9933 38.7456C78.9933 29.6461 66.9177 22.2695 52.0217 22.2695C37.1256 22.2695 25.05 29.6461 25.05 38.7456C25.05 47.8451 37.1256 55.2218 52.0217 55.2218Z" fill="#F2F2F2"/>
<path d="M80.044 54.4345C95.5202 54.4345 108.066 47.8349 108.066 39.6938C108.066 31.5528 95.5202 24.9531 80.044 24.9531C64.5677 24.9531 52.0217 31.5528 52.0217 39.6938C52.0217 47.8349 64.5677 54.4345 80.044 54.4345Z" fill="#F2F2F2"/>
<path d="M25.05 53.3828C38.8848 53.3828 50.1 47.5756 50.1 40.4121C50.1 33.2486 38.8848 27.4414 25.05 27.4414C11.2153 27.4414 0 33.2486 0 40.4121C0 47.5756 11.2153 53.3828 25.05 53.3828Z" fill="#F2F2F2"/>
<path d="M37.499 66.832C51.3337 66.832 62.549 61.0248 62.549 53.8613C62.549 46.6978 51.3337 40.8906 37.499 40.8906C23.6643 40.8906 12.449 46.6978 12.449 53.8613C12.449 61.0248 23.6643 66.832 37.499 66.832Z" fill="#F2F2F2"/>
<path d="M77.0717 68.1836C90.9064 68.1836 102.122 62.3764 102.122 55.2129C102.122 48.0494 90.9064 42.2422 77.0717 42.2422C63.2369 42.2422 52.0217 48.0494 52.0217 55.2129C52.0217 62.3764 63.2369 68.1836 77.0717 68.1836Z" fill="#F2F2F2"/>
<path d="M279.117 75.6671C294.013 75.6671 306.089 68.2905 306.089 59.191C306.089 50.0914 294.013 42.7148 279.117 42.7148C264.221 42.7148 252.145 50.0914 252.145 59.191C252.145 68.2905 264.221 75.6671 279.117 75.6671Z" fill="#F2F2F2"/>
<path d="M307.139 74.8798C322.616 74.8798 335.162 68.2802 335.162 60.1391C335.162 51.9981 322.616 45.3984 307.139 45.3984C291.663 45.3984 279.117 51.9981 279.117 60.1391C279.117 68.2802 291.663 74.8798 307.139 74.8798Z" fill="#F2F2F2"/>
<path d="M252.152 73.8281C265.987 73.8281 277.202 68.0209 277.202 60.8574C277.202 53.6939 265.987 47.8867 252.152 47.8867C238.318 47.8867 227.102 53.6939 227.102 60.8574C227.102 68.0209 238.318 73.8281 252.152 73.8281Z" fill="#F2F2F2"/>
<path d="M264.601 87.2773C278.436 87.2773 289.651 81.4702 289.651 74.3066C289.651 67.1431 278.436 61.3359 264.601 61.3359C250.766 61.3359 239.551 67.1431 239.551 74.3066C239.551 81.4702 250.766 87.2773 264.601 87.2773Z" fill="#F2F2F2"/>
<path d="M304.174 88.6367C318.009 88.6367 329.224 82.8295 329.224 75.666C329.224 68.5025 318.009 62.6953 304.174 62.6953C290.339 62.6953 279.124 68.5025 279.124 75.666C279.124 82.8295 290.339 88.6367 304.174 88.6367Z" fill="#F2F2F2"/>
<path d="M266.848 60.7452C267.345 59.8464 268.037 59.1412 268.928 58.6364C269.82 58.1317 270.829 57.8828 271.956 57.8828C273.338 57.8828 274.52 58.2493 275.509 58.9752C276.49 59.7081 277.154 60.7037 277.486 61.9621H274.368C274.133 61.4781 273.808 61.1047 273.38 60.8489C272.951 60.5931 272.467 60.4687 271.928 60.4687C271.057 60.4687 270.345 60.7729 269.806 61.3813C269.267 61.9897 268.991 62.8056 268.991 63.822C268.991 64.8383 269.26 65.6542 269.806 66.2626C270.345 66.871 271.057 67.1753 271.928 67.1753C272.467 67.1753 272.951 67.0508 273.38 66.795C273.808 66.5392 274.133 66.1727 274.368 65.6818H277.486C277.154 66.9402 276.497 67.9358 275.509 68.6618C274.527 69.3877 273.338 69.7473 271.956 69.7473C270.829 69.7473 269.82 69.4984 268.928 68.9936C268.037 68.4889 267.345 67.7906 266.848 66.8918C266.35 65.993 266.101 64.9697 266.101 63.822C266.101 62.6742 266.35 61.644 266.848 60.7452Z" fill="black"/>
<path d="M281.716 69.0225C280.804 68.5109 280.078 67.8056 279.546 66.893C279.006 65.9803 278.744 64.9571 278.744 63.8163C278.744 62.6754 279.013 61.6522 279.546 60.7464C280.085 59.8407 280.804 59.1285 281.716 58.6238C282.628 58.1122 283.631 57.8633 284.73 57.8633C285.829 57.8633 286.831 58.1191 287.743 58.6238C288.656 59.1355 289.375 59.8407 289.9 60.7464C290.425 61.6522 290.688 62.6754 290.688 63.8163C290.688 64.9571 290.425 65.9803 289.893 66.893C289.361 67.8056 288.642 68.5178 287.737 69.0225C286.831 69.5341 285.829 69.783 284.737 69.783C283.645 69.783 282.635 69.5272 281.723 69.0225H281.716ZM286.962 66.2638C287.522 65.6415 287.799 64.8257 287.799 63.8093C287.799 62.793 287.522 61.9564 286.962 61.3479C286.403 60.7326 285.663 60.4284 284.73 60.4284C283.797 60.4284 283.043 60.7326 282.483 61.341C281.923 61.9495 281.647 62.7722 281.647 63.8163C281.647 64.8603 281.923 65.6692 282.483 66.2776C283.043 66.893 283.79 67.1972 284.73 67.1972C285.67 67.1972 286.403 66.8861 286.962 66.2707V66.2638Z" fill="black"/>
<path d="M292.395 66.9816C293.481 66.0828 294.331 65.3499 294.96 64.7761C295.582 64.2022 296.114 63.6007 296.543 62.9646C296.971 62.3354 297.193 61.7201 297.193 61.1254C297.193 60.6691 297.089 60.3165 296.875 60.0607C296.667 59.8049 296.349 59.6804 295.928 59.6804C295.506 59.6804 295.181 59.8394 294.939 60.1506C294.704 60.4686 294.58 60.9111 294.58 61.485H291.842C291.863 60.5447 292.064 59.7565 292.451 59.1273C292.831 58.4981 293.336 58.0349 293.958 57.7307C294.58 57.4334 295.278 57.2812 296.038 57.2812C297.352 57.2812 298.347 57.62 299.017 58.2907C299.688 58.9683 300.02 59.8464 300.02 60.9319C300.02 62.1141 299.619 63.2135 298.81 64.2229C298.001 65.2324 296.971 66.2211 295.727 67.1821H300.206V69.4914H291.877V67.3826C292.25 67.0853 292.423 66.9471 292.389 66.9678L292.395 66.9816Z" fill="black"/>
<path d="M37.4575 40.5929C37.9552 39.694 38.6464 38.9888 39.5381 38.4841C40.4298 37.9794 41.439 37.7305 42.5657 37.7305C43.9481 37.7305 45.1301 38.0969 46.1186 38.8229C47.1001 39.5558 47.7637 40.5514 48.0955 41.8097H44.9781C44.743 41.3258 44.4182 40.9524 43.9896 40.6966C43.561 40.4408 43.0772 40.3163 42.538 40.3163C41.6671 40.3163 40.9551 40.6205 40.416 41.229C39.8768 41.8374 39.6003 42.6533 39.6003 43.6696C39.6003 44.686 39.8699 45.5018 40.416 46.1103C40.9551 46.7187 41.6671 47.0229 42.538 47.0229C43.0772 47.0229 43.561 46.8985 43.9896 46.6426C44.4182 46.3868 44.743 46.0204 44.9781 45.5295H48.0955C47.7637 46.7878 47.107 47.7835 46.1186 48.5094C45.137 49.2354 43.9481 49.5949 42.5657 49.5949C41.439 49.5949 40.4298 49.346 39.5381 48.8413C38.6464 48.3366 37.9552 47.6383 37.4575 46.7394C36.9598 45.8406 36.711 44.8173 36.711 43.6696C36.711 42.5219 36.9598 41.4917 37.4575 40.5929Z" fill="black"/>
<path d="M52.3327 48.8624C51.4203 48.3507 50.6945 47.6455 50.1622 46.7328C49.6231 45.8202 49.3604 44.7969 49.3604 43.6561C49.3604 42.5153 49.63 41.492 50.1622 40.5863C50.7014 39.6805 51.4203 38.9684 52.3327 38.4637C53.2451 37.952 54.2474 37.7031 55.3464 37.7031C56.4455 37.7031 57.4478 37.9589 58.3602 38.4637C59.2726 38.9753 59.9915 39.6805 60.5168 40.5863C61.0421 41.492 61.3048 42.5153 61.3048 43.6561C61.3048 44.7969 61.0421 45.8202 60.5099 46.7328C59.9777 47.6455 59.2588 48.3576 58.3533 48.8624C57.4478 49.374 56.4455 49.6229 55.3534 49.6229C54.2612 49.6229 53.252 49.3671 52.3396 48.8624H52.3327ZM57.5722 46.1106C58.1321 45.4883 58.4086 44.6725 58.4086 43.6561C58.4086 42.6397 58.1321 41.8031 57.5722 41.1947C57.0123 40.5794 56.2727 40.2751 55.3395 40.2751C54.4064 40.2751 53.6529 40.5794 53.093 41.1878C52.5332 41.7962 52.2567 42.619 52.2567 43.663C52.2567 44.707 52.5332 45.516 53.093 46.1244C53.6529 46.7397 54.3995 47.044 55.3395 47.044C56.2796 47.044 57.0123 46.7328 57.5722 46.1175V46.1106Z" fill="black"/>
<path d="M63.0052 46.8215C64.0904 45.9226 64.9407 45.1898 65.5697 44.6159C66.1918 44.042 66.724 43.4405 67.1526 42.8044C67.5811 42.1752 67.8023 41.5599 67.8023 40.9653C67.8023 40.509 67.6986 40.1563 67.4844 39.9005C67.277 39.6447 66.959 39.5203 66.5374 39.5203C66.1157 39.5203 65.7909 39.6793 65.5489 39.9904C65.3139 40.3085 65.1895 40.751 65.1895 41.3248H62.4522C62.473 40.3845 62.6734 39.5963 63.0605 38.9671C63.4407 38.338 63.9453 37.8747 64.5674 37.5705C65.1895 37.2732 65.8876 37.1211 66.648 37.1211C67.9613 37.1211 68.9567 37.4599 69.6272 38.1305C70.2977 38.8081 70.6294 39.6862 70.6294 40.7717C70.6294 41.954 70.2285 43.0533 69.4198 44.0628C68.6111 45.0722 67.5811 46.0609 66.3369 47.022H70.8161V49.3313H62.4868V47.2225C62.8601 46.9252 63.0329 46.7869 62.9983 46.8076L63.0052 46.8215Z" fill="black"/>
</g>
<defs>
<clipPath id="clip0_206_1261">
<rect width="346" height="202" fill="white"/>
</clipPath>
</defs>
</svg>
