<svg width="325" height="364" viewBox="0 0 325 364" fill="none" xmlns="http://www.w3.org/2000/svg">
<g clip-path="url(#clip0_206_1830)">
<g opacity="0.5">
<path d="M317.501 143.298C290.687 203.406 205.769 211.903 137.458 241.909C69.1461 271.914 -9.39768 183.507 0.943394 110.424C11.2845 37.3409 95.8031 -11.1109 189.695 2.20338C283.599 15.5176 347.557 75.8918 317.489 143.298H317.501Z" fill="#4D6F3D"/>
</g>
<path d="M177.334 145.719C176.947 144.085 175.605 142.851 173.936 142.597C165.506 141.326 139.611 138.215 122.484 144.836C102.141 152.715 101.947 342.613 101.947 348.835C101.947 348.968 101.947 349.077 101.923 349.21C101.754 350.444 99.9395 354.233 96.7102 357.053C95.9482 357.719 92.4407 360.999 92.4044 362.004C92.3682 363.008 92.8519 363.928 94.8839 363.965C98.2825 364.013 123.549 363.977 131.882 363.965C133.382 363.965 134.64 362.803 134.773 361.302L146.952 218.367C147.049 217.29 147.714 216.346 148.718 215.934C151.318 214.857 155.866 213.828 160.305 216.927C164.115 219.577 167.925 340.931 168.166 361.12C168.191 362.706 169.485 363.989 171.069 363.989H206.725C206.725 363.989 211.284 363.989 207.329 357.634C204.427 352.986 203.882 352.115 203.544 347.83C202.77 337.941 211.006 328.803 188.22 197.234C185.728 182.842 179.427 154.495 177.334 145.707V145.719Z" fill="#4D6F3D"/>
<path d="M121.021 145.754C121.021 145.754 115.868 150.075 110.329 169.66C107.257 180.529 101.028 198.297 114.538 193.577C138.087 185.346 160.063 162.881 163.195 158.185C164.961 155.534 167.332 149.712 158.636 140.852C152.927 135.042 147.883 136.325 145.089 138.141C145.017 138.189 144.34 141.409 143.239 146.069C141.836 152 136.176 157.882 130.685 162.204C123.198 168.11 131.144 161.707 124.831 166.476C111.055 176.898 120.997 145.742 120.997 145.742L121.021 145.754Z" fill="#6C925C"/>
<path d="M142.816 147.559C143.009 144.739 141.461 133.301 146.638 137.646L142.816 147.559Z" fill="#6C925C"/>
<path d="M177.334 144.181C181.991 208.32 208.696 204.144 211.176 169.769C212.337 153.659 208.95 137.016 202.262 118.352C201.681 116.718 195.61 101.757 184.192 106.611C176.693 109.806 174.178 117.71 176.984 117.819C177.951 117.855 179.596 118.969 182.39 121.583C185.184 124.198 187.845 128.265 192.15 140.696C195.271 149.713 196.178 155.014 195.041 160.122C191.292 176.995 177.334 144.169 177.334 144.169V144.181Z" fill="#6C925C"/>
<path d="M150.677 89.7383C157.209 89.7383 162.494 97.4363 162.494 106.926C162.494 116.415 157.209 124.113 150.677 124.113C144.146 124.113 138.861 116.415 138.861 106.926C138.861 97.4363 144.146 89.7383 150.677 89.7383Z" fill="#4D6F3D"/>
<path d="M132.995 87.6197C132.995 87.6197 131.991 78.796 143.203 79.3044C143.203 79.3044 146.855 79.147 147.388 81.6888C147.883 84.0612 133.745 91.263 133.37 89.4353L132.995 87.6197Z" fill="#4D6F3D"/>
<path d="M143.215 79.3052C143.215 79.3052 148.113 74.7663 149.698 76.1219C151.282 77.4775 147.194 82.4522 147.194 82.4522" fill="#4D6F3D"/>
<path d="M166.691 67.4916C166.328 66.8258 166.268 66.148 166.497 65.4218C166.739 64.6835 167.199 64.1509 167.888 63.8362C168.578 63.5094 169.328 63.4852 170.162 63.7636C170.972 64.0298 171.553 64.5019 171.916 65.1676C172.279 65.8333 172.339 66.5353 172.097 67.2737C171.855 67.9878 171.396 68.5083 170.718 68.823C170.029 69.1377 169.291 69.1619 168.481 68.8956C167.658 68.6172 167.054 68.1573 166.691 67.4916ZM181.326 51.9381C182.172 53.3542 182.281 55.0125 181.664 56.8886C181.096 58.6194 180.08 59.7814 178.641 60.3745C177.201 60.9676 175.532 60.9676 173.67 60.3745L172.847 62.3958L168.711 61.0281L170.271 55.8476L171.928 56.3923C173.343 56.8643 174.48 57.0459 175.339 56.937C176.197 56.8401 176.778 56.3197 177.08 55.3998C177.286 54.7583 177.286 54.1894 177.056 53.7052C176.826 53.2211 176.403 52.8822 175.774 52.6764C175.109 52.4585 174.54 52.4706 174.044 52.7369C173.549 52.9911 173.198 53.4389 172.992 54.0805L168.553 52.6159C168.892 51.4781 169.448 50.5461 170.259 49.8078C171.057 49.0694 172.049 48.6095 173.222 48.4158C174.395 48.2222 175.689 48.3553 177.104 48.8274C179.076 49.481 180.479 50.5098 181.326 51.9381Z" fill="#7AB861"/>
<path d="M113.413 69.1865C114.985 69.6948 116.159 70.8568 116.933 72.6845C117.646 74.3669 117.646 75.9041 116.945 77.2961C116.243 78.7001 114.998 79.7895 113.208 80.5641L113.921 82.6218L109.906 84.3284L107.668 79.4142L109.277 78.7364C110.643 78.1554 111.623 77.5381 112.204 76.8966C112.784 76.2551 112.881 75.4805 112.506 74.5969C112.24 73.9675 111.865 73.556 111.369 73.3381C110.885 73.1202 110.329 73.1444 109.724 73.3986C109.083 73.6649 108.66 74.0643 108.454 74.5848C108.249 75.1053 108.285 75.6741 108.551 76.2914L104.245 78.1191C103.749 77.054 103.556 75.9646 103.677 74.8874C103.798 73.8101 104.233 72.8055 104.995 71.8856C105.745 70.9657 106.809 70.2153 108.188 69.6343C110.099 68.8233 111.829 68.6781 113.401 69.1865H113.413ZM112.663 90.5377C111.95 90.2835 111.454 89.7994 111.164 89.1095C110.861 88.3953 110.861 87.6933 111.164 86.9913C111.466 86.3014 112.022 85.7809 112.821 85.4299C113.607 85.091 114.357 85.0668 115.07 85.333C115.784 85.5993 116.292 86.0835 116.594 86.7976C116.884 87.4996 116.884 88.1896 116.57 88.8674C116.268 89.5573 115.711 90.0657 114.937 90.4046C114.139 90.7435 113.377 90.7798 112.675 90.5256L112.663 90.5377Z" fill="#65A04C"/>
<path d="M120.658 50.9928C121.662 50.4966 122.605 50.2666 123.5 50.2908C124.395 50.315 125.169 50.5571 125.847 51.017C126.512 51.477 127.032 52.1185 127.395 52.9294L124.25 54.4666C124.032 54.0067 123.718 53.7162 123.331 53.5709C122.944 53.4378 122.508 53.4741 122.037 53.7041C121.589 53.922 121.311 54.2246 121.19 54.5998C121.069 54.9871 121.118 55.3986 121.347 55.8586C121.662 56.5122 122.146 56.8269 122.799 56.8148C123.452 56.8027 124.274 56.5485 125.278 56.0643L126.451 55.4955L128.133 59.1871L125.206 60.6275L124.395 59.2113C123.077 59.8408 121.843 60.0102 120.706 59.7197C119.569 59.4292 118.699 58.6667 118.106 57.4442C117.453 56.1128 117.368 54.8782 117.852 53.7404C118.336 52.6026 119.279 51.6827 120.67 51.0049L120.658 50.9928ZM129.124 65.0091C128.556 65.2875 128 65.348 127.455 65.1907C126.911 65.0333 126.524 64.6944 126.27 64.186C126.016 63.6656 125.992 63.133 126.185 62.6004C126.379 62.0679 126.766 61.6563 127.346 61.3779C127.939 61.0875 128.495 61.0269 129.04 61.2085C129.584 61.3779 129.983 61.729 130.237 62.2494C130.491 62.7578 130.515 63.2783 130.31 63.7987C130.104 64.3313 129.717 64.7307 129.124 65.0212V65.0091Z" fill="#5E8B4B"/>
<path d="M148.778 35.9967C150.363 35.9967 151.705 36.2872 152.818 36.8319C153.931 37.3765 154.765 38.1149 155.322 39.0348C155.878 39.9547 156.132 40.9956 156.084 42.1455L151.137 42.1091C151.137 41.4555 150.943 40.923 150.532 40.5356C150.121 40.1483 149.553 39.9547 148.815 39.9426C148.113 39.9426 147.569 40.1241 147.182 40.4993C146.795 40.8745 146.589 41.395 146.589 42.0486C146.589 42.9927 146.988 43.6463 147.823 44.0095C148.658 44.3726 149.855 44.5662 151.439 44.5662H153.29L153.096 49.8314L148.476 49.7951L148.343 47.6769C146.275 47.6406 144.606 47.1323 143.36 46.1276C142.102 45.1351 141.485 43.7432 141.497 41.976C141.509 40.0515 142.187 38.5748 143.517 37.5339C144.848 36.4929 146.613 35.9725 148.803 35.9846L148.778 35.9967ZM150.653 57.1664C149.746 57.1664 149.008 56.9001 148.428 56.4038C147.847 55.8955 147.557 55.2782 147.569 54.5519C147.569 53.8015 147.871 53.1721 148.464 52.6637C149.057 52.1554 149.794 51.9133 150.702 51.9133C151.621 51.9133 152.383 52.1796 152.963 52.6879C153.544 53.1963 153.834 53.8378 153.822 54.5882C153.822 55.3266 153.52 55.9318 152.927 56.428C152.334 56.9243 151.584 57.1664 150.665 57.1543L150.653 57.1664Z" fill="#65A04C"/>
<path d="M180.769 86.0221C180.237 85.6711 179.911 85.2112 179.777 84.6665C179.644 84.1218 179.741 83.6014 180.056 83.1414C180.382 82.6573 180.818 82.3668 181.386 82.2699C181.942 82.1731 182.499 82.3062 183.019 82.6572C183.563 83.0204 183.89 83.4803 184.023 84.0371C184.144 84.5939 184.047 85.1143 183.72 85.5985C183.406 86.0705 182.971 86.3489 182.414 86.4337C181.858 86.5184 181.301 86.3852 180.769 86.0221ZM188.667 71.679C189.598 72.3084 190.276 73.0105 190.699 73.7972C191.122 74.584 191.304 75.3828 191.243 76.1938C191.183 77.0047 190.893 77.7794 190.373 78.4935L187.458 76.5327C187.736 76.109 187.845 75.6975 187.772 75.286C187.7 74.8745 187.446 74.5234 187.01 74.2329C186.599 73.9546 186.2 73.8698 185.813 73.9546C185.426 74.0393 185.087 74.2935 184.797 74.7171C184.398 75.3223 184.361 75.9033 184.688 76.4601C185.027 77.0168 185.656 77.6099 186.575 78.2272L187.663 78.9535L185.317 82.2578L182.608 80.4301L183.43 79.014C182.221 78.1788 181.459 77.1984 181.144 76.0727C180.83 74.9471 181.047 73.8093 181.809 72.6836C182.632 71.4491 183.66 70.7591 184.894 70.6139C186.127 70.4565 187.385 70.8197 188.667 71.679Z" fill="#445A3A"/>
</g>
<defs>
<clipPath id="clip0_206_1830">
<rect width="325" height="364" fill="white"/>
</clipPath>
</defs>
</svg>
