<svg width="411" height="411" viewBox="0 0 411 411" fill="none" xmlns="http://www.w3.org/2000/svg">
<path opacity="0.5" d="M1.18262 117.364C14.261 39.6862 121.136 -11.8114 239.897 2.33981C358.658 16.491 439.545 80.6605 401.518 152.304" fill="#5E8B4B"/>
<path opacity="0.5" d="M401.533 152.303C367.621 216.189 260.226 225.22 173.832 257.112C84.517 290.071 -11.8805 195.052 1.1979 117.375" fill="#5E8B4B"/>
<path d="M228.226 178.921C227.737 177.184 226.039 175.872 223.928 175.602C213.266 174.251 180.517 170.944 158.857 177.981C133.129 186.356 132.884 388.192 132.884 394.804C132.884 394.946 132.884 395.061 132.853 395.203C132.639 396.515 130.345 400.542 126.261 403.539C125.297 404.247 120.861 407.733 120.815 408.801C120.769 409.869 121.381 410.846 123.951 410.885C128.249 410.937 160.203 410.898 170.742 410.885C172.639 410.885 174.23 409.65 174.398 408.055L189.802 256.135C189.924 254.99 190.765 253.986 192.035 253.549C195.324 252.404 201.075 251.311 206.689 254.604C211.507 257.421 216.325 386.403 216.631 407.862C216.662 409.547 218.299 410.911 220.303 410.911H265.396C265.396 410.911 271.163 410.911 266.161 404.157C262.49 399.217 261.801 398.29 261.373 393.736C260.394 383.226 270.811 373.513 241.993 233.673C238.842 218.377 230.872 188.248 228.226 178.908V178.921Z" fill="#4D6F3D"/>
<path d="M177.305 128.423C177.305 128.423 176.035 119.045 190.215 119.585C190.215 119.585 194.834 119.418 195.507 122.119C196.134 124.641 178.253 132.295 177.779 130.353L177.305 128.423Z" fill="#4D6F3D"/>
<path d="M190.215 119.59C190.215 119.59 196.41 114.765 198.413 116.206C200.417 117.647 195.247 122.934 195.247 122.934" fill="#4D6F3D"/>
<path d="M196.807 164.923C205.061 164.923 211.752 156.744 211.752 146.655C211.752 136.566 205.061 128.387 196.807 128.387C188.554 128.387 181.863 136.566 181.863 146.655C181.863 156.744 188.554 164.923 196.807 164.923Z" fill="#4D6F3D"/>
<path d="M236.547 213.565C237.541 214.376 253.679 178.509 257.534 166.969C264.096 147.325 272.234 119.871 266.1 100.51C265.274 97.9239 260.471 91.4144 238.536 94.0903C224.142 95.8399 223.316 100.857 225.029 103.456C225.075 103.533 228.272 105.411 232.05 108.37C253.006 124.798 226.498 158.53 226.926 177.467C227.201 189.431 236.532 213.552 236.532 213.552L236.547 213.565Z" fill="#6C925C"/>
<path d="M227.874 105.576C225.213 103.659 213.664 95.6829 227.645 97.5998L227.874 105.576Z" fill="#6C925C"/>
<path d="M143.79 213.564C143.102 214.053 139.186 177.427 135.897 167.148C129.58 147.439 121.442 119.896 127.576 100.521C128.402 97.9357 133.205 91.4261 155.14 94.102C169.534 95.8516 170.36 100.869 168.647 103.468C168.601 103.545 165.358 105.423 161.626 108.382C140.655 125.003 164.027 160.986 160.127 181.016C158.016 191.81 143.79 213.564 143.79 213.564Z" fill="#6C925C"/>
<path d="M165.802 105.576C168.463 103.659 180.012 95.6829 166.031 97.5998L165.802 105.576Z" fill="#6C925C"/>
<rect x="110.5" y="49.5" width="184" height="47" rx="23.5" fill="#5E8B4B"/>
<rect x="110.5" y="49.5" width="184" height="47" rx="23.5" stroke="black"/>
<path d="M133.104 79L130.448 74.44H128.688V79H127.232V67.848H130.832C131.675 67.848 132.384 67.992 132.96 68.28C133.547 68.568 133.984 68.9573 134.272 69.448C134.56 69.9387 134.704 70.4987 134.704 71.128C134.704 71.896 134.48 72.5733 134.032 73.16C133.595 73.7467 132.933 74.136 132.048 74.328L134.848 79H133.104ZM128.688 73.272H130.832C131.621 73.272 132.213 73.08 132.608 72.696C133.003 72.3013 133.2 71.7787 133.2 71.128C133.2 70.4667 133.003 69.9547 132.608 69.592C132.224 69.2293 131.632 69.048 130.832 69.048H128.688V73.272ZM144.966 74.28C144.966 74.5573 144.95 74.8507 144.918 75.16H137.91C137.964 76.024 138.257 76.7013 138.79 77.192C139.334 77.672 139.99 77.912 140.758 77.912C141.388 77.912 141.91 77.768 142.326 77.48C142.753 77.1813 143.052 76.7867 143.222 76.296H144.79C144.556 77.1387 144.086 77.8267 143.382 78.36C142.678 78.8827 141.804 79.144 140.758 79.144C139.926 79.144 139.18 78.9573 138.518 78.584C137.868 78.2107 137.356 77.6827 136.982 77C136.609 76.3067 136.422 75.5067 136.422 74.6C136.422 73.6933 136.604 72.8987 136.966 72.216C137.329 71.5333 137.836 71.0107 138.486 70.648C139.148 70.2747 139.905 70.088 140.758 70.088C141.59 70.088 142.326 70.2693 142.966 70.632C143.606 70.9947 144.097 71.496 144.438 72.136C144.79 72.7653 144.966 73.48 144.966 74.28ZM143.462 73.976C143.462 73.4213 143.34 72.9467 143.094 72.552C142.849 72.1467 142.513 71.8427 142.086 71.64C141.67 71.4267 141.206 71.32 140.694 71.32C139.958 71.32 139.329 71.5547 138.806 72.024C138.294 72.4933 138.001 73.144 137.926 73.976H143.462ZM150.504 70.088C151.262 70.088 151.923 70.2533 152.488 70.584C153.064 70.9147 153.491 71.3307 153.768 71.832V70.232H155.24V79.192C155.24 79.992 155.07 80.7013 154.728 81.32C154.387 81.9493 153.896 82.44 153.256 82.792C152.627 83.144 151.891 83.32 151.048 83.32C149.896 83.32 148.936 83.048 148.168 82.504C147.4 81.96 146.947 81.2187 146.808 80.28H148.248C148.408 80.8133 148.739 81.24 149.24 81.56C149.742 81.8907 150.344 82.056 151.048 82.056C151.848 82.056 152.499 81.8053 153 81.304C153.512 80.8027 153.768 80.0987 153.768 79.192V77.352C153.48 77.864 153.054 78.2907 152.488 78.632C151.923 78.9733 151.262 79.144 150.504 79.144C149.726 79.144 149.016 78.952 148.376 78.568C147.747 78.184 147.251 77.6453 146.888 76.952C146.526 76.2587 146.344 75.4693 146.344 74.584C146.344 73.688 146.526 72.904 146.888 72.232C147.251 71.5493 147.747 71.0213 148.376 70.648C149.016 70.2747 149.726 70.088 150.504 70.088ZM153.768 74.6C153.768 73.9387 153.635 73.3627 153.368 72.872C153.102 72.3813 152.739 72.008 152.28 71.752C151.832 71.4853 151.336 71.352 150.792 71.352C150.248 71.352 149.752 71.48 149.304 71.736C148.856 71.992 148.499 72.3653 148.232 72.856C147.966 73.3467 147.832 73.9227 147.832 74.584C147.832 75.256 147.966 75.8427 148.232 76.344C148.499 76.8347 148.856 77.2133 149.304 77.48C149.752 77.736 150.248 77.864 150.792 77.864C151.336 77.864 151.832 77.736 152.28 77.48C152.739 77.2133 153.102 76.8347 153.368 76.344C153.635 75.8427 153.768 75.2613 153.768 74.6ZM158.453 68.808C158.175 68.808 157.941 68.712 157.749 68.52C157.557 68.328 157.461 68.0933 157.461 67.816C157.461 67.5387 157.557 67.304 157.749 67.112C157.941 66.92 158.175 66.824 158.453 66.824C158.719 66.824 158.943 66.92 159.125 67.112C159.317 67.304 159.413 67.5387 159.413 67.816C159.413 68.0933 159.317 68.328 159.125 68.52C158.943 68.712 158.719 68.808 158.453 68.808ZM159.157 70.232V79H157.701V70.232H159.157ZM164.742 79.144C164.07 79.144 163.468 79.032 162.934 78.808C162.401 78.5733 161.98 78.2533 161.67 77.848C161.361 77.432 161.19 76.9573 161.158 76.424H162.662C162.705 76.8613 162.908 77.2187 163.27 77.496C163.644 77.7733 164.129 77.912 164.726 77.912C165.281 77.912 165.718 77.7893 166.038 77.544C166.358 77.2987 166.518 76.9893 166.518 76.616C166.518 76.232 166.348 75.9493 166.006 75.768C165.665 75.576 165.137 75.3893 164.422 75.208C163.772 75.0373 163.238 74.8667 162.822 74.696C162.417 74.5147 162.065 74.2533 161.766 73.912C161.478 73.56 161.334 73.1013 161.334 72.536C161.334 72.088 161.468 71.6773 161.734 71.304C162.001 70.9307 162.38 70.6373 162.87 70.424C163.361 70.2 163.921 70.088 164.55 70.088C165.521 70.088 166.305 70.3333 166.902 70.824C167.5 71.3147 167.82 71.9867 167.862 72.84H166.406C166.374 72.3813 166.188 72.0133 165.846 71.736C165.516 71.4587 165.068 71.32 164.502 71.32C163.98 71.32 163.564 71.432 163.254 71.656C162.945 71.88 162.79 72.1733 162.79 72.536C162.79 72.824 162.881 73.064 163.062 73.256C163.254 73.4373 163.489 73.5867 163.766 73.704C164.054 73.8107 164.449 73.9333 164.95 74.072C165.58 74.2427 166.092 74.4133 166.486 74.584C166.881 74.744 167.217 74.9893 167.494 75.32C167.782 75.6507 167.932 76.0827 167.942 76.616C167.942 77.096 167.809 77.528 167.542 77.912C167.276 78.296 166.897 78.6 166.406 78.824C165.926 79.0373 165.372 79.144 164.742 79.144ZM171.774 71.432V76.6C171.774 77.0267 171.864 77.3307 172.046 77.512C172.227 77.6827 172.542 77.768 172.99 77.768H174.062V79H172.75C171.939 79 171.331 78.8133 170.926 78.44C170.52 78.0667 170.318 77.4533 170.318 76.6V71.432H169.182V70.232H170.318V68.024H171.774V70.232H174.062V71.432H171.774ZM177.282 71.656C177.538 71.1547 177.9 70.7653 178.37 70.488C178.85 70.2107 179.431 70.072 180.114 70.072V71.576H179.73C178.098 71.576 177.282 72.4613 177.282 74.232V79H175.826V70.232H177.282V71.656ZM189.795 74.28C189.795 74.5573 189.779 74.8507 189.747 75.16H182.739C182.792 76.024 183.085 76.7013 183.619 77.192C184.163 77.672 184.819 77.912 185.587 77.912C186.216 77.912 186.739 77.768 187.155 77.48C187.581 77.1813 187.88 76.7867 188.051 76.296H189.619C189.384 77.1387 188.915 77.8267 188.211 78.36C187.507 78.8827 186.632 79.144 185.587 79.144C184.755 79.144 184.008 78.9573 183.347 78.584C182.696 78.2107 182.184 77.6827 181.811 77C181.437 76.3067 181.251 75.5067 181.251 74.6C181.251 73.6933 181.432 72.8987 181.795 72.216C182.157 71.5333 182.664 71.0107 183.315 70.648C183.976 70.2747 184.733 70.088 185.587 70.088C186.419 70.088 187.155 70.2693 187.795 70.632C188.435 70.9947 188.925 71.496 189.267 72.136C189.619 72.7653 189.795 73.48 189.795 74.28ZM188.291 73.976C188.291 73.4213 188.168 72.9467 187.923 72.552C187.677 72.1467 187.341 71.8427 186.915 71.64C186.499 71.4267 186.035 71.32 185.523 71.32C184.787 71.32 184.157 71.5547 183.635 72.024C183.123 72.4933 182.829 73.144 182.755 73.976H188.291ZM193.172 71.656C193.428 71.1547 193.791 70.7653 194.26 70.488C194.74 70.2107 195.322 70.072 196.004 70.072V71.576H195.62C193.988 71.576 193.172 72.4613 193.172 74.232V79H191.716V70.232H193.172V71.656ZM201.407 74.584C201.407 73.688 201.588 72.904 201.951 72.232C202.313 71.5493 202.809 71.0213 203.439 70.648C204.079 70.2747 204.793 70.088 205.583 70.088C206.265 70.088 206.9 70.248 207.487 70.568C208.073 70.8773 208.521 71.288 208.831 71.8V67.16H210.303V79H208.831V77.352C208.543 77.8747 208.116 78.3067 207.551 78.648C206.985 78.9787 206.324 79.144 205.567 79.144C204.788 79.144 204.079 78.952 203.439 78.568C202.809 78.184 202.313 77.6453 201.951 76.952C201.588 76.2587 201.407 75.4693 201.407 74.584ZM208.831 74.6C208.831 73.9387 208.697 73.3627 208.431 72.872C208.164 72.3813 207.801 72.008 207.343 71.752C206.895 71.4853 206.399 71.352 205.855 71.352C205.311 71.352 204.815 71.48 204.367 71.736C203.919 71.992 203.561 72.3653 203.295 72.856C203.028 73.3467 202.895 73.9227 202.895 74.584C202.895 75.256 203.028 75.8427 203.295 76.344C203.561 76.8347 203.919 77.2133 204.367 77.48C204.815 77.736 205.311 77.864 205.855 77.864C206.399 77.864 206.895 77.736 207.343 77.48C207.801 77.2133 208.164 76.8347 208.431 76.344C208.697 75.8427 208.831 75.2613 208.831 74.6ZM213.515 68.808C213.238 68.808 213.003 68.712 212.811 68.52C212.619 68.328 212.523 68.0933 212.523 67.816C212.523 67.5387 212.619 67.304 212.811 67.112C213.003 66.92 213.238 66.824 213.515 66.824C213.782 66.824 214.006 66.92 214.187 67.112C214.379 67.304 214.475 67.5387 214.475 67.816C214.475 68.0933 214.379 68.328 214.187 68.52C214.006 68.712 213.782 68.808 213.515 68.808ZM214.219 70.232V79H212.763V70.232H214.219ZM218.477 71.432V76.6C218.477 77.0267 218.567 77.3307 218.749 77.512C218.93 77.6827 219.245 77.768 219.693 77.768H220.765V79H219.453C218.642 79 218.034 78.8133 217.629 78.44C217.223 78.0667 217.021 77.4533 217.021 76.6V71.432H215.885V70.232H217.021V68.024H218.477V70.232H220.765V71.432H218.477ZM228.251 71.864C228.549 71.3413 228.987 70.9147 229.562 70.584C230.139 70.2533 230.795 70.088 231.531 70.088C232.32 70.088 233.029 70.2747 233.659 70.648C234.288 71.0213 234.784 71.5493 235.147 72.232C235.509 72.904 235.691 73.688 235.691 74.584C235.691 75.4693 235.509 76.2587 235.147 76.952C234.784 77.6453 234.282 78.184 233.642 78.568C233.013 78.952 232.309 79.144 231.531 79.144C230.773 79.144 230.107 78.9787 229.531 78.648C228.965 78.3173 228.539 77.896 228.251 77.384V79H226.795V67.16H228.251V71.864ZM234.203 74.584C234.203 73.9227 234.069 73.3467 233.803 72.856C233.536 72.3653 233.173 71.992 232.715 71.736C232.267 71.48 231.771 71.352 231.227 71.352C230.693 71.352 230.197 71.4853 229.739 71.752C229.291 72.008 228.928 72.3867 228.651 72.888C228.384 73.3787 228.251 73.9493 228.251 74.6C228.251 75.2613 228.384 75.8427 228.651 76.344C228.928 76.8347 229.291 77.2133 229.739 77.48C230.197 77.736 230.693 77.864 231.227 77.864C231.771 77.864 232.267 77.736 232.715 77.48C233.173 77.2133 233.536 76.8347 233.803 76.344C234.069 75.8427 234.203 75.256 234.203 74.584ZM238.359 68.808C238.082 68.808 237.847 68.712 237.655 68.52C237.463 68.328 237.367 68.0933 237.367 67.816C237.367 67.5387 237.463 67.304 237.655 67.112C237.847 66.92 238.082 66.824 238.359 66.824C238.626 66.824 238.85 66.92 239.031 67.112C239.223 67.304 239.319 67.5387 239.319 67.816C239.319 68.0933 239.223 68.328 239.031 68.52C238.85 68.712 238.626 68.808 238.359 68.808ZM239.063 70.232V79H237.607V70.232H239.063ZM241.001 74.584C241.001 73.688 241.182 72.904 241.545 72.232C241.907 71.5493 242.403 71.0213 243.033 70.648C243.673 70.2747 244.387 70.088 245.177 70.088C245.859 70.088 246.494 70.248 247.081 70.568C247.667 70.8773 248.115 71.288 248.425 71.8V67.16H249.897V79H248.425V77.352C248.137 77.8747 247.71 78.3067 247.145 78.648C246.579 78.9787 245.918 79.144 245.161 79.144C244.382 79.144 243.673 78.952 243.033 78.568C242.403 78.184 241.907 77.6453 241.545 76.952C241.182 76.2587 241.001 75.4693 241.001 74.584ZM248.425 74.6C248.425 73.9387 248.291 73.3627 248.025 72.872C247.758 72.3813 247.395 72.008 246.937 71.752C246.489 71.4853 245.993 71.352 245.449 71.352C244.905 71.352 244.409 71.48 243.961 71.736C243.513 71.992 243.155 72.3653 242.889 72.856C242.622 73.3467 242.489 73.9227 242.489 74.584C242.489 75.256 242.622 75.8427 242.889 76.344C243.155 76.8347 243.513 77.2133 243.961 77.48C244.409 77.736 244.905 77.864 245.449 77.864C245.993 77.864 246.489 77.736 246.937 77.48C247.395 77.2133 247.758 76.8347 248.025 76.344C248.291 75.8427 248.425 75.2613 248.425 74.6ZM253.813 71.656C254.069 71.1547 254.432 70.7653 254.901 70.488C255.381 70.2107 255.962 70.072 256.645 70.072V71.576H256.261C254.629 71.576 253.813 72.4613 253.813 74.232V79H252.357V70.232H253.813V71.656ZM257.782 74.584C257.782 73.688 257.963 72.904 258.326 72.232C258.688 71.5493 259.184 71.0213 259.814 70.648C260.454 70.2747 261.163 70.088 261.942 70.088C262.71 70.088 263.376 70.2533 263.942 70.584C264.507 70.9147 264.928 71.3307 265.206 71.832V70.232H266.678V79H265.206V77.368C264.918 77.88 264.486 78.3067 263.91 78.648C263.344 78.9787 262.683 79.144 261.926 79.144C261.147 79.144 260.443 78.952 259.814 78.568C259.184 78.184 258.688 77.6453 258.326 76.952C257.963 76.2587 257.782 75.4693 257.782 74.584ZM265.206 74.6C265.206 73.9387 265.072 73.3627 264.806 72.872C264.539 72.3813 264.176 72.008 263.718 71.752C263.27 71.4853 262.774 71.352 262.23 71.352C261.686 71.352 261.19 71.48 260.742 71.736C260.294 71.992 259.936 72.3653 259.67 72.856C259.403 73.3467 259.27 73.9227 259.27 74.584C259.27 75.256 259.403 75.8427 259.67 76.344C259.936 76.8347 260.294 77.2133 260.742 77.48C261.19 77.736 261.686 77.864 262.23 77.864C262.774 77.864 263.27 77.736 263.718 77.48C264.176 77.2133 264.539 76.8347 264.806 76.344C265.072 75.8427 265.206 75.2613 265.206 74.6ZM272.754 70.088C273.512 70.088 274.173 70.2533 274.738 70.584C275.314 70.9147 275.741 71.3307 276.018 71.832V70.232H277.49V79.192C277.49 79.992 277.32 80.7013 276.978 81.32C276.637 81.9493 276.146 82.44 275.506 82.792C274.877 83.144 274.141 83.32 273.298 83.32C272.146 83.32 271.186 83.048 270.418 82.504C269.65 81.96 269.197 81.2187 269.058 80.28H270.498C270.658 80.8133 270.989 81.24 271.49 81.56C271.992 81.8907 272.594 82.056 273.298 82.056C274.098 82.056 274.749 81.8053 275.25 81.304C275.762 80.8027 276.018 80.0987 276.018 79.192V77.352C275.73 77.864 275.304 78.2907 274.738 78.632C274.173 78.9733 273.512 79.144 272.754 79.144C271.976 79.144 271.266 78.952 270.626 78.568C269.997 78.184 269.501 77.6453 269.138 76.952C268.776 76.2587 268.594 75.4693 268.594 74.584C268.594 73.688 268.776 72.904 269.138 72.232C269.501 71.5493 269.997 71.0213 270.626 70.648C271.266 70.2747 271.976 70.088 272.754 70.088ZM276.018 74.6C276.018 73.9387 275.885 73.3627 275.618 72.872C275.352 72.3813 274.989 72.008 274.53 71.752C274.082 71.4853 273.586 71.352 273.042 71.352C272.498 71.352 272.002 71.48 271.554 71.736C271.106 71.992 270.749 72.3653 270.482 72.856C270.216 73.3467 270.082 73.9227 270.082 74.584C270.082 75.256 270.216 75.8427 270.482 76.344C270.749 76.8347 271.106 77.2133 271.554 77.48C272.002 77.736 272.498 77.864 273.042 77.864C273.586 77.864 274.082 77.736 274.53 77.48C274.989 77.2133 275.352 76.8347 275.618 76.344C275.885 75.8427 276.018 75.2613 276.018 74.6Z" fill="black"/>
</svg>
