<svg width="278" height="226" viewBox="0 0 278 226" fill="none" xmlns="http://www.w3.org/2000/svg">
<g opacity="0.5">
<path d="M271.713 119.317C249.003 169.014 176.387 175.718 118.051 200.317C57.752 225.743 -7.81519 151.383 0.759956 90.8753C9.3351 30.3769 81.4427 -9.44669 161.835 1.94445C242.227 13.3356 297.175 63.5965 271.713 119.317Z" fill="#4D6F3D"/>
</g>
<path d="M190.858 150.884C188.777 150.884 186.715 150.402 184.871 149.448C179.285 146.56 168.947 139.42 176.769 128.91C187.142 114.957 161.935 110.942 185.644 100.659C203.611 92.8652 208.789 101.131 210.252 105.583C210.824 107.336 211.741 108.953 212.959 110.333C216.765 114.657 223.959 124.277 220.589 131.98C219.272 134.996 218.4 137.867 217.828 140.428C216.456 146.523 211.124 150.911 204.874 150.902L190.858 150.884Z" fill="#333333"/>
<path d="M225.058 140.91C225.058 140.91 243.571 126.085 228.101 117.719C217.973 112.241 208.625 113.595 203.375 115.184C200.822 115.956 199.196 117.764 199.26 119.735C199.36 122.796 198.851 127.384 195.054 128.338C189.259 129.8 186.27 140.91 186.27 140.91H225.049H225.058Z" fill="#4D4D4D"/>
<path d="M101.672 24.5366C101.672 24.5366 100.918 17.9145 109.339 18.296C109.339 18.296 112.082 18.1779 112.482 20.0855C112.855 21.866 102.235 27.2709 101.954 25.8992L101.672 24.5366Z" fill="#4D6F3D"/>
<path d="M109.348 18.2947C109.348 18.2947 113.027 14.8882 114.217 15.9056C115.407 16.923 112.337 20.6565 112.337 20.6565" fill="#4D6F3D"/>
<path d="M129.251 61.543C128.96 60.3167 127.952 59.3901 126.698 59.1994C120.367 58.2456 100.918 55.911 88.0557 60.8799C72.7767 66.7934 72.6313 209.31 72.6313 213.979C72.6313 214.079 72.6313 214.161 72.6131 214.261C72.486 215.187 71.1234 218.03 68.698 220.147C68.1257 220.646 65.4914 223.108 65.4642 223.862C65.4369 224.616 65.8003 225.306 67.3263 225.334C69.8789 225.37 88.8551 225.343 95.1138 225.334C96.2402 225.334 97.185 224.462 97.2849 223.335L106.432 116.064C106.505 115.256 107.005 114.547 107.759 114.238C109.712 113.43 113.127 112.658 116.461 114.983C119.322 116.973 122.184 208.047 122.365 223.199C122.384 224.389 123.355 225.352 124.545 225.352H151.325C151.325 225.352 154.749 225.352 151.779 220.583C149.599 217.095 149.19 216.441 148.936 213.225C148.354 205.803 154.54 198.945 137.426 100.204C135.555 89.4031 130.822 68.1288 129.251 61.5339V61.543Z" fill="#4D6F3D"/>
<path d="M113.263 50.3162C118.165 50.3162 122.138 44.5411 122.138 37.4171C122.138 30.2932 118.165 24.5181 113.263 24.5181C108.362 24.5181 104.388 30.2932 104.388 37.4171C104.388 44.5411 108.362 50.3162 113.263 50.3162Z" fill="#4D6F3D"/>
<path d="M96.5309 58.837C96.5309 58.837 74.439 59.5092 68.3528 86.788C62.2667 114.067 65.2916 150.102 66.6088 156.316C67.3536 159.804 69.6882 166.135 78.9446 164.564C85.0217 163.537 86.6114 158.023 86.8385 154.19C86.8385 154.081 86.1935 151.12 85.4123 146.305C81.1066 119.581 96.5309 58.837 96.5309 58.837Z" fill="#6C925C"/>
<path d="M86.3388 150.901C86.8294 153.981 89.5545 164.3 83.9771 161.484L86.3388 150.901Z" fill="#6C925C"/>
<path d="M126.026 59.1085C126.026 59.1085 149.363 60.4983 155.449 87.7771C161.535 115.056 158.51 151.091 157.193 157.305C156.448 160.793 154.113 167.124 144.857 165.553C138.78 164.526 137.19 159.013 136.963 155.179C136.963 155.07 137.608 152.109 138.389 147.294C142.695 120.57 126.035 59.1085 126.035 59.1085H126.026Z" fill="#6C925C"/>
<path d="M137.463 151.882C136.972 154.961 134.247 165.28 139.824 162.465L137.463 151.882Z" fill="#6C925C"/>
<path d="M225.894 141.6H177.223C175.386 141.6 173.898 143.089 173.898 144.925V222.047C173.898 223.883 175.386 225.371 177.223 225.371H225.894C227.73 225.371 229.219 223.883 229.219 222.047V144.925C229.219 143.089 227.73 141.6 225.894 141.6Z" fill="#707A88"/>
<path d="M236.876 222.593L233.225 224.482L232.798 222.221C232.607 221.212 232.107 220.249 231.399 219.514L229.791 217.86L233.443 215.971L233.77 218.314C233.915 219.323 234.415 220.286 235.15 220.976L236.876 222.593Z" fill="#C7B299"/>
<path d="M234.932 216.034L234.524 216.107C234.269 216.152 234.024 216.216 233.779 216.298C233.279 216.47 232.816 216.734 232.407 217.07C232.289 217.17 232.171 217.279 232.062 217.388C231.898 217.551 231.689 217.669 231.462 217.715C230.608 217.896 229.546 218.387 228.937 219.005L228.692 219.25C228.065 218.033 228.537 216.534 229.755 215.898L231.589 214.944C232.807 214.317 234.306 214.79 234.941 216.007L234.932 216.034Z" fill="#C1272D"/>
<path d="M237.73 221.422L237.43 221.722C236.758 222.394 235.895 222.839 234.96 222.985C234.732 223.021 234.514 223.121 234.342 223.285C233.706 223.875 232.689 224.465 231.826 224.602L231.48 224.656C232.107 225.873 233.615 226.355 234.832 225.719L236.667 224.765C237.885 224.138 238.366 222.631 237.73 221.413V221.422Z" fill="#C1272D"/>
<path d="M233.81 220.329C233.904 220.281 233.89 220.068 233.779 219.854C233.668 219.64 233.502 219.506 233.409 219.555C233.315 219.603 233.329 219.816 233.44 220.03C233.551 220.244 233.716 220.378 233.81 220.329Z" fill="#1A1A1A"/>
<path d="M232.924 220.787C233.017 220.738 233.003 220.526 232.893 220.312C232.782 220.098 232.616 219.964 232.523 220.013C232.429 220.061 232.443 220.274 232.554 220.487C232.665 220.701 232.83 220.835 232.924 220.787Z" fill="#1A1A1A"/>
<path d="M230.363 215.597L229.9 215.407L230.336 215.398L230.218 215.18L230.445 215.307L230.608 214.971L230.672 215.443L230.363 215.597Z" fill="#736357"/>
<path d="M216.047 140.138L212.622 142.418L211.959 140.211C211.66 139.23 211.06 138.33 210.27 137.676L208.489 136.205L211.914 133.925L212.495 136.214C212.741 137.195 213.349 138.103 214.158 138.712L216.047 140.138Z" fill="#C7B299"/>
<path d="M213.413 133.824L213.013 133.942C212.768 134.015 212.522 134.106 212.295 134.215C211.823 134.442 211.387 134.76 211.024 135.132C210.915 135.241 210.806 135.368 210.715 135.487C210.569 135.668 210.379 135.804 210.161 135.877C209.334 136.15 208.326 136.758 207.79 137.44L207.572 137.712C206.809 136.567 207.117 135.023 208.262 134.269L209.979 133.125C211.123 132.362 212.668 132.671 213.422 133.815L213.413 133.824Z" fill="#C1272D"/>
<path d="M216.765 138.875L216.501 139.202C215.911 139.947 215.093 140.473 214.176 140.728C213.949 140.791 213.749 140.919 213.594 141.091C213.022 141.745 212.077 142.445 211.242 142.681L210.906 142.772C211.669 143.916 213.204 144.225 214.348 143.462L216.065 142.317C217.21 141.554 217.519 140.019 216.756 138.875H216.765Z" fill="#C1272D"/>
<path d="M212.767 138.237C212.855 138.179 212.818 137.969 212.684 137.768C212.551 137.568 212.372 137.453 212.284 137.511C212.196 137.569 212.233 137.779 212.366 137.98C212.5 138.18 212.679 138.295 212.767 138.237Z" fill="#1A1A1A"/>
<path d="M211.925 138.794C212.013 138.736 211.976 138.526 211.843 138.326C211.709 138.125 211.53 138.01 211.442 138.068C211.355 138.127 211.392 138.336 211.525 138.537C211.658 138.737 211.837 138.853 211.925 138.794Z" fill="#1A1A1A"/>
<path d="M208.825 133.888L208.335 133.752L208.762 133.697L208.625 133.488L208.862 133.597L208.998 133.243L209.107 133.706L208.825 133.888Z" fill="#736357"/>
<path d="M178.049 138.25H225.058C228.637 138.25 231.544 141.157 231.544 144.736H171.563C171.563 141.157 174.47 138.25 178.049 138.25Z" fill="#707A88"/>
<path d="M180.084 152.002C180.084 151.395 179.592 150.903 178.985 150.903C178.378 150.903 177.886 151.395 177.886 152.002V219.25C177.886 219.857 178.378 220.349 178.985 220.349C179.592 220.349 180.084 219.857 180.084 219.25V152.002Z" fill="#4D4D4D"/>
<path d="M202.875 152.002C202.875 151.395 202.383 150.903 201.776 150.903C201.169 150.903 200.677 151.395 200.677 152.002V219.25C200.677 219.857 201.169 220.349 201.776 220.349C202.383 220.349 202.875 219.857 202.875 219.25V152.002Z" fill="#4D4D4D"/>
<path d="M225.658 152.002C225.658 151.395 225.166 150.903 224.559 150.903C223.952 150.903 223.459 151.395 223.459 152.002V219.25C223.459 219.857 223.952 220.349 224.559 220.349C225.166 220.349 225.658 219.857 225.658 219.25V152.002Z" fill="#4D4D4D"/>
<path opacity="0.5" d="M173.898 144.917H229.219V161.967L173.898 149.559V144.917Z" fill="#4D4D4D"/>
<path d="M225.649 110.768C224.668 109.824 224.858 116.4 221.434 116.591C219.744 116.691 225.258 121.287 225.322 118.762C225.412 115.265 231.599 113.666 229.918 113.757C226.875 113.92 227.138 112.195 225.649 110.759V110.768Z" fill="#4D4D4D"/>
<path d="M180.275 138.338L191.23 138.075L190.603 129.936L179.684 129.981L180.275 138.338Z" fill="#1E4C9A"/>
<path d="M185.127 131.567C188.383 131.522 191.012 130.755 191 129.852C190.988 128.949 188.338 128.253 185.083 128.297C181.827 128.341 179.198 129.109 179.21 130.012C179.222 130.915 181.872 131.611 185.127 131.567Z" fill="#B2B2B2"/>
<path d="M183.707 130.225C184.831 130.21 185.739 129.922 185.734 129.581C185.73 129.24 184.816 128.975 183.692 128.989C182.568 129.003 181.661 129.291 181.665 129.632C181.669 129.974 182.584 130.239 183.707 130.225Z" fill="#808080"/>
<path d="M183.109 129.808L183.327 129.418C183.418 129.254 183.363 129.027 183.209 128.918L182.21 128.21C182.055 128.101 181.855 128.146 181.765 128.31L181.547 128.7C181.456 128.864 181.51 129.091 181.665 129.2L182.664 129.908C182.818 130.017 183.018 129.972 183.109 129.808Z" fill="#666666"/>
<path d="M191.466 137.83L187.678 136.222L189.15 134.451C189.804 133.66 190.231 132.661 190.34 131.644L190.585 129.355L194.373 130.963L192.783 132.707C192.102 133.461 191.675 134.46 191.612 135.468L191.466 137.83Z" fill="#C7B299"/>
<path d="M195.281 132.152L194.964 131.879C194.764 131.707 194.555 131.561 194.337 131.434C193.883 131.162 193.383 130.971 192.865 130.88C192.711 130.853 192.556 130.825 192.393 130.816C192.157 130.798 191.939 130.707 191.757 130.571C191.076 130.035 190.013 129.526 189.15 129.454L188.805 129.427C189.341 128.164 190.794 127.573 192.057 128.109L193.955 128.918C195.218 129.454 195.808 130.907 195.272 132.17L195.281 132.152Z" fill="#C1272D"/>
<path d="M192.92 137.74L192.502 137.703C191.557 137.612 190.658 137.231 189.949 136.604C189.777 136.45 189.559 136.35 189.332 136.323C188.469 136.204 187.369 135.805 186.706 135.232L186.443 135.005C185.907 136.268 186.497 137.731 187.76 138.257L189.659 139.066C190.921 139.602 192.384 139.011 192.911 137.749L192.92 137.74Z" fill="#C1272D"/>
<path d="M191.525 133.723C191.618 133.501 191.616 133.288 191.519 133.247C191.422 133.206 191.267 133.352 191.173 133.574C191.079 133.796 191.082 134.009 191.179 134.05C191.276 134.091 191.431 133.944 191.525 133.723Z" fill="#1A1A1A"/>
<path d="M190.604 133.325C190.698 133.104 190.695 132.891 190.598 132.849C190.501 132.808 190.346 132.955 190.253 133.177C190.159 133.398 190.161 133.612 190.258 133.653C190.355 133.694 190.51 133.547 190.604 133.325Z" fill="#1A1A1A"/>
<path d="M192.693 128.356L192.547 127.883L192.829 128.21L192.929 127.974L192.965 128.229L193.328 128.147L193.011 128.492L192.693 128.356Z" fill="#736357"/>
<path d="M188.078 92.5749C186.343 92.3932 191.702 98.8882 188.405 101.768C186.779 103.194 195.954 103.503 194.037 100.905C191.375 97.3076 196.371 90.8308 194.745 92.2388C191.802 94.8004 190.712 92.8474 188.078 92.5658V92.5749Z" fill="#333333"/>
</svg>
