<svg width="264" height="341" viewBox="0 0 264 341" fill="none" xmlns="http://www.w3.org/2000/svg">
<path d="M202.977 14.1905C202.977 14.1905 204.159 3.40511 190.566 3.99609C190.566 3.99609 186.134 3.84834 185.395 6.95098C184.657 10.0536 202.09 18.6228 202.534 16.4066L202.977 14.1905Z" fill="#4D6F3D"/>
<path d="M190.419 4.14323C190.419 4.14323 184.361 -1.32332 182.44 0.30187C180.52 1.92706 185.543 7.98459 185.543 7.98459" fill="#4D6F3D"/>
<path d="M190.419 4.14258C187.464 4.14258 185.395 6.211 185.247 7.39296L190.419 4.14258Z" fill="#4D6F3D"/>
<path d="M158.063 74.4692C158.506 72.4007 160.131 70.9233 162.199 70.6278C172.541 69.1503 204.159 65.309 224.991 73.435C249.812 83.0384 250.107 314.85 250.107 322.385C250.107 329.92 250.107 322.68 250.107 322.828C250.255 324.306 252.471 329.033 256.46 332.431C260.45 335.83 261.632 337.307 261.779 338.489C261.927 339.671 261.188 340.853 258.677 340.853C254.54 340.853 223.661 340.853 213.467 340.853C203.272 340.853 210.069 339.375 209.921 337.603L194.999 163.116C194.999 161.786 194.112 160.604 192.783 160.161C189.532 158.831 184.066 157.649 178.599 161.343C173.132 165.037 169.291 312.781 168.996 337.307C168.996 339.228 167.37 340.853 165.45 340.853H121.865C121.865 340.853 116.251 340.853 121.126 333.022C126.002 325.192 125.411 326.226 125.706 321.055C126.593 308.94 116.546 297.859 144.47 137.261C147.573 119.679 155.255 85.1068 157.767 74.3214L158.063 74.4692Z" fill="#4D6F3D"/>
<path d="M184.066 56.149C176.069 56.149 169.587 46.756 169.587 35.1692C169.587 23.5824 176.069 14.1895 184.066 14.1895C192.062 14.1895 198.544 23.5824 198.544 35.1692C198.544 46.756 192.062 56.149 184.066 56.149Z" fill="#4D6F3D"/>
<path d="M211.251 70.0371C211.251 70.0371 247.153 71.0713 257.051 115.542C266.95 160.014 262.075 218.521 259.859 228.567C257.642 238.614 254.835 244.524 239.765 242.012C224.695 239.5 227.355 231.374 226.912 225.169C226.468 218.964 227.946 220.146 229.275 212.315C236.219 168.878 211.251 70.0371 211.251 70.0371Z" fill="#6C925C"/>
<path d="M227.946 219.703C227.207 224.726 222.775 241.422 231.787 236.842L227.946 219.703Z" fill="#6C925C"/>
<path d="M161.165 71.5157C161.756 71.9589 154.369 88.3586 152.744 96.9278C150.38 109.782 160.426 130.318 141.22 126.624C94.2368 117.76 40.0144 119.385 5.44217 80.3804C1.30531 75.8003 -4.6044 65.1627 5.88547 54.9683C12.6817 48.3198 20.5121 51.8656 25.3877 55.2638C25.3877 55.2638 28.4904 59.2529 34.1047 64.4239C67.495 95.4503 161.313 71.6634 161.313 71.6634L161.165 71.5157Z" fill="#6C925C"/>
<path d="M28.9336 58.9572C25.5355 55.4113 15.7843 41.5233 14.0114 51.7177L28.9336 58.9572Z" fill="#6C925C"/>
</svg>
