<svg width="383" height="367" viewBox="0 0 383 367" fill="none" xmlns="http://www.w3.org/2000/svg">
<g clip-path="url(#clip0_286_1048)">
<g opacity="0.5">
<path d="M374.163 169.239C342.563 240.229 242.491 250.264 161.988 285.702C78.7636 322.326 -11.0749 216.727 1.11166 130.413C13.3125 44.0989 112.9 -13.1247 223.548 2.59997C334.211 18.3247 409.582 89.629 374.149 169.239H374.163Z" fill="#5E8B4B"/>
</g>
<path d="M136.675 111.829C136.675 111.829 149.759 92.6881 166.051 119.606C180.874 144.079 200.173 166.38 205.447 193.884C206.231 198.001 204.706 207.05 188.143 211.438C177.268 214.311 174.132 208.422 173.22 203.776C173.192 203.647 174.018 199.344 173.876 193.197C173.277 166.751 157.413 130.399 136.66 111.844L136.675 111.829Z" fill="#6C925C"/>
<path d="M173.448 199.371C173.263 203.474 169.97 218.155 178.907 211.007Z" fill="#6C925C"/>
<path d="M154.748 109.086C154.292 107.156 152.71 105.698 150.743 105.398C140.808 103.897 110.292 100.223 90.1093 108.043C66.1352 117.349 65.9072 341.626 65.9072 348.974C65.9072 349.131 65.9072 349.259 65.8787 349.417C65.6791 350.875 63.5411 355.349 59.7355 358.68C58.8376 359.466 54.7041 363.34 54.6613 364.527C54.6186 365.713 55.1887 366.8 57.5833 366.842C61.5884 366.9 91.3635 366.857 101.184 366.842C102.951 366.842 104.434 365.47 104.591 363.698L118.944 194.886C119.058 193.614 119.842 192.499 121.025 192.013C124.089 190.74 129.448 189.525 134.679 193.185C139.169 196.315 143.659 339.639 143.944 363.483C143.972 365.356 145.498 366.871 147.365 366.871H189.383C189.383 366.871 194.757 366.871 190.096 359.366C186.675 353.877 186.034 352.848 185.635 347.787C184.723 336.108 194.429 325.315 167.576 169.927C164.64 152.93 157.214 119.45 154.748 109.072V109.086Z" fill="#4D6F3D"/>
<path d="M107.299 52.9747C107.299 52.9747 106.116 42.5535 119.329 43.1539C119.329 43.1539 123.633 42.968 124.26 45.97C124.845 48.7719 108.182 57.2775 107.741 55.1189L107.299 52.9747Z" fill="#4D6F3D"/>
<path d="M119.329 43.1558C119.329 43.1558 125.101 37.7951 126.968 39.3962C128.835 40.9972 124.018 46.8726 124.018 46.8726" fill="#4D6F3D"/>
<path d="M125.472 93.5319C133.162 93.5319 139.397 84.4436 139.397 73.2327C139.397 62.0218 133.162 52.9336 125.472 52.9336C117.781 52.9336 111.546 62.0218 111.546 73.2327C111.546 84.4436 117.781 93.5319 125.472 93.5319Z" fill="#4D6F3D"/>
<path d="M258.327 111.674C258.327 111.674 245.199 92.6328 229.008 119.293C214.284 143.538 195.056 165.595 189.882 192.885C189.113 196.959 190.666 205.951 207.214 210.354C218.075 213.241 221.211 207.394 222.095 202.791C222.123 202.663 221.282 198.403 221.411 192.284C221.938 166.081 237.702 129.986 258.327 111.674Z" fill="#4D6F3D"/>
<path d="M221.852 198.43C222.052 202.504 225.387 217.071 216.436 209.966Z" fill="#4D6F3D"/>
<path d="M237.973 109.188C238.429 107.258 240.011 105.8 241.978 105.5C251.913 103.999 282.429 100.325 302.612 108.144C326.586 117.45 326.814 341.727 326.814 349.075C326.814 349.232 326.814 349.361 326.842 349.518C327.042 350.976 329.18 355.451 332.985 358.782C333.883 359.568 338.017 363.442 338.059 364.628C338.102 365.815 337.532 366.901 335.138 366.944C331.132 367.001 301.357 366.958 291.537 366.944C289.769 366.944 288.287 365.572 288.13 363.799L273.777 194.987C273.663 193.715 272.879 192.6 271.696 192.114C268.632 190.842 263.272 189.627 258.041 193.286C253.552 196.417 249.062 339.74 248.777 363.585C248.748 365.457 247.223 366.973 245.356 366.973H203.337C203.337 366.973 197.964 366.973 202.625 359.468C206.046 353.978 206.687 352.949 207.086 347.889C207.998 336.209 198.292 325.417 225.145 170.028C228.081 153.031 235.507 119.552 237.973 109.174V109.188Z" fill="#445A3A"/>
<path d="M137.074 156.773H246.012C262.187 156.773 275.301 169.921 275.301 186.143C275.301 202.365 262.187 215.513 246.012 215.513H137.074C120.899 215.513 107.784 202.365 107.784 186.143C107.784 169.921 120.899 156.773 137.074 156.773Z" fill="#5E8B4B" stroke="black"/>
<path d="M304.835 108.443C306.702 107.614 319.701 136.405 314.484 150.914C305.989 174.587 293.589 204.693 276.1 222.519C273.321 225.349 265.282 228.98 252.112 218.016C243.475 210.811 246.282 205.122 249.418 201.905C249.504 201.819 253.366 200.175 258.155 196.759C281.274 180.277 304.835 108.443 304.835 108.443Z" fill="#4D6F3D"/>
<path d="M253.024 199.719C249.675 201.777 236.177 206.995 247.038 210.354Z" fill="#4D6F3D"/>
<path d="M89.0545 108.056C87.3299 106.969 70.2544 133.53 73.2619 148.625C78.1935 173.299 86.0328 204.906 100.699 225.119C103.037 228.335 110.449 233.11 125.087 224.204C134.694 218.357 132.755 212.31 130.118 208.665C130.047 208.565 126.469 206.364 122.236 202.29C101.797 182.576 89.0403 108.041 89.0403 108.041L89.0545 108.056Z" fill="#6C925C"/>
<path d="M126.883 206.008C129.89 208.538 142.476 215.7 131.244 217.415Z" fill="#6C925C"/>
<path d="M274.718 93.0475C282.409 93.0475 288.643 83.9593 288.643 72.7484C288.643 61.5375 282.409 52.4492 274.718 52.4492C267.027 52.4492 260.792 61.5375 260.792 72.7484C260.792 83.9593 267.027 93.0475 274.718 93.0475Z" fill="#445A3A"/>
<path d="M294.487 51.8614C294.487 51.8614 295.67 41.4402 282.457 42.0406C282.457 42.0406 278.153 41.8548 277.526 44.8568C276.941 47.6586 293.603 56.1642 294.045 54.0057L294.487 51.8614Z" fill="#445A3A"/>
<path d="M282.443 42.0425C282.443 42.0425 276.671 36.6818 274.803 38.2829C272.936 39.884 277.754 45.7593 277.754 45.7593" fill="#445A3A"/>
<path d="M132.704 178.848C133.92 178.848 134.971 179.077 135.856 179.536C136.752 179.984 137.435 180.629 137.904 181.472C138.384 182.315 138.624 183.307 138.624 184.448C138.624 185.589 138.384 186.581 137.904 187.424C137.435 188.256 136.752 188.896 135.856 189.344C134.971 189.781 133.92 190 132.704 190H129.232V178.848H132.704ZM132.704 188.8C134.144 188.8 135.243 188.421 136 187.664C136.757 186.896 137.136 185.824 137.136 184.448C137.136 183.061 136.752 181.979 135.984 181.2C135.227 180.421 134.133 180.032 132.704 180.032H130.688V188.8H132.704ZM148.545 185.28C148.545 185.557 148.529 185.851 148.497 186.16H141.489C141.542 187.024 141.835 187.701 142.369 188.192C142.913 188.672 143.569 188.912 144.337 188.912C144.966 188.912 145.489 188.768 145.905 188.48C146.331 188.181 146.63 187.787 146.801 187.296H148.369C148.134 188.139 147.665 188.827 146.961 189.36C146.257 189.883 145.382 190.144 144.337 190.144C143.505 190.144 142.758 189.957 142.097 189.584C141.446 189.211 140.934 188.683 140.561 188C140.187 187.307 140.001 186.507 140.001 185.6C140.001 184.693 140.182 183.899 140.545 183.216C140.907 182.533 141.414 182.011 142.065 181.648C142.726 181.275 143.483 181.088 144.337 181.088C145.169 181.088 145.905 181.269 146.545 181.632C147.185 181.995 147.675 182.496 148.017 183.136C148.369 183.765 148.545 184.48 148.545 185.28ZM147.041 184.976C147.041 184.421 146.918 183.947 146.673 183.552C146.427 183.147 146.091 182.843 145.665 182.64C145.249 182.427 144.785 182.32 144.273 182.32C143.537 182.32 142.907 182.555 142.385 183.024C141.873 183.493 141.579 184.144 141.505 184.976H147.041ZM151.922 178.16V190H150.466V178.16H151.922ZM169.214 181.072C169.896 181.072 170.504 181.216 171.038 181.504C171.571 181.781 171.992 182.203 172.302 182.768C172.611 183.333 172.766 184.021 172.766 184.832V190H171.326V185.04C171.326 184.165 171.107 183.499 170.67 183.04C170.243 182.571 169.662 182.336 168.926 182.336C168.168 182.336 167.566 182.581 167.118 183.072C166.67 183.552 166.446 184.251 166.446 185.168V190H165.006V185.04C165.006 184.165 164.787 183.499 164.35 183.04C163.923 182.571 163.342 182.336 162.606 182.336C161.848 182.336 161.246 182.581 160.798 183.072C160.35 183.552 160.126 184.251 160.126 185.168V190H158.67V181.232H160.126V182.496C160.414 182.037 160.798 181.685 161.278 181.44C161.768 181.195 162.307 181.072 162.894 181.072C163.63 181.072 164.28 181.237 164.846 181.568C165.411 181.899 165.832 182.384 166.11 183.024C166.355 182.405 166.76 181.925 167.326 181.584C167.891 181.243 168.52 181.072 169.214 181.072ZM183.154 185.28C183.154 185.557 183.138 185.851 183.106 186.16H176.098C176.151 187.024 176.445 187.701 176.978 188.192C177.522 188.672 178.178 188.912 178.946 188.912C179.575 188.912 180.098 188.768 180.514 188.48C180.941 188.181 181.239 187.787 181.41 187.296H182.978C182.743 188.139 182.274 188.827 181.57 189.36C180.866 189.883 179.991 190.144 178.946 190.144C178.114 190.144 177.367 189.957 176.706 189.584C176.055 189.211 175.543 188.683 175.17 188C174.797 187.307 174.61 186.507 174.61 185.6C174.61 184.693 174.791 183.899 175.154 183.216C175.517 182.533 176.023 182.011 176.674 181.648C177.335 181.275 178.093 181.088 178.946 181.088C179.778 181.088 180.514 181.269 181.154 181.632C181.794 181.995 182.285 182.496 182.626 183.136C182.978 183.765 183.154 184.48 183.154 185.28ZM181.65 184.976C181.65 184.421 181.527 183.947 181.282 183.552C181.037 183.147 180.701 182.843 180.274 182.64C179.858 182.427 179.394 182.32 178.882 182.32C178.146 182.32 177.517 182.555 176.994 183.024C176.482 183.493 176.189 184.144 176.114 184.976H181.65ZM184.532 185.584C184.532 184.688 184.713 183.904 185.076 183.232C185.438 182.549 185.934 182.021 186.564 181.648C187.204 181.275 187.918 181.088 188.708 181.088C189.39 181.088 190.025 181.248 190.612 181.568C191.198 181.877 191.646 182.288 191.956 182.8V178.16H193.428V190H191.956V188.352C191.668 188.875 191.241 189.307 190.676 189.648C190.11 189.979 189.449 190.144 188.692 190.144C187.913 190.144 187.204 189.952 186.564 189.568C185.934 189.184 185.438 188.645 185.076 187.952C184.713 187.259 184.532 186.469 184.532 185.584ZM191.956 185.6C191.956 184.939 191.822 184.363 191.556 183.872C191.289 183.381 190.926 183.008 190.468 182.752C190.02 182.485 189.524 182.352 188.98 182.352C188.436 182.352 187.94 182.48 187.492 182.736C187.044 182.992 186.686 183.365 186.42 183.856C186.153 184.347 186.02 184.923 186.02 185.584C186.02 186.256 186.153 186.843 186.42 187.344C186.686 187.835 187.044 188.213 187.492 188.48C187.94 188.736 188.436 188.864 188.98 188.864C189.524 188.864 190.02 188.736 190.468 188.48C190.926 188.213 191.289 187.835 191.556 187.344C191.822 186.843 191.956 186.261 191.956 185.6ZM203.418 188.656L206.138 181.232H207.69L204.25 190H202.554L199.114 181.232H200.682L203.418 188.656ZM217.123 185.28C217.123 185.557 217.107 185.851 217.075 186.16H210.067C210.12 187.024 210.413 187.701 210.947 188.192C211.491 188.672 212.147 188.912 212.915 188.912C213.544 188.912 214.067 188.768 214.483 188.48C214.909 188.181 215.208 187.787 215.379 187.296H216.947C216.712 188.139 216.243 188.827 215.539 189.36C214.835 189.883 213.96 190.144 212.915 190.144C212.083 190.144 211.336 189.957 210.675 189.584C210.024 189.211 209.512 188.683 209.139 188C208.765 187.307 208.579 186.507 208.579 185.6C208.579 184.693 208.76 183.899 209.123 183.216C209.485 182.533 209.992 182.011 210.643 181.648C211.304 181.275 212.061 181.088 212.915 181.088C213.747 181.088 214.483 181.269 215.123 181.632C215.763 181.995 216.253 182.496 216.595 183.136C216.947 183.765 217.123 184.48 217.123 185.28ZM215.619 184.976C215.619 184.421 215.496 183.947 215.251 183.552C215.005 183.147 214.669 182.843 214.243 182.64C213.827 182.427 213.363 182.32 212.851 182.32C212.115 182.32 211.485 182.555 210.963 183.024C210.451 183.493 210.157 184.144 210.083 184.976H215.619ZM223.317 181.072C224.383 181.072 225.247 181.397 225.909 182.048C226.57 182.688 226.901 183.616 226.901 184.832V190H225.461V185.04C225.461 184.165 225.242 183.499 224.805 183.04C224.367 182.571 223.77 182.336 223.013 182.336C222.245 182.336 221.631 182.576 221.173 183.056C220.725 183.536 220.501 184.235 220.501 185.152V190H219.045V181.232H220.501V182.48C220.789 182.032 221.178 181.685 221.669 181.44C222.17 181.195 222.719 181.072 223.317 181.072ZM233.551 181.072C234.618 181.072 235.482 181.397 236.143 182.048C236.804 182.688 237.135 183.616 237.135 184.832V190H235.695V185.04C235.695 184.165 235.476 183.499 235.039 183.04C234.602 182.571 234.004 182.336 233.247 182.336C232.479 182.336 231.866 182.576 231.407 183.056C230.959 183.536 230.735 184.235 230.735 185.152V190H229.279V181.232H230.735V182.48C231.023 182.032 231.412 181.685 231.903 181.44C232.404 181.195 232.954 181.072 233.551 181.072ZM247.513 185.28C247.513 185.557 247.497 185.851 247.465 186.16H240.457C240.511 187.024 240.804 187.701 241.337 188.192C241.881 188.672 242.537 188.912 243.305 188.912C243.935 188.912 244.457 188.768 244.873 188.48C245.3 188.181 245.599 187.787 245.769 187.296H247.337C247.103 188.139 246.633 188.827 245.929 189.36C245.225 189.883 244.351 190.144 243.305 190.144C242.473 190.144 241.727 189.957 241.065 189.584C240.415 189.211 239.903 188.683 239.529 188C239.156 187.307 238.969 186.507 238.969 185.6C238.969 184.693 239.151 183.899 239.513 183.216C239.876 182.533 240.383 182.011 241.033 181.648C241.695 181.275 242.452 181.088 243.305 181.088C244.137 181.088 244.873 181.269 245.513 181.632C246.153 181.995 246.644 182.496 246.985 183.136C247.337 183.765 247.513 184.48 247.513 185.28ZM246.009 184.976C246.009 184.421 245.887 183.947 245.641 183.552C245.396 183.147 245.06 182.843 244.633 182.64C244.217 182.427 243.753 182.32 243.241 182.32C242.505 182.32 241.876 182.555 241.353 183.024C240.841 183.493 240.548 184.144 240.473 184.976H246.009ZM250.891 182.656C251.147 182.155 251.51 181.765 251.979 181.488C252.459 181.211 253.04 181.072 253.723 181.072V182.576H253.339C251.707 182.576 250.891 183.461 250.891 185.232V190H249.435V181.232H250.891V182.656Z" fill="black"/>
</g>
<defs>
<clipPath id="clip0_286_1048">
<rect width="383" height="367" fill="white"/>
</clipPath>
</defs>
</svg>
