<svg width="411" height="411" viewBox="0 0 411 411" fill="none" xmlns="http://www.w3.org/2000/svg">
<path opacity="0.5" d="M1.18262 117.364C14.261 39.6862 121.136 -11.8114 239.897 2.33981C358.658 16.491 439.545 80.6605 401.518 152.304" fill="#5E8B4B"/>
<path opacity="0.5" d="M401.533 152.303C367.621 216.189 260.226 225.22 173.832 257.112C84.517 290.071 -11.8805 195.052 1.1979 117.375" fill="#5E8B4B"/>
<path d="M228.226 178.921C227.737 177.184 226.039 175.872 223.928 175.602C213.266 174.251 180.517 170.944 158.857 177.981C133.129 186.356 132.884 388.192 132.884 394.804C132.884 394.946 132.884 395.061 132.853 395.203C132.639 396.515 130.345 400.542 126.261 403.539C125.297 404.247 120.861 407.733 120.815 408.801C120.769 409.869 121.381 410.846 123.951 410.885C128.249 410.937 160.203 410.898 170.742 410.885C172.639 410.885 174.23 409.65 174.398 408.055L189.802 256.135C189.924 254.99 190.765 253.986 192.035 253.549C195.324 252.404 201.075 251.311 206.689 254.604C211.507 257.421 216.325 386.403 216.631 407.862C216.662 409.547 218.299 410.911 220.303 410.911H265.396C265.396 410.911 271.163 410.911 266.161 404.157C262.49 399.217 261.801 398.29 261.373 393.736C260.394 383.226 270.811 373.513 241.993 233.673C238.842 218.377 230.872 188.248 228.226 178.908V178.921Z" fill="#4D6F3D"/>
<path d="M177.305 128.423C177.305 128.423 176.035 119.045 190.215 119.585C190.215 119.585 194.834 119.418 195.507 122.119C196.134 124.641 178.253 132.295 177.779 130.353L177.305 128.423Z" fill="#4D6F3D"/>
<path d="M190.215 119.59C190.215 119.59 196.41 114.765 198.413 116.206C200.417 117.647 195.247 122.934 195.247 122.934" fill="#4D6F3D"/>
<path d="M196.807 164.923C205.061 164.923 211.752 156.744 211.752 146.655C211.752 136.566 205.061 128.387 196.807 128.387C188.554 128.387 181.863 136.566 181.863 146.655C181.863 156.744 188.554 164.923 196.807 164.923Z" fill="#4D6F3D"/>
<path d="M236.547 213.565C237.541 214.376 253.679 178.509 257.534 166.969C264.096 147.325 272.234 119.871 266.1 100.51C265.274 97.9239 260.471 91.4144 238.536 94.0903C224.142 95.8399 223.316 100.857 225.029 103.456C225.075 103.533 228.272 105.411 232.05 108.37C253.006 124.798 226.498 158.53 226.926 177.467C227.201 189.431 236.532 213.552 236.532 213.552L236.547 213.565Z" fill="#6C925C"/>
<path d="M227.874 105.576C225.213 103.659 213.664 95.6829 227.645 97.5998L227.874 105.576Z" fill="#6C925C"/>
<path d="M143.79 213.564C143.102 214.053 139.186 177.427 135.897 167.148C129.58 147.439 121.442 119.896 127.576 100.521C128.402 97.9357 133.205 91.4261 155.14 94.102C169.534 95.8516 170.36 100.869 168.647 103.468C168.601 103.545 165.358 105.423 161.626 108.382C140.655 125.003 164.027 160.986 160.127 181.016C158.016 191.81 143.79 213.564 143.79 213.564Z" fill="#6C925C"/>
<path d="M165.802 105.576C168.463 103.659 180.012 95.6829 166.031 97.5998L165.802 105.576Z" fill="#6C925C"/>
</svg>
