<svg width="183" height="124" viewBox="0 0 183 124" fill="none" xmlns="http://www.w3.org/2000/svg">
<g clip-path="url(#clip0_206_1624)">
<path opacity="0.5" d="M181.3 71.31C188.36 31.96 149.24 0.0300335 93.93 3.34535e-05C38.62 -0.0299665 14.35 20.12 11.5 49.33C7.98999 85.29 18.14 113.73 64.22 121.28C115.88 129.74 174.25 110.66 181.31 71.31H181.3Z" fill="#4D6F3D"/>
<path d="M160.41 30.6406H39.25C37.2673 30.6406 35.66 32.2479 35.66 34.2306V96.7706C35.66 98.7533 37.2673 100.361 39.25 100.361H160.41C162.393 100.361 164 98.7533 164 96.7706V34.2306C164 32.2479 162.393 30.6406 160.41 30.6406Z" fill="#E6E6E6"/>
<path d="M61.57 23.8009C59.44 20.9509 56.09 19.2609 52.53 19.2309L39.07 19.1309C37.19 19.1309 35.67 20.6509 35.67 22.5309V34.2309H69.38L61.57 23.8009Z" fill="#E6E6E6"/>
<path d="M99.65 71.0799C107.885 71.0799 114.56 66.6789 114.56 61.2499C114.56 55.821 107.885 51.4199 99.65 51.4199C91.4154 51.4199 84.74 55.821 84.74 61.2499C84.74 66.6789 91.4154 71.0799 99.65 71.0799Z" fill="#4D4D4D"/>
<path d="M82.53 76.9295C88.7542 76.9295 93.8 72.5285 93.8 67.0995C93.8 61.6706 88.7542 57.2695 82.53 57.2695C76.3057 57.2695 71.26 61.6706 71.26 67.0995C71.26 72.5285 76.3057 76.9295 82.53 76.9295Z" fill="#4D4D4D"/>
<path d="M129.14 67.0995C129.14 72.5295 124.15 76.3895 117.91 76.7095C111.67 77.0295 106.61 72.5295 106.61 67.0995C106.61 61.6695 111.65 57.2695 117.88 57.2695C124.11 57.2695 129.15 61.6695 129.15 67.0995H129.14Z" fill="#4D4D4D"/>
<path d="M118.08 76.8506L81.82 76.9206C81.75 76.9206 81.68 76.9206 81.62 76.9106C77.55 76.3306 75.43 74.4906 75.43 71.6206C75.43 68.0406 78.33 65.1406 81.91 65.1406H118.42C122 65.1406 124.9 68.0406 124.9 71.6206C124.9 74.2406 125.86 74.5506 121.28 76.2606C120.26 76.6406 119.17 76.8406 118.07 76.8406L118.08 76.8506Z" fill="#4D4D4D"/>
<path d="M0 56.3105H40.5" stroke="#CCCCCC" stroke-width="3" stroke-miterlimit="10"/>
<path d="M15.04 66.8105H66.23" stroke="#CCCCCC" stroke-width="3" stroke-miterlimit="10"/>
<path d="M6.27 77.3105H40.98" stroke="#CCCCCC" stroke-width="3" stroke-miterlimit="10"/>
</g>
<defs>
<clipPath id="clip0_206_1624">
<rect width="182.13" height="123.25" fill="white"/>
</clipPath>
</defs>
</svg>
