<svg width="145" height="216" viewBox="0 0 145 216" fill="none" xmlns="http://www.w3.org/2000/svg">
<g clip-path="url(#clip0_206_1661)">
<path opacity="0.5" d="M103.569 215.683C69.3869 211.233 45.0331 157.469 14.7487 119.27C-16.5498 79.7893 6.34881 10.3577 42.5545 1.19037C78.7601 -7.97694 121.447 36.8003 137.905 101.207C154.359 165.609 141.898 220.672 103.569 215.687V215.683Z" fill="#4D6F3D"/>
<path d="M14.1712 37.3398H14.8352C17.2182 37.3398 19.1556 39.2684 19.1556 41.6406V206.367H9.63239V41.8624C9.63239 39.368 11.6653 37.3444 14.1712 37.3444V37.3398Z" fill="#C69C6D" stroke="#C69C6D" stroke-width="2" stroke-miterlimit="10"/>
<path d="M109.304 51.5542V45.8184L11.5562 45.8184V51.5542L109.304 51.5542Z" fill="#C69C6D" stroke="#C69C6D" stroke-width="2" stroke-miterlimit="10"/>
<path d="M108.24 121.347V115.611H10.4919V121.347H108.24Z" fill="#C69C6D" stroke="#C69C6D" stroke-width="2" stroke-miterlimit="10"/>
<path d="M108.24 158.068V152.332H10.4919V158.068H108.24Z" fill="#C69C6D" stroke="#C69C6D" stroke-width="2" stroke-miterlimit="10"/>
<path d="M108.612 195.519V189.783H10.8649V195.519H108.612Z" fill="#C69C6D" stroke="#C69C6D" stroke-width="2" stroke-miterlimit="10"/>
<path d="M107.871 85.3667V79.6309H10.1236V85.3667H107.871Z" fill="#C69C6D" stroke="#C69C6D" stroke-width="2" stroke-miterlimit="10"/>
<path d="M109.049 37.416H109.713C112.096 37.416 114.034 39.3445 114.034 41.7167V206.443H104.51V41.934C104.51 39.4396 106.543 37.416 109.049 37.416Z" fill="#C69C6D" stroke="#C69C6D" stroke-width="2" stroke-miterlimit="10"/>
<path d="M26.7961 56.4023H19.5695V79.2324H26.7961V56.4023Z" fill="#596A25"/>
<path d="M33.9772 59.2012H26.7506V79.2199H33.9772V59.2012Z" fill="#7A8851"/>
<path d="M61.6238 79.2327V73.9043H41.5131V79.2327H61.6238Z" fill="#9BA67C"/>
<path d="M64.4525 73.9549V68.0742H41.5176V73.9549H64.4525Z" fill="#7A8851"/>
<path d="M104.051 95.1537L98.698 95.1621L98.7296 115.181L104.082 115.172L104.051 95.1537Z" fill="#9BA67C"/>
<path d="M98.7481 92.3462L92.8405 92.3555L92.8765 115.185L98.7842 115.176L98.7481 92.3462Z" fill="#7A8851"/>
<path d="M60.4595 95.2441H53.2329V115.263H60.4595V95.2441Z" fill="#7A8851"/>
<path d="M53.3693 92.3477H48.2302V115.178H53.3693V92.3477Z" fill="#596A25"/>
<path d="M60.4595 115.263L104.087 115.168L104.083 121.741L60.4595 115.263Z" fill="#A67C52"/>
<path d="M60.3003 189.603L103.928 189.508L103.924 196.081L60.3003 189.603Z" fill="#A67C52"/>
<path d="M104.124 83.756L57.5944 79.1973H104.124V83.756Z" fill="#A67C52"/>
<path d="M25.8911 76.6152H20.279V78.1861H25.8911V76.6152Z" fill="#B2BD9C"/>
<path d="M33.1131 59.8887H27.501V61.4596H33.1131V59.8887Z" fill="#B2BD9C"/>
<path d="M42.5317 68.6488V73.3887H44.1099V68.6488H42.5317Z" fill="#B2BD9C"/>
<path d="M42.4499 74.5289V78.7617H44.028V74.5289H42.4499Z" fill="#B2BD9C"/>
<path d="M59.7819 112.719H54.1698V114.29H59.7819V112.719Z" fill="#B2BD9C"/>
<path d="M52.619 112.66H49.1808V114.231H52.619V112.66Z" fill="#B2BD9C"/>
<path d="M97.9476 93.0273H93.5453V94.0052H97.9476V93.0273Z" fill="#B2BD9C"/>
<path d="M97.9431 94.4609H93.5408V96.0182H97.9431V94.4609Z" fill="#B2BD9C"/>
<path d="M103.592 95.7383H99.1892V97.2956H103.592V95.7383Z" fill="#B2BD9C"/>
<path d="M33.1222 62.0391H27.5101V63.61H33.1222V62.0391Z" fill="#B2BD9C"/>
<path d="M31.9261 131.914H24.6995V151.933H31.9261V131.914Z" fill="#7A8851"/>
<path d="M24.7268 129.121H19.5877V151.951H24.7268V129.121Z" fill="#596A25"/>
<path d="M31.1939 149.23H25.5818V150.801H31.1939V149.23Z" fill="#B2BD9C"/>
<path d="M24.031 149.172H20.5928V150.743H24.031V149.172Z" fill="#B2BD9C"/>
<path d="M38.9799 129.098H31.7533V151.928H38.9799V129.098Z" fill="#596A25"/>
<path d="M46.1655 131.891H38.939V151.909H46.1655V131.891Z" fill="#7A8851"/>
<path d="M45.2969 132.584H39.6848V134.155H45.2969V132.584Z" fill="#B2BD9C"/>
<path d="M45.3105 134.734H39.6984V136.305H45.3105V134.734Z" fill="#B2BD9C"/>
<path d="M38.1521 129.949H32.54V131.52H38.1521V129.949Z" fill="#B2BD9C"/>
<path d="M89.8161 169.447H82.5895V189.466H89.8161V169.447Z" fill="#7A8851"/>
<path d="M82.6168 166.654H77.4777V189.484H82.6168V166.654Z" fill="#596A25"/>
<path d="M89.0838 186.764H83.4717V188.335H89.0838V186.764Z" fill="#B2BD9C"/>
<path d="M81.9209 186.705H78.4827V188.276H81.9209V186.705Z" fill="#B2BD9C"/>
<path d="M96.8698 166.627H89.6432V189.457H96.8698V166.627Z" fill="#596A25"/>
<path d="M104.055 169.426H96.8289V189.444H104.055V169.426Z" fill="#7A8851"/>
<path d="M103.187 170.113H97.5747V171.684H103.187V170.113Z" fill="#B2BD9C"/>
<path d="M103.2 172.268H97.5884V173.838H103.2V172.268Z" fill="#B2BD9C"/>
<path d="M96.0421 167.479H90.43V169.049H96.0421V167.479Z" fill="#B2BD9C"/>
<path d="M32.0307 178.267V183.596H52.1414V178.267H32.0307Z" fill="#9BA67C"/>
<path d="M32.0307 183.545V189.426H54.9656V183.545H32.0307Z" fill="#7A8851"/>
<path d="M34.623 188.855V184.115H33.0449V188.855H34.623Z" fill="#B2BD9C"/>
<path d="M34.5411 182.971V178.738H32.963V182.971H34.5411Z" fill="#B2BD9C"/>
<path d="M66.0908 139.723L66.0593 146.916L86.1698 147.003L86.2013 139.81L66.0908 139.723Z" fill="#7A8851"/>
<path d="M66.1472 146.781L66.1248 151.896L89.0595 151.996L89.0819 146.881L66.1472 146.781Z" fill="#596A25"/>
<path d="M67.0606 140.4L67.0361 145.986L68.6142 145.993L68.6387 140.407L67.0606 140.4Z" fill="#B2BD9C"/>
<path d="M67.0924 147.529L67.0774 150.951L68.6555 150.958L68.6705 147.536L67.0924 147.529Z" fill="#B2BD9C"/>
<path d="M104.283 156.569L57.749 152.006H104.283V156.569Z" fill="#A67C52"/>
<path d="M109.049 37.0039H109.658C112.319 37.0039 114.479 39.1543 114.479 41.8026V206.855H109.049V37.0039Z" fill="#A67C52"/>
<path d="M14.3395 37.0039H14.9489C17.6094 37.0039 19.7696 39.1543 19.7696 41.8026V206.855H14.3395V37.0039Z" fill="#A67C52"/>
</g>
<defs>
<clipPath id="clip0_206_1661">
<rect width="145" height="216" fill="white"/>
</clipPath>
</defs>
</svg>
