<svg width="214" height="124" viewBox="0 0 214 124" fill="none" xmlns="http://www.w3.org/2000/svg">
<g clip-path="url(#clip0_206_1575)">
<path opacity="0.5" d="M209.892 72.4121C193.795 100.335 138.132 102.202 93.9478 114.736C48.2757 127.689 -4.19397 83.184 0.73107 48.6655C5.65611 14.147 60.0197 -6.75169 122.156 1.98722C184.292 10.7261 227.942 41.098 209.892 72.4078V72.4121Z" fill="#4D6F3D"/>
<path d="M174.052 21.0469H36.0529C33.8712 21.0469 32.1026 22.8027 32.1026 24.9686V104.098C32.1026 106.264 33.8712 108.02 36.0529 108.02H174.052C176.234 108.02 178.003 106.264 178.003 104.098V24.9686C178.003 22.8027 176.234 21.0469 174.052 21.0469Z" fill="#E6E6E6"/>
<path d="M34.253 21.0469H175.848C177.037 21.0469 177.998 22.0018 177.998 23.1817V95.9791H32.1026V23.1817C32.1026 22.0018 33.0645 21.0469 34.253 21.0469Z" fill="#445A3A"/>
<path d="M121.305 123.104H88.7235C87.971 123.104 87.4323 122.378 87.6547 121.665L91.9085 108.02H117.88L122.434 121.55C122.69 122.314 122.117 123.104 121.305 123.104Z" fill="#CCCCCC"/>
<path d="M91.9512 108.02H117.876L122.258 120.799C122.258 120.799 123.374 123.643 120.227 123.104L91.947 108.02H91.9512Z" fill="#B3B3B3"/>
<path d="M36.9122 24.3672H173.189C174.377 24.3672 175.339 25.3221 175.339 26.502V95.9847H34.7617V26.502C34.7617 25.3221 35.7237 24.3672 36.9122 24.3672Z" fill="#D9D9D9"/>
<path d="M86.1156 121.33H123.72C124.52 121.33 125.17 121.975 125.17 122.769V123.851C125.17 123.932 125.106 123.995 125.024 123.995H84.6578C84.5765 123.995 84.5124 123.932 84.5124 123.851V122.922C84.5124 122.043 85.2306 121.33 86.1156 121.33Z" fill="#CCCCCC"/>
<path d="M36.8994 24.3672H173.176C174.347 24.3672 175.297 25.3094 175.297 26.4723V32.6732H34.7617V26.4893C34.7617 25.3179 35.7194 24.3672 36.8994 24.3672Z" fill="#4D6F3D"/>
<path d="M157.413 37.502H52.6492C51.8016 37.502 51.1144 38.1841 51.1144 39.0256V64.4911C51.1144 65.3326 51.8016 66.0148 52.6492 66.0148H157.413C158.261 66.0148 158.948 65.3326 158.948 64.4911V39.0256C158.948 38.1841 158.261 37.502 157.413 37.502Z" fill="white"/>
<path d="M104.379 40.3164H55.5521C54.6502 40.3164 53.919 41.0423 53.919 41.9377V61.9366C53.919 62.832 54.6502 63.5579 55.5521 63.5579H104.379C105.281 63.5579 106.012 62.832 106.012 61.9366V41.9377C106.012 41.0423 105.281 40.3164 104.379 40.3164Z" fill="#CCCCCC"/>
<path d="M130.114 40.0128L109.593 40.1621L109.606 41.8598L130.126 41.7104L130.114 40.0128Z" fill="#CCCCCC"/>
<path d="M138.701 46.0612L109.651 46.2676L109.661 47.5408L138.71 47.3344L138.701 46.0612Z" fill="#CCCCCC"/>
<path d="M143.762 49.5098L109.676 49.752L109.686 51.0252L143.771 50.783L143.762 49.5098Z" fill="#CCCCCC"/>
<path d="M133.159 53.0657L109.689 53.2324L109.698 54.5057L133.168 54.3389L133.159 53.0657Z" fill="#CCCCCC"/>
<path d="M157.413 67.4707H52.6492C51.8016 67.4707 51.1144 68.1529 51.1144 68.9944V93.3606C51.1144 94.2021 51.8016 94.8843 52.6492 94.8843H157.413C158.261 94.8843 158.948 94.2021 158.948 93.3606V68.9944C158.948 68.1529 158.261 67.4707 157.413 67.4707Z" fill="white"/>
<path d="M69.8484 70.2852H55.364C54.462 70.2852 53.7309 71.011 53.7309 71.9065V86.286C53.7309 87.1814 54.462 87.9073 55.364 87.9073H69.8484C70.7504 87.9073 71.4815 87.1814 71.4815 86.286V71.9065C71.4815 71.011 70.7504 70.2852 69.8484 70.2852Z" fill="#CCCCCC"/>
<path d="M94.7679 70.2296L74.2474 70.3789L74.26 72.0766L94.7804 71.9272L94.7679 70.2296Z" fill="#CCCCCC"/>
<path d="M103.311 76.2585L74.2617 76.4648L74.2709 77.7381L103.32 77.5317L103.311 76.2585Z" fill="#CCCCCC"/>
<path d="M108.338 79.7246L74.2526 79.9668L74.2618 81.24L108.347 80.9979L108.338 79.7246Z" fill="#CCCCCC"/>
<path d="M97.6624 85.0032L74.1921 85.1699L74.2013 86.4432L97.6716 86.2764L97.6624 85.0032Z" fill="#CCCCCC"/>
<path opacity="0.1" d="M145.785 21.0469H175.844C177.032 21.0469 177.998 22.0061 177.998 23.186V103.916C177.998 106.182 176.147 108.02 173.864 108.02H145.78V21.0469H145.785Z" fill="#1A1A1A"/>
<path d="M41.1446 26.582H38.8446C38.2425 26.582 37.7544 27.0666 37.7544 27.6643V29.9477C37.7544 30.5454 38.2425 31.03 38.8446 31.03H41.1446C41.7467 31.03 42.2348 30.5454 42.2348 29.9477V27.6643C42.2348 27.0666 41.7467 26.582 41.1446 26.582Z" fill="white"/>
<path d="M151.922 70.2804L131.402 70.4297L131.414 72.1273L151.935 71.978L151.922 70.2804Z" fill="#CCCCCC"/>
<path d="M151.997 76.3718L122.947 76.5781L122.957 77.8514L152.006 77.645L151.997 76.3718Z" fill="#CCCCCC"/>
<path d="M152.052 79.877L117.967 80.1191L117.976 81.3924L152.061 81.1502L152.052 79.877Z" fill="#CCCCCC"/>
<path d="M152.188 85.0755L128.717 85.2422L128.726 86.5154L152.197 86.3487L152.188 85.0755Z" fill="#CCCCCC"/>
<path d="M147.482 108.457H154.57C154.57 109.437 153.771 110.231 152.783 110.231H149.273C148.286 110.231 147.486 109.437 147.486 108.457H147.482Z" fill="#999999"/>
<path d="M32.1753 33.898C41.3884 33.898 48.8571 29.3698 48.8571 23.784C48.8571 18.1981 41.3884 13.6699 32.1753 13.6699C22.9621 13.6699 15.4934 18.1981 15.4934 23.784C15.4934 29.3698 22.9621 33.898 32.1753 33.898Z" fill="#F2F2F2"/>
<path d="M49.5069 33.4139C59.079 33.4139 66.8386 29.3626 66.8386 24.3651C66.8386 19.3677 59.079 15.3164 49.5069 15.3164C39.9349 15.3164 32.1752 19.3677 32.1752 24.3651C32.1752 29.3626 39.9349 33.4139 49.5069 33.4139Z" fill="#F2F2F2"/>
<path d="M15.4934 32.7682C24.0501 32.7682 30.9867 29.2034 30.9867 24.806C30.9867 20.4086 24.0501 16.8438 15.4934 16.8438C6.93662 16.8438 0 20.4086 0 24.806C0 29.2034 6.93662 32.7682 15.4934 32.7682Z" fill="#F2F2F2"/>
<path d="M23.193 41.024C31.7498 41.024 38.6864 37.4592 38.6864 33.0618C38.6864 28.6644 31.7498 25.0996 23.193 25.0996C14.6363 25.0996 7.69965 28.6644 7.69965 33.0618C7.69965 37.4592 14.6363 41.024 23.193 41.024Z" fill="#F2F2F2"/>
<path d="M47.6686 41.8561C56.2253 41.8561 63.162 38.2913 63.162 33.8939C63.162 29.4964 56.2253 25.9316 47.6686 25.9316C39.1118 25.9316 32.1752 29.4964 32.1752 33.8939C32.1752 38.2913 39.1118 41.8561 47.6686 41.8561Z" fill="#F2F2F2"/>
<path d="M172.633 46.4488C181.846 46.4488 189.315 41.9206 189.315 36.3348C189.315 30.7489 181.846 26.2207 172.633 26.2207C163.42 26.2207 155.951 30.7489 155.951 36.3348C155.951 41.9206 163.42 46.4488 172.633 46.4488Z" fill="#F2F2F2"/>
<path d="M189.965 45.9647C199.537 45.9647 207.296 41.9134 207.296 36.9159C207.296 31.9184 199.537 27.8672 189.965 27.8672C180.393 27.8672 172.633 31.9184 172.633 36.9159C172.633 41.9134 180.393 45.9647 189.965 45.9647Z" fill="#F2F2F2"/>
<path d="M155.955 45.319C164.512 45.319 171.449 41.7541 171.449 37.3567C171.449 32.9593 164.512 29.3945 155.955 29.3945C147.399 29.3945 140.462 32.9593 140.462 37.3567C140.462 41.7541 147.399 45.319 155.955 45.319Z" fill="#F2F2F2"/>
<path d="M163.655 53.5748C172.212 53.5748 179.148 50.01 179.148 45.6126C179.148 41.2152 172.212 37.6504 163.655 37.6504C155.098 37.6504 148.162 41.2152 148.162 45.6126C148.162 50.01 155.098 53.5748 163.655 53.5748Z" fill="#F2F2F2"/>
<path d="M188.131 54.4108C196.687 54.4108 203.624 50.8459 203.624 46.4485C203.624 42.0511 196.687 38.4863 188.131 38.4863C179.574 38.4863 172.637 42.0511 172.637 46.4485C172.637 50.8459 179.574 54.4108 188.131 54.4108Z" fill="#F2F2F2"/>
<path d="M165.045 37.2903C165.352 36.7386 165.78 36.3057 166.331 35.9958C166.883 35.686 167.507 35.5332 168.204 35.5332C169.059 35.5332 169.79 35.7581 170.401 36.2038C171.008 36.6537 171.419 37.2649 171.624 38.0373H169.696C169.551 37.7402 169.35 37.511 169.085 37.354C168.82 37.1969 168.52 37.1206 168.187 37.1206C167.648 37.1206 167.208 37.3073 166.874 37.6808C166.541 38.0543 166.37 38.5551 166.37 39.179C166.37 39.8029 166.537 40.3037 166.874 40.6772C167.208 41.0507 167.648 41.2375 168.187 41.2375C168.52 41.2375 168.82 41.1611 169.085 41.004C169.35 40.847 169.551 40.6221 169.696 40.3207H171.624C171.419 41.0932 171.013 41.7043 170.401 42.15C169.794 42.5956 169.059 42.8163 168.204 42.8163C167.507 42.8163 166.883 42.6635 166.331 42.3537C165.78 42.0439 165.352 41.6152 165.045 41.0635C164.737 40.5117 164.583 39.8836 164.583 39.179C164.583 38.4745 164.737 37.8421 165.045 37.2903Z" fill="black"/>
<path d="M174.241 42.3717C173.676 42.0576 173.227 41.6247 172.898 41.0645C172.565 40.5042 172.402 39.8761 172.402 39.1758C172.402 38.4755 172.569 37.8473 172.898 37.2913C173.232 36.7353 173.676 36.2982 174.241 35.9884C174.805 35.6743 175.425 35.5215 176.105 35.5215C176.784 35.5215 177.404 35.6785 177.969 35.9884C178.533 36.3024 178.977 36.7353 179.302 37.2913C179.627 37.8473 179.79 38.4755 179.79 39.1758C179.79 39.8761 179.627 40.5042 179.298 41.0645C178.969 41.6247 178.524 42.0619 177.964 42.3717C177.404 42.6858 176.784 42.8386 176.109 42.8386C175.433 42.8386 174.809 42.6815 174.245 42.3717H174.241ZM177.485 40.6782C177.832 40.2963 178.003 39.7954 178.003 39.1715C178.003 38.5476 177.832 38.0341 177.485 37.6606C177.139 37.2828 176.682 37.0961 176.105 37.0961C175.527 37.0961 175.061 37.2828 174.715 37.6563C174.369 38.0298 174.198 38.5349 174.198 39.1758C174.198 39.8167 174.369 40.3132 174.715 40.6867C175.061 41.0645 175.523 41.2512 176.105 41.2512C176.686 41.2512 177.139 41.0602 177.485 40.6825V40.6782Z" fill="black"/>
<path d="M180.846 41.1187C181.517 40.567 182.043 40.1171 182.432 39.7648C182.817 39.4126 183.146 39.0433 183.411 38.6528C183.676 38.2666 183.813 37.8889 183.813 37.5239C183.813 37.2437 183.749 37.0273 183.616 36.8703C183.488 36.7132 183.291 36.6368 183.03 36.6368C182.77 36.6368 182.569 36.7344 182.419 36.9254C182.274 37.1207 182.197 37.3923 182.197 37.7446H180.504C180.517 37.1673 180.641 36.6835 180.88 36.2973C181.115 35.911 181.427 35.6267 181.812 35.4399C182.197 35.2574 182.629 35.1641 183.099 35.1641C183.911 35.1641 184.527 35.372 184.941 35.7837C185.356 36.1997 185.561 36.7387 185.561 37.405C185.561 38.1308 185.313 38.8056 184.813 39.4253C184.313 40.045 183.676 40.6519 182.906 41.2418H185.677V42.6594H180.525V41.3649C180.756 41.1824 180.863 41.0975 180.841 41.1103L180.846 41.1187Z" fill="black"/>
<path d="M23.1674 24.9173C23.4752 24.3655 23.9027 23.9326 24.4542 23.6228C25.0057 23.3129 25.6299 23.1602 26.3268 23.1602C27.1818 23.1602 27.9129 23.3851 28.5242 23.8307C29.1313 24.2806 29.5417 24.8918 29.7469 25.6643H27.8188C27.6735 25.3672 27.4725 25.138 27.2075 24.9809C26.9424 24.8239 26.6431 24.7475 26.3097 24.7475C25.771 24.7475 25.3306 24.9343 24.9972 25.3077C24.6637 25.6812 24.4927 26.1821 24.4927 26.806C24.4927 27.4299 24.6594 27.9307 24.9972 28.3042C25.3306 28.6777 25.771 28.8644 26.3097 28.8644C26.6431 28.8644 26.9424 28.788 27.2075 28.631C27.4725 28.474 27.6735 28.249 27.8188 27.9477H29.7469C29.5417 28.7201 29.1356 29.3313 28.5242 29.7769C27.9171 30.2226 27.1818 30.4433 26.3268 30.4433C25.6299 30.4433 25.0057 30.2905 24.4542 29.9807C23.9027 29.6708 23.4752 29.2422 23.1674 28.6904C22.8596 28.1387 22.7057 27.5105 22.7057 26.806C22.7057 26.1014 22.8596 25.469 23.1674 24.9173Z" fill="black"/>
<path d="M32.3676 29.9948C31.8033 29.6807 31.3544 29.2478 31.0252 28.6875C30.6918 28.1273 30.5293 27.4991 30.5293 26.7988C30.5293 26.0985 30.696 25.4704 31.0252 24.9144C31.3587 24.3584 31.8033 23.9212 32.3676 23.6114C32.932 23.2973 33.5519 23.1445 34.2316 23.1445C34.9114 23.1445 35.5313 23.3016 36.0956 23.6114C36.6599 23.9255 37.1046 24.3584 37.4295 24.9144C37.7544 25.4704 37.9169 26.0985 37.9169 26.7988C37.9169 27.4991 37.7544 28.1273 37.4252 28.6875C37.096 29.2478 36.6514 29.6849 36.0913 29.9948C35.5313 30.3088 34.9114 30.4616 34.2359 30.4616C33.5604 30.4616 32.9362 30.3046 32.3719 29.9948H32.3676ZM35.6082 28.3055C35.9545 27.9236 36.1255 27.4227 36.1255 26.7988C36.1255 26.1749 35.9545 25.6614 35.6082 25.2879C35.262 24.9101 34.8045 24.7234 34.2274 24.7234C33.6502 24.7234 33.1842 24.9101 32.8379 25.2836C32.4916 25.6571 32.3206 26.1622 32.3206 26.8031C32.3206 27.444 32.4916 27.9405 32.8379 28.314C33.1842 28.6918 33.6459 28.8785 34.2274 28.8785C34.8088 28.8785 35.262 28.6875 35.6082 28.3098V28.3055Z" fill="black"/>
<path d="M38.9686 28.7418C39.6398 28.19 40.1656 27.7401 40.5547 27.3879C40.9394 27.0356 41.2686 26.6664 41.5337 26.2759C41.7988 25.8897 41.9356 25.5119 41.9356 25.1469C41.9356 24.8668 41.8714 24.6503 41.7389 24.4933C41.6107 24.3363 41.414 24.2599 41.1532 24.2599C40.8924 24.2599 40.6915 24.3575 40.5419 24.5485C40.3965 24.7437 40.3195 25.0153 40.3195 25.3676H38.6266C38.6394 24.7904 38.7634 24.3066 39.0028 23.9203C39.2379 23.5341 39.55 23.2497 39.9348 23.063C40.3195 22.8805 40.7513 22.7871 41.2216 22.7871C42.0339 22.7871 42.6495 22.9951 43.0642 23.4068C43.4789 23.8227 43.6841 24.3617 43.6841 25.0281C43.6841 25.7538 43.4362 26.4287 42.936 27.0483C42.4358 27.668 41.7988 28.2749 41.0292 28.8649H43.7996V30.2825H38.6479V28.988C38.8788 28.8055 38.9857 28.7206 38.9643 28.7333L38.9686 28.7418Z" fill="black"/>
</g>
<defs>
<clipPath id="clip0_206_1575">
<rect width="214" height="124" fill="white"/>
</clipPath>
</defs>
</svg>
