<svg width="181" height="134" viewBox="0 0 181 134" fill="none" xmlns="http://www.w3.org/2000/svg">
<g clip-path="url(#clip0_206_1653)">
<path opacity="0.5" d="M180.105 78.0322C187.81 34.98 145.104 0.0336683 84.741 3.37277e-05C24.3667 -0.0336008 -7.291 25.0914 2.82916 64.6793C10.7016 95.4773 -21.1685 123.506 29.1192 131.769C85.5014 141.03 172.401 121.096 180.105 78.0322Z" fill="#4D6F3D"/>
<path d="M153.211 39.8574H17.7243C15.5071 39.8574 13.7097 41.6594 13.7097 43.8824V113.999C13.7097 116.222 15.5071 118.024 17.7243 118.024H153.211C155.429 118.024 157.226 116.222 157.226 113.999V43.8824C157.226 41.6594 155.429 39.8574 153.211 39.8574Z" fill="#E6E6E6"/>
<path d="M42.6724 32.1889C40.2906 28.9936 36.5444 27.0989 32.5634 27.0652L17.5118 26.9531C15.4095 26.9531 13.7097 28.6573 13.7097 30.765V43.8825H51.406L42.6724 32.1889Z" fill="#E6E6E6"/>
<path d="M96.7734 68.6259H93.8324C93.8324 68.4801 93.8547 68.3344 93.8547 68.1774V67.0114C93.8547 61.6523 89.5047 57.291 84.1595 57.291C78.8143 57.291 74.4643 61.6523 74.4643 67.0114V68.1774C74.4643 68.3231 74.4755 68.4689 74.4866 68.6259H71.2549C69.1414 68.6259 67.4305 70.3412 67.4305 72.4602V96.464C67.4305 98.583 69.1414 100.298 71.2549 100.298H96.7734C98.8869 100.298 100.598 98.583 100.598 96.464V72.4602C100.598 70.3412 98.8869 68.6259 96.7734 68.6259ZM80.0667 68.1774V67.0114C80.0667 64.7467 81.9006 62.8968 84.1707 62.8968C86.4407 62.8968 88.2747 64.7467 88.2747 67.0114V68.1774C88.2747 68.3344 88.2411 68.4689 88.2299 68.6259H80.1226C80.1114 68.4801 80.0779 68.3344 80.0779 68.1774H80.0667Z" fill="#4D4D4D"/>
<path d="M84.3273 87.1479C86.9582 87.1479 89.091 85.0096 89.091 82.3718C89.091 79.734 86.9582 77.5957 84.3273 77.5957C81.6963 77.5957 79.5635 79.734 79.5635 82.3718C79.5635 85.0096 81.6963 87.1479 84.3273 87.1479Z" fill="#E6E6E6"/>
<path d="M88.8674 93.2903H79.8878C79.4964 93.2903 79.228 92.9203 79.3399 92.5503L81.8783 84.3435C81.9566 84.1081 82.169 83.9399 82.4262 83.9399L86.1276 83.9062C86.3736 83.9062 86.5973 84.0632 86.6756 84.2987L89.4153 92.5391C89.5383 92.9091 89.2587 93.3015 88.8674 93.3015V93.2903Z" fill="#E6E6E6"/>
</g>
<defs>
<clipPath id="clip0_206_1653">
<rect width="181" height="134" fill="white"/>
</clipPath>
</defs>
</svg>
