<svg width="154" height="177" viewBox="0 0 154 177" fill="none" xmlns="http://www.w3.org/2000/svg">
<g clip-path="url(#clip0_206_1638)">
<path opacity="0.5" d="M89.8862 1.41255C45.3958 -7.13204 5.35266 23.9694 0.446848 70.8731C-4.45323 117.783 31.6698 175.17 65.1279 155.261C97.5028 135.998 137.741 130.554 150.441 91.9715C164.694 48.7109 134.382 9.95714 89.8862 1.41255Z" fill="#4D6F3D"/>
<path d="M102.432 30.1406H47.1668C40.6466 30.1406 35.3608 35.4155 35.3608 41.9223V164.36C35.3608 170.867 40.6466 176.142 47.1668 176.142H102.432C108.952 176.142 114.238 170.867 114.238 164.36V41.9223C114.238 35.4155 108.952 30.1406 102.432 30.1406Z" fill="#F2F2F2"/>
<path d="M102.432 177.001H47.1611C40.1749 177.001 34.4954 171.333 34.4954 164.361V41.9228C34.4954 34.951 40.1749 29.2832 47.1611 29.2832H102.432C109.418 29.2832 115.097 34.951 115.097 41.9228V164.361C115.097 171.333 109.418 177.001 102.432 177.001ZM47.1611 30.999C41.1263 30.999 36.2147 35.9004 36.2147 41.9228V164.361C36.2147 170.383 41.1263 175.285 47.1611 175.285H102.432C108.467 175.285 113.378 170.383 113.378 164.361V41.9228C113.378 35.9004 108.467 30.999 102.432 30.999H47.1611Z" fill="#1A1A1A"/>
<path d="M52.3305 30.6094H97.417C97.417 35.3278 93.5772 39.154 88.8547 39.154H60.8928C56.1646 39.154 52.3305 35.3221 52.3305 30.6094Z" fill="#1A1A1A"/>
<path d="M92.964 167.627H57.2192C56.4279 167.627 55.7864 168.267 55.7864 169.057C55.7864 169.846 56.4279 170.487 57.2192 170.487H92.964C93.7552 170.487 94.3967 169.846 94.3967 169.057C94.3967 168.267 93.7552 167.627 92.964 167.627Z" fill="#1A1A1A"/>
<path d="M94.6718 135.346H53.706C53.1173 135.346 52.64 135.821 52.64 136.407C52.64 136.993 53.1173 137.468 53.706 137.468H94.6718C95.2605 137.468 95.7378 136.993 95.7378 136.407C95.7378 135.821 95.2605 135.346 94.6718 135.346Z" fill="#333333"/>
<path d="M94.5686 73.6406H53.6028C53.0141 73.6406 52.5369 74.1156 52.5369 74.7016C52.5369 75.2875 53.0141 75.7625 53.6028 75.7625H94.5686C95.1574 75.7625 95.6346 75.2875 95.6346 74.7016C95.6346 74.1156 95.1574 73.6406 94.5686 73.6406Z" fill="#333333"/>
<path d="M59.1047 75.9745H88.1613C89.1585 75.9745 89.9666 76.7809 89.9666 77.776V88.677C89.9666 97.5418 82.7569 104.737 73.8737 104.737H73.2032C64.4289 104.737 57.2994 97.6276 57.2994 88.8657V77.7703C57.2994 76.7752 58.1075 75.9688 59.1047 75.9688V75.9745Z" fill="#E6E6E6"/>
<path d="M79.0317 107.836H69.4149L69.9307 107.036C70.4522 106.235 70.5267 105.223 70.137 104.353L69.4149 102.746H79.0317L78.1548 104.216C77.639 105.074 77.7135 106.161 78.3325 106.95L79.0317 107.836Z" fill="#E6E6E6"/>
<path d="M73.8451 106.332H74.5156C83.3988 106.332 90.6085 113.527 90.6085 122.392V133.293C90.6085 134.288 89.8004 135.094 88.8032 135.094H59.7466C58.7494 135.094 57.9413 134.288 57.9413 133.293V122.197C57.9413 113.441 65.065 106.326 73.8451 106.326V106.332Z" fill="#E6E6E6"/>
<path d="M57.7808 92.8475C57.7693 92.8075 57.7865 92.7675 57.8266 92.7503C58.7379 92.3614 69.2544 87.9576 73.633 90.3597C78.0115 92.7618 88.2129 92.7389 89.319 92.7332C89.3705 92.7332 89.4049 92.7789 89.3935 92.8304C89.1585 93.7855 86.9635 101.638 78.4242 104.149C78.2809 104.189 78.1319 104.217 77.9771 104.229C77.3353 104.286 75.2033 104.824 75.2033 109.399V121.89C75.2033 121.89 75.2033 121.919 75.1918 121.93L73.5871 124.555C73.547 124.624 73.4439 124.595 73.4439 124.515L73.2318 107.449C73.2089 105.75 71.8392 104.378 70.137 104.355C68.7902 104.338 60.4859 102.233 57.7808 92.8418V92.8475Z" fill="#C7B299"/>
<path d="M58.4571 134.546C58.4456 134.586 58.8411 134.987 58.8812 135.004C59.4199 135.273 70.5038 135.204 75.5013 135.17C89.766 135.078 88.8032 135.101 89.8806 134.861C89.9207 134.849 89.9494 134.815 89.9437 134.769C89.7087 133.826 87.5194 125.962 78.9686 123.451C78.8254 123.411 78.6764 123.382 78.5273 123.371C77.8912 123.314 75.7535 122.782 75.7535 118.201V105.71C75.7535 105.71 75.7535 105.681 75.742 105.67L74.1373 103.045C74.0972 102.976 73.9941 103.004 73.9941 103.085L73.2891 120.025C73.2662 121.724 72.3893 123.216 70.6872 123.239C69.3404 123.256 60.6693 126.11 58.4628 134.546H58.4571Z" fill="#C7B299"/>
</g>
<defs>
<clipPath id="clip0_206_1638">
<rect width="154" height="177" fill="white"/>
</clipPath>
</defs>
</svg>
