<svg width="116" height="91" viewBox="0 0 116 91" fill="none" xmlns="http://www.w3.org/2000/svg">
<g clip-path="url(#clip0_229_1905)">
<path d="M86.8008 12.9334C63.1061 -6.31727 30.4509 -3.78916 13.8598 18.5873C-2.73127 40.9638 1.77288 82.4295 27.2825 83.4276C51.9655 84.3958 77.2415 95.0581 95.9948 79.5548C117.018 62.1688 110.502 32.1901 86.8008 12.9394V12.9334Z" fill="#5E8B4B" fill-opacity="0.58"/>
<path d="M0.688909 86.4816L57.3023 87.0375C57.3023 87.0375 63.1721 59.8438 28.1451 62.0791C-6.88191 64.3144 0.688909 86.4816 0.688909 86.4816Z" fill="#4D6F3D"/>
<path d="M59.0153 86.4816L115.629 87.0375C115.629 87.0375 121.499 59.8438 86.4715 62.0791C51.4445 64.3144 59.0153 86.4816 59.0153 86.4816Z" fill="#4D6F3D"/>
<path d="M58.7696 60.1068C63.0699 60.1068 66.556 54.8382 66.556 48.3389C66.556 41.8396 63.0699 36.5709 58.7696 36.5709C54.4693 36.5709 50.9832 41.8396 50.9832 48.3389C50.9832 54.8382 54.4693 60.1068 58.7696 60.1068Z" fill="#596A25"/>
<path d="M28.103 90.4442L84.7164 91C84.7164 91 90.5862 63.8064 55.5592 66.0416C20.5322 68.2769 28.103 90.4442 28.103 90.4442Z" fill="#596A25"/>
<path d="M89.2686 55.2419C93.569 55.2419 97.0551 49.9732 97.0551 43.4739C97.0551 36.9746 93.569 31.7059 89.2686 31.7059C84.9683 31.7059 81.4822 36.9746 81.4822 43.4739C81.4822 49.9732 84.9683 55.2419 89.2686 55.2419Z" fill="#4D6F3D"/>
<path d="M23.5269 54.955C27.8273 54.955 31.3134 49.6863 31.3134 43.187C31.3134 36.6878 27.8273 31.4191 23.5269 31.4191C19.2266 31.4191 15.7405 36.6878 15.7405 43.187C15.7405 49.6863 19.2266 54.955 23.5269 54.955Z" fill="#4D6F3D"/>
<path d="M49.3122 34.9812C49.3122 34.9812 48.8151 30.6243 54.3674 30.8753C54.3674 30.8753 56.1763 30.7976 56.4398 32.0527C56.6854 33.2241 49.6836 36.7802 49.4979 35.8777L49.3122 34.9812Z" fill="#596A25"/>
<path d="M54.3735 30.8812C54.3735 30.8812 56.7993 28.64 57.5839 29.3094C58.3686 29.9788 56.3441 32.4352 56.3441 32.4352" fill="#596A25"/>
</g>
<defs>
<clipPath id="clip0_229_1905">
<rect width="116" height="91" fill="white"/>
</clipPath>
</defs>
</svg>
