<svg width="116" height="91" viewBox="0 0 116 91" fill="none" xmlns="http://www.w3.org/2000/svg">
<g clip-path="url(#clip0_206_1184)">
<path d="M86.8008 12.9338C63.1061 -6.31691 30.451 -3.7888 13.8599 18.5877C-2.73125 40.9641 1.77291 82.4299 27.2825 83.428C51.9655 84.3962 77.2415 95.0585 95.9948 79.5552C117.018 62.1692 110.502 32.1904 86.8008 12.9398V12.9338Z" fill="#5E8B4B" fill-opacity="0.58"/>
<path d="M0.6888 86.4824L57.3022 87.0382C57.3022 87.0382 63.172 59.8446 28.145 62.0798C-6.88202 64.3151 0.6888 86.4824 0.6888 86.4824Z" fill="#4D6F3D"/>
<path d="M59.0152 86.4824L115.629 87.0382C115.629 87.0382 121.498 59.8446 86.4714 62.0798C51.4444 64.3151 59.0152 86.4824 59.0152 86.4824Z" fill="#4D6F3D"/>
<path d="M58.7697 60.1062C63.07 60.1062 66.5561 54.8375 66.5561 48.3383C66.5561 41.839 63.07 36.5703 58.7697 36.5703C54.4693 36.5703 50.9832 41.839 50.9832 48.3383C50.9832 54.8375 54.4693 60.1062 58.7697 60.1062Z" fill="#596A25"/>
<path d="M28.1031 90.4433L84.7165 90.9991C84.7165 90.9991 90.5863 63.8055 55.5593 66.0408C20.5322 68.276 28.1031 90.4433 28.1031 90.4433Z" fill="#596A25"/>
<path d="M89.2685 55.243C93.5689 55.243 97.055 49.9743 97.055 43.475C97.055 36.9757 93.5689 31.707 89.2685 31.707C84.9682 31.707 81.4821 36.9757 81.4821 43.475C81.4821 49.9743 84.9682 55.243 89.2685 55.243Z" fill="#4D6F3D"/>
<path d="M23.527 54.9539C27.8274 54.9539 31.3135 49.6852 31.3135 43.1859C31.3135 36.6867 27.8274 31.418 23.527 31.418C19.2267 31.418 15.7406 36.6867 15.7406 43.1859C15.7406 49.6852 19.2267 54.9539 23.527 54.9539Z" fill="#4D6F3D"/>
<path d="M49.3121 34.9797C49.3121 34.9797 48.815 30.6227 54.3673 30.8737C54.3673 30.8737 56.1762 30.796 56.4397 32.0511C56.6853 33.2225 49.6835 36.7786 49.4978 35.8762L49.3121 34.9797Z" fill="#596A25"/>
<path d="M54.3733 30.8803C54.3733 30.8803 56.7991 28.639 57.5837 29.3084C58.3684 29.9778 56.3439 32.4342 56.3439 32.4342" fill="#596A25"/>
</g>
<defs>
<clipPath id="clip0_206_1184">
<rect width="116" height="91" fill="white"/>
</clipPath>
</defs>
</svg>
