<svg width="123" height="91" viewBox="0 0 123 91" fill="none" xmlns="http://www.w3.org/2000/svg">
<g clip-path="url(#clip0_229_1873)">
<path d="M116.484 6.58984H6.37138C2.85256 6.58984 0 9.44218 0 12.9607V84.6287C0 88.1472 2.85256 90.9996 6.37138 90.9996H116.484C120.003 90.9996 122.855 88.1472 122.855 84.6287V12.9607C122.855 9.44218 120.003 6.58984 116.484 6.58984Z" fill="#6C925C"/>
<path d="M123 22.3679L0.140442 22.1836V11.5962C0.140442 8.4897 2.63283 5.9668 5.7132 5.9668H116.874C120.117 5.9668 122.991 8.94602 122.991 12.2192L123 22.3635V22.3679Z" fill="#445A3A"/>
<path d="M31.6243 13.6315V0.328125" stroke="#4D4D4D" stroke-width="4" stroke-miterlimit="10"/>
<path d="M97.1591 13.3034V0" stroke="#4D4D4D" stroke-width="4" stroke-miterlimit="10"/>
<path d="M11.5536 47.5529V44.2051H17.3896V59.5794H13.6423V47.5529H11.558H11.5536Z" fill="black"/>
<path d="M30.6765 47.3432H24.1033V50.2478C24.3841 49.9407 24.779 49.6862 25.2837 49.4888C25.7883 49.2913 26.3368 49.1948 26.9248 49.1948C27.9779 49.1948 28.8511 49.4317 29.5488 49.91C30.2421 50.3882 30.7511 51.0069 31.0758 51.7616C31.4005 52.5206 31.5585 53.3411 31.5585 54.2274C31.5585 55.8684 31.0934 57.1715 30.1675 58.1324C29.2416 59.0933 27.934 59.576 26.249 59.576C25.1257 59.576 24.1516 59.3829 23.3222 58.9968C22.4929 58.6107 21.8566 58.0754 21.4047 57.3865C20.9571 56.6977 20.7114 55.9035 20.6675 55.0084H24.1867C24.27 55.4428 24.4763 55.807 24.7966 56.0922C25.1213 56.3818 25.5601 56.5222 26.1218 56.5222C26.78 56.5222 27.2714 56.3116 27.5961 55.8903C27.9208 55.4691 28.0788 54.9075 28.0788 54.2055C28.0788 53.5035 27.9121 52.9901 27.5742 52.6259C27.2363 52.2618 26.7449 52.0775 26.0998 52.0775C25.6215 52.0775 25.231 52.1915 24.9195 52.4241C24.6079 52.6566 24.4061 52.9594 24.3095 53.3411H20.8342V44.1797H30.6721V47.3388L30.6765 47.3432Z" fill="black"/>
<path d="M34.0377 59.1891C33.6384 58.8161 33.4365 58.3554 33.4365 57.8113C33.4365 57.2673 33.6384 56.7802 34.0377 56.3985C34.437 56.0168 34.9548 55.8281 35.5866 55.8281C36.2185 55.8281 36.7144 56.0168 37.1137 56.3985C37.513 56.7802 37.7148 57.2497 37.7148 57.8113C37.7148 58.373 37.513 58.8205 37.1137 59.1891C36.7144 59.5576 36.2054 59.7463 35.5866 59.7463C34.9679 59.7463 34.437 59.562 34.0377 59.1891Z" fill="black"/>
<path d="M62.7878 49.0277C63.6523 49.914 64.0823 51.1426 64.0823 52.7133V59.58H60.5017V53.2004C60.5017 52.4413 60.2998 51.8578 59.9005 51.4409C59.5012 51.0285 58.9483 50.8179 58.2463 50.8179C57.5442 50.8179 56.9913 51.0241 56.592 51.4409C56.1927 51.8534 55.9908 52.4413 55.9908 53.2004V59.58H52.4102V53.2004C52.4102 52.4413 52.2084 51.8578 51.8091 51.4409C51.4098 51.0285 50.8569 50.8179 50.1548 50.8179C49.4527 50.8179 48.8998 51.0241 48.5005 51.4409C48.1012 51.8534 47.8994 52.4413 47.8994 53.2004V59.58H44.2968V47.8299H47.8994V49.3041C48.2636 48.8127 48.7419 48.4222 49.3298 48.137C49.9178 47.8474 50.5848 47.707 51.3308 47.707C52.2172 47.707 53.007 47.8957 53.7003 48.2774C54.3936 48.6548 54.9377 49.1988 55.3326 49.9009C55.7407 49.2559 56.2936 48.7294 56.9957 48.3213C57.6978 47.9132 58.4613 47.7114 59.2906 47.7114C60.7518 47.7114 61.9146 48.1546 62.7747 49.0365L62.7878 49.0277Z" fill="black"/>
<path d="M66.5791 50.5014C67.0355 49.5888 67.6586 48.8867 68.444 48.3953C69.2295 47.9039 70.1071 47.6582 71.0768 47.6582C71.9061 47.6582 72.6302 47.8249 73.2577 48.1628C73.8808 48.5006 74.3634 48.9438 74.7013 49.4879V47.8249H78.3039V59.5751H74.7013V57.9122C74.3503 58.4606 73.8632 58.9038 73.2357 59.2372C72.6126 59.5751 71.8842 59.7418 71.0549 59.7418C70.0983 59.7418 69.2295 59.4917 68.444 58.9959C67.6586 58.5001 67.0355 57.7893 66.5791 56.8679C66.1228 55.9465 65.8946 54.8847 65.8946 53.6781C65.8946 52.4715 66.1228 51.4096 66.5791 50.497V50.5014ZM73.951 51.5764C73.4507 51.0586 72.8452 50.7954 72.1299 50.7954C71.4147 50.7954 70.8048 51.0499 70.3089 51.5632C69.8087 52.0766 69.563 52.783 69.563 53.6781C69.563 54.5731 69.8131 55.2883 70.3089 55.8149C70.8048 56.3414 71.4147 56.6046 72.1299 56.6046C72.8452 56.6046 73.4551 56.3458 73.951 55.8236C74.4512 55.3059 74.6969 54.5951 74.6969 53.6956C74.6969 52.7961 74.4468 52.0897 73.951 51.5676V51.5764Z" fill="black"/>
<path d="M86.0925 48.2604C86.7244 47.8874 87.4264 47.7031 88.1987 47.7031V51.516H87.2071C86.3075 51.516 85.6361 51.7091 85.1842 52.0952C84.7366 52.4813 84.5084 53.157 84.5084 54.1267V59.5805H80.9059V47.8304H84.5084V49.7873C84.9297 49.1423 85.4562 48.6333 86.0881 48.2604H86.0925Z" fill="black"/>
<path d="M96.4746 56.5268V59.5806H94.6404C93.3327 59.5806 92.3147 59.2603 91.5863 58.6241C90.8579 57.9879 90.4893 56.9436 90.4893 55.4957V50.8185H89.0588V47.8261H90.4893V44.9609H94.0919V47.8261H96.4526V50.8185H94.0919V55.5352C94.0919 55.8862 94.1752 56.1407 94.3464 56.2943C94.5131 56.4478 94.7939 56.5268 95.1889 56.5268H96.4746Z" fill="black"/>
<path d="M100.52 59.2212C99.7216 58.8701 99.0898 58.3875 98.6246 57.7776C98.1595 57.1677 97.9006 56.4833 97.8436 55.7242H101.402C101.446 56.1322 101.635 56.4613 101.973 56.7158C102.311 56.9703 102.723 57.0931 103.214 57.0931C103.662 57.0931 104.013 57.0054 104.259 56.8299C104.505 56.6544 104.627 56.4262 104.627 56.1454C104.627 55.8076 104.452 55.5575 104.101 55.3995C103.75 55.2372 103.179 55.0573 102.394 54.8642C101.551 54.6668 100.849 54.4605 100.288 54.2412C99.726 54.0218 99.2433 53.6795 98.8353 53.2101C98.4272 52.7406 98.2253 52.1044 98.2253 51.3058C98.2253 50.6301 98.4096 50.0158 98.7826 49.463C99.1556 48.9102 99.7041 48.4714 100.424 48.1467C101.148 47.822 102.008 47.6641 103.004 47.6641C104.478 47.6641 105.641 48.0282 106.488 48.761C107.339 49.4893 107.826 50.459 107.954 51.6656H104.627C104.57 51.2576 104.39 50.9373 104.092 50.6959C103.794 50.4546 103.394 50.3361 102.903 50.3361C102.482 50.3361 102.157 50.4151 101.933 50.5775C101.709 50.7398 101.595 50.9592 101.595 51.24C101.595 51.5779 101.775 51.828 102.131 51.9991C102.49 52.1658 103.048 52.3369 103.807 52.5037C104.676 52.7274 105.387 52.9512 105.935 53.1662C106.484 53.3856 106.962 53.7366 107.379 54.2192C107.791 54.7019 108.006 55.3512 108.019 56.1673C108.019 56.8562 107.826 57.4705 107.44 58.0102C107.054 58.5498 106.501 58.9754 105.777 59.2826C105.053 59.5897 104.215 59.7477 103.258 59.7477C102.232 59.7477 101.319 59.5722 100.52 59.2212Z" fill="black"/>
</g>
<defs>
<clipPath id="clip0_229_1873">
<rect width="123" height="91" fill="white"/>
</clipPath>
</defs>
</svg>
