<svg width="102" height="123" viewBox="0 0 102 123" fill="none" xmlns="http://www.w3.org/2000/svg">
<g clip-path="url(#clip0_206_1117)">
<path d="M59.5396 0.930105C30.066 -4.72143 3.54285 15.8567 0.299229 46.8975C-2.9505 77.9383 20.9766 115.91 43.1383 102.737C64.5791 89.9905 91.2306 86.3852 99.6481 60.8558C109.08 32.2328 89.0071 6.58773 59.5396 0.930105Z" fill="#5E8B4B" fill-opacity="0.58"/>
<path d="M75.2691 66.8398H42.5397C41.3049 66.8398 40.304 67.8378 40.304 69.0688V120.773C40.304 122.004 41.3049 123.002 42.5397 123.002H75.2691C76.5039 123.002 77.5048 122.004 77.5048 120.773V69.0688C77.5048 67.8378 76.5039 66.8398 75.2691 66.8398Z" fill="#707A88"/>
<path d="M43.0956 64.5977H74.7072C77.1139 64.5977 79.0686 66.5465 79.0686 68.9459H38.7341C38.7341 66.5465 40.6888 64.5977 43.0956 64.5977Z" fill="#707A88"/>
<path d="M44.4639 73.8111C44.4639 73.4041 44.133 73.0742 43.7248 73.0742C43.3165 73.0742 42.9856 73.4041 42.9856 73.8111V118.895C42.9856 119.302 43.3165 119.632 43.7248 119.632C44.133 119.632 44.4639 119.302 44.4639 118.895V73.8111Z" fill="#4D4D4D"/>
<path d="M59.7901 73.8111C59.7901 73.4041 59.4592 73.0742 59.051 73.0742C58.6428 73.0742 58.3119 73.4041 58.3119 73.8111V118.895C58.3119 119.302 58.6428 119.632 59.051 119.632C59.4592 119.632 59.7901 119.302 59.7901 118.895V73.8111Z" fill="#4D4D4D"/>
<path d="M75.1103 73.8111C75.1103 73.4041 74.7794 73.0742 74.3712 73.0742C73.963 73.0742 73.632 73.4041 73.632 73.8111V118.895C73.632 119.302 73.963 119.632 74.3712 119.632C74.7794 119.632 75.1103 119.302 75.1103 118.895V73.8111Z" fill="#4D4D4D"/>
<path opacity="0.5" d="M40.304 69.0664H77.5048V80.4913L40.304 72.1784V69.0664Z" fill="#4D4D4D"/>
<path d="M54.451 48.8407L38.6589 34.6992C37.7578 33.8924 36.3713 33.9665 35.562 34.8648L29.1943 41.9328C28.385 42.8311 28.4594 44.2134 29.3604 45.0202L45.1526 59.1617C46.0536 59.9686 47.4401 59.8944 48.2494 58.9961L54.6171 51.9282C55.4264 51.0298 55.3521 49.6475 54.451 48.8407Z" fill="white"/>
<path d="M42.8207 45.9178C42.5764 45.6986 28.3435 42.8728 28.1297 43.1164C27.9098 43.36 27.9281 43.7376 28.1725 43.9569L46.3453 60.2294C46.5897 60.4486 46.9562 60.4243 47.1761 60.1867C47.396 59.9431 43.0589 46.131 42.8207 45.9178Z" fill="#F2F2F2"/>
<path d="M40.9881 47.9452C40.7438 47.726 36.4067 33.9199 36.6266 33.6824C36.8466 33.4388 37.2253 33.4145 37.4696 33.6398L55.6425 49.9123C55.8868 50.1316 55.9051 50.497 55.6852 50.7406C55.4653 50.9842 41.2264 48.1645 40.9881 47.9452Z" fill="#E6E6E6"/>
<path d="M10.3661 13.1133L29.7301 28.4723" stroke="#CCCCCC" stroke-width="3" stroke-miterlimit="10"/>
<path d="M13.5609 23.8242L34.3054 39.9688" stroke="#CCCCCC" stroke-width="3" stroke-miterlimit="10"/>
<path d="M5.37549 25.5L21.9662 38.6605" stroke="#CCCCCC" stroke-width="3" stroke-miterlimit="10"/>
</g>
<defs>
<clipPath id="clip0_206_1117">
<rect width="102" height="123" fill="white"/>
</clipPath>
</defs>
</svg>
