<svg width="157" height="91" viewBox="0 0 157 91" fill="none" xmlns="http://www.w3.org/2000/svg">
<g clip-path="url(#clip0_229_1919)">
<path d="M153.986 53.1404C142.177 73.6322 101.34 75.0027 68.9243 84.2005C35.4172 93.7066 -3.07691 61.0456 0.536326 35.7135C4.14956 10.3813 44.0331 -4.9556 89.6188 1.45763C135.205 7.87087 167.228 30.1599 153.986 53.1373V53.1404Z" fill="#5E8B4B" fill-opacity="0.58"/>
<path d="M127.693 15.4459H26.45C24.8494 15.4459 23.5519 16.7345 23.5519 18.3239V76.395C23.5519 77.9845 24.8494 79.273 26.45 79.273H127.693C129.293 79.273 130.591 77.9845 130.591 76.395V18.3239C130.591 16.7345 129.293 15.4459 127.693 15.4459Z" fill="#E6E6E6"/>
<path d="M25.1295 15.4459H129.01C129.882 15.4459 130.588 16.1467 130.588 17.0126V70.4365H23.5519V17.0126C23.5519 16.1467 24.2576 15.4459 25.1295 15.4459Z" fill="#445A3A"/>
<path d="M88.9946 90.3428H65.0915C64.5395 90.3428 64.1443 89.8102 64.3074 89.2869L67.4282 79.2731H86.4823L89.8227 89.2028C90.0109 89.7635 89.5906 90.3428 88.9946 90.3428Z" fill="#CCCCCC"/>
<path d="M67.4596 79.2731H86.4792L89.6941 88.6515C89.6941 88.6515 90.5127 90.7384 88.2043 90.3428L67.4564 79.2731H67.4596Z" fill="#B3B3B3"/>
<path d="M27.0805 17.8817H127.059C127.931 17.8817 128.637 18.5825 128.637 19.4484V70.4397H25.5028V19.4484C25.5028 18.5825 26.2085 17.8817 27.0805 17.8817Z" fill="#D9D9D9"/>
<path d="M63.1783 89.0408H90.7668C91.3533 89.0408 91.8301 89.5142 91.8301 90.0967V90.8909C91.8301 90.9501 91.783 90.9968 91.7234 90.9968H62.1087C62.0491 90.9968 62.0021 90.9501 62.0021 90.8909V90.2088C62.0021 89.564 62.529 89.0408 63.1783 89.0408Z" fill="#CCCCCC"/>
<path d="M27.0711 17.8817H127.05C127.909 17.8817 128.605 18.5732 128.605 19.4266V23.9772H25.5028V19.4391C25.5028 18.5794 26.2054 17.8817 27.0711 17.8817Z" fill="#4D6F3D"/>
<path d="M115.485 27.5217H38.6259C38.004 27.5217 37.4999 28.0224 37.4999 28.6399V47.3283C37.4999 47.9459 38.004 48.4465 38.6259 48.4465H115.485C116.107 48.4465 116.611 47.9459 116.611 47.3283V28.6399C116.611 28.0224 116.107 27.5217 115.485 27.5217Z" fill="white"/>
<path d="M76.5773 29.5868H40.7555C40.0938 29.5868 39.5574 30.1195 39.5574 30.7766V45.4532C39.5574 46.1104 40.0938 46.6431 40.7555 46.6431H76.5773C77.239 46.6431 77.7755 46.1104 77.7755 45.4532V30.7766C77.7755 30.1195 77.239 29.5868 76.5773 29.5868Z" fill="#CCCCCC"/>
<path d="M95.4572 29.3645L80.4025 29.4741L80.4117 30.72L95.4664 30.6104L95.4572 29.3645Z" fill="#CCCCCC"/>
<path d="M101.757 33.8028L80.4452 33.9542L80.4519 34.8886L101.764 34.7372L101.757 33.8028Z" fill="#CCCCCC"/>
<path d="M105.47 36.3335L80.4635 36.5112L80.4702 37.4456L105.477 37.2679L105.47 36.3335Z" fill="#CCCCCC"/>
<path d="M97.6915 38.9428L80.4727 39.0652L80.4794 39.9996L97.6983 39.8772L97.6915 38.9428Z" fill="#CCCCCC"/>
<path d="M115.485 49.5149H38.6259C38.004 49.5149 37.4999 50.0155 37.4999 50.6331V68.5148C37.4999 69.1323 38.004 69.6329 38.6259 69.6329H115.485C116.107 69.6329 116.611 69.1323 116.611 68.5148V50.6331C116.611 50.0155 116.107 49.5149 115.485 49.5149Z" fill="white"/>
<path d="M51.2439 51.58H40.6174C39.9557 51.58 39.4193 52.1127 39.4193 52.7698V63.3225C39.4193 63.9796 39.9557 64.5123 40.6174 64.5123H51.2439C51.9056 64.5123 52.442 63.9796 52.442 63.3225V52.7698C52.442 52.1127 51.9056 51.58 51.2439 51.58Z" fill="#CCCCCC"/>
<path d="M69.5259 51.5396L54.4712 51.6492L54.4804 52.895L69.5351 52.7854L69.5259 51.5396Z" fill="#CCCCCC"/>
<path d="M75.7936 55.9643L54.4817 56.1157L54.4884 57.0501L75.8003 56.8987L75.7936 55.9643Z" fill="#CCCCCC"/>
<path d="M79.4817 58.5077L54.4751 58.6854L54.4818 59.6198L79.4884 59.4421L79.4817 58.5077Z" fill="#CCCCCC"/>
<path d="M71.6495 62.3819L54.4307 62.5043L54.4374 63.4387L71.6563 63.3163L71.6495 62.3819Z" fill="#CCCCCC"/>
<path opacity="0.1" d="M106.954 15.4459H129.007C129.879 15.4459 130.588 16.1499 130.588 17.0157V76.2611C130.588 77.9243 129.23 79.273 127.555 79.273H106.951V15.4459H106.954Z" fill="#1A1A1A"/>
<path d="M30.1856 19.5076H28.4982C28.0564 19.5076 27.6984 19.8632 27.6984 20.3018V21.9775C27.6984 22.4162 28.0564 22.7718 28.4982 22.7718H30.1856C30.6273 22.7718 30.9854 22.4162 30.9854 21.9775V20.3018C30.9854 19.8632 30.6273 19.5076 30.1856 19.5076Z" fill="white"/>
<path d="M111.457 51.5771L96.4021 51.6866L96.4113 52.9325L111.466 52.8229L111.457 51.5771Z" fill="#CCCCCC"/>
<path d="M111.512 56.0469L90.1997 56.1984L90.2064 57.1328L111.518 56.9813L111.512 56.0469Z" fill="#CCCCCC"/>
<path d="M111.552 58.6193L86.5457 58.797L86.5524 59.7314L111.559 59.5537L111.552 58.6193Z" fill="#CCCCCC"/>
<path d="M111.652 62.434L94.4327 62.5564L94.4395 63.4908L111.658 63.3684L111.652 62.434Z" fill="#CCCCCC"/>
<path d="M108.199 79.5939H113.4C113.4 80.3134 112.813 80.8958 112.089 80.8958H109.514C108.789 80.8958 108.202 80.3134 108.202 79.5939H108.199Z" fill="#999999"/>
<path d="M23.6052 24.8774C30.3643 24.8774 35.8437 21.5543 35.8437 17.455C35.8437 13.3557 30.3643 10.0326 23.6052 10.0326C16.846 10.0326 11.3666 13.3557 11.3666 17.455C11.3666 21.5543 16.846 24.8774 23.6052 24.8774Z" fill="#F2F2F2"/>
<path d="M36.3205 24.5223C43.343 24.5223 49.0359 21.5492 49.0359 17.8817C49.0359 14.2142 43.343 11.2411 36.3205 11.2411C29.2981 11.2411 23.6052 14.2142 23.6052 17.8817C23.6052 21.5492 29.2981 24.5223 36.3205 24.5223Z" fill="#F2F2F2"/>
<path d="M11.3666 24.0489C17.6442 24.0489 22.7333 21.4328 22.7333 18.2057C22.7333 14.9785 17.6442 12.3624 11.3666 12.3624C5.08901 12.3624 0 14.9785 0 18.2057C0 21.4328 5.08901 24.0489 11.3666 24.0489Z" fill="#F2F2F2"/>
<path d="M17.0154 30.107C23.293 30.107 28.3821 27.4909 28.3821 24.2638C28.3821 21.0366 23.293 18.4205 17.0154 18.4205C10.7378 18.4205 5.6488 21.0366 5.6488 24.2638C5.6488 27.4909 10.7378 30.107 17.0154 30.107Z" fill="#F2F2F2"/>
<path d="M34.9719 30.7175C41.2495 30.7175 46.3385 28.1014 46.3385 24.8742C46.3385 21.6471 41.2495 19.031 34.9719 19.031C28.6942 19.031 23.6052 21.6471 23.6052 24.8742C23.6052 28.1014 28.6942 30.7175 34.9719 30.7175Z" fill="#F2F2F2"/>
<path d="M126.651 34.0876C133.411 34.0876 138.89 30.7645 138.89 26.6652C138.89 22.5659 133.411 19.2428 126.651 19.2428C119.892 19.2428 114.413 22.5659 114.413 26.6652C114.413 30.7645 119.892 34.0876 126.651 34.0876Z" fill="#F2F2F2"/>
<path d="M139.367 33.7325C146.389 33.7325 152.082 30.7594 152.082 27.0919C152.082 23.4244 146.389 20.4513 139.367 20.4513C132.344 20.4513 126.651 23.4244 126.651 27.0919C126.651 30.7594 132.344 33.7325 139.367 33.7325Z" fill="#F2F2F2"/>
<path d="M114.416 33.2591C120.694 33.2591 125.783 30.643 125.783 27.4159C125.783 24.1887 120.694 21.5726 114.416 21.5726C108.138 21.5726 103.049 24.1887 103.049 27.4159C103.049 30.643 108.138 33.2591 114.416 33.2591Z" fill="#F2F2F2"/>
<path d="M120.065 39.3172C126.342 39.3172 131.431 36.7011 131.431 33.474C131.431 30.2468 126.342 27.6307 120.065 27.6307C113.787 27.6307 108.698 30.2468 108.698 33.474C108.698 36.7011 113.787 39.3172 120.065 39.3172Z" fill="#F2F2F2"/>
<path d="M138.021 39.9309C144.299 39.9309 149.388 37.3148 149.388 34.0876C149.388 30.8605 144.299 28.2444 138.021 28.2444C131.744 28.2444 126.655 30.8605 126.655 34.0876C126.655 37.3148 131.744 39.9309 138.021 39.9309Z" fill="#F2F2F2"/>
<path d="M121.084 27.366C121.31 26.9611 121.624 26.6434 122.028 26.416C122.433 26.1887 122.891 26.0765 123.402 26.0765C124.029 26.0765 124.566 26.2416 125.014 26.5687C125.459 26.8988 125.761 27.3473 125.911 27.9142H124.497C124.39 27.6962 124.243 27.528 124.048 27.4128C123.854 27.2975 123.634 27.2414 123.389 27.2414C122.994 27.2414 122.671 27.3785 122.427 27.6526C122.182 27.9267 122.056 28.2942 122.056 28.7521C122.056 29.21 122.179 29.5775 122.427 29.8516C122.671 30.1257 122.994 30.2627 123.389 30.2627C123.634 30.2627 123.854 30.2067 124.048 30.0914C124.243 29.9762 124.39 29.8111 124.497 29.59H125.911C125.761 30.1568 125.463 30.6054 125.014 30.9324C124.569 31.2595 124.029 31.4214 123.402 31.4214C122.891 31.4214 122.433 31.3093 122.028 31.0819C121.624 30.8545 121.31 30.5399 121.084 30.135C120.858 29.7301 120.745 29.2691 120.745 28.7521C120.745 28.235 120.858 27.771 121.084 27.366Z" fill="black"/>
<path d="M127.831 31.0943C127.417 30.8638 127.087 30.5461 126.846 30.135C126.601 29.7238 126.482 29.2629 126.482 28.7489C126.482 28.235 126.604 27.774 126.846 27.366C127.091 26.958 127.417 26.6371 127.831 26.4098C128.245 26.1793 128.7 26.0671 129.198 26.0671C129.697 26.0671 130.152 26.1824 130.566 26.4098C130.98 26.6402 131.306 26.958 131.544 27.366C131.783 27.774 131.902 28.235 131.902 28.7489C131.902 29.2629 131.783 29.7238 131.541 30.135C131.3 30.5461 130.973 30.8669 130.563 31.0943C130.152 31.3248 129.697 31.4369 129.201 31.4369C128.706 31.4369 128.248 31.3217 127.834 31.0943H127.831ZM130.211 29.8515C130.465 29.5712 130.591 29.2037 130.591 28.7458C130.591 28.2879 130.465 27.9111 130.211 27.637C129.957 27.3598 129.622 27.2227 129.198 27.2227C128.775 27.2227 128.433 27.3598 128.179 27.6338C127.925 27.9079 127.799 28.2786 127.799 28.7489C127.799 29.2192 127.925 29.5837 128.179 29.8578C128.433 30.135 128.772 30.272 129.198 30.272C129.625 30.272 129.957 30.1319 130.211 29.8547V29.8515Z" fill="black"/>
<path d="M132.677 30.1755C133.169 29.7706 133.555 29.4404 133.84 29.1819C134.123 28.9234 134.364 28.6524 134.558 28.3659C134.753 28.0824 134.853 27.8052 134.853 27.5373C134.853 27.3318 134.806 27.1729 134.709 27.0577C134.615 26.9424 134.471 26.8864 134.279 26.8864C134.088 26.8864 133.941 26.958 133.831 27.0982C133.724 27.2414 133.668 27.4408 133.668 27.6993H132.426C132.435 27.2757 132.526 26.9206 132.702 26.6372C132.874 26.3537 133.103 26.145 133.385 26.008C133.668 25.8741 133.984 25.8055 134.33 25.8055C134.925 25.8055 135.377 25.9582 135.681 26.2603C135.986 26.5655 136.136 26.9611 136.136 27.4501C136.136 27.9827 135.954 28.478 135.587 28.9327C135.22 29.3875 134.753 29.8329 134.188 30.2658H136.221V31.3062H132.441V30.3562C132.611 30.2222 132.689 30.1599 132.673 30.1693L132.677 30.1755Z" fill="black"/>
<path d="M16.9966 18.2866C17.2224 17.8817 17.5361 17.564 17.9407 17.3366C18.3453 17.1092 18.8032 16.9971 19.3144 16.9971C19.9417 16.9971 20.4781 17.1622 20.9266 17.4892C21.372 17.8194 21.6731 18.2679 21.8236 18.8348H20.4091C20.3024 18.6167 20.155 18.4485 19.9606 18.3333C19.7661 18.218 19.5465 18.162 19.3019 18.162C18.9067 18.162 18.5836 18.299 18.339 18.5731C18.0943 18.8472 17.9689 19.2148 17.9689 19.6726C17.9689 20.1305 18.0912 20.498 18.339 20.7721C18.5836 21.0462 18.9067 21.1833 19.3019 21.1833C19.5465 21.1833 19.7661 21.1272 19.9606 21.012C20.155 20.8967 20.3024 20.7316 20.4091 20.5105H21.8236C21.6731 21.0774 21.3751 21.5259 20.9266 21.8529C20.4812 22.18 19.9417 22.342 19.3144 22.342C18.8032 22.342 18.3453 22.2298 17.9407 22.0024C17.5361 21.7751 17.2224 21.4605 16.9966 21.0556C16.7707 20.6507 16.6578 20.1897 16.6578 19.6726C16.6578 19.1556 16.7707 18.6915 16.9966 18.2866Z" fill="black"/>
<path d="M23.7463 22.0118C23.3323 21.7813 23.0029 21.4636 22.7614 21.0525C22.5168 20.6413 22.3976 20.1803 22.3976 19.6664C22.3976 19.1525 22.5199 18.6915 22.7614 18.2835C23.0061 17.8754 23.3323 17.5546 23.7463 17.3272C24.1603 17.0968 24.6151 16.9846 25.1138 16.9846C25.6125 16.9846 26.0673 17.0999 26.4813 17.3272C26.8953 17.5577 27.2215 17.8754 27.4599 18.2835C27.6982 18.6915 27.8174 19.1525 27.8174 19.6664C27.8174 20.1803 27.6982 20.6413 27.4567 21.0525C27.2152 21.4636 26.889 21.7844 26.4782 22.0118C26.0673 22.2423 25.6125 22.3544 25.1169 22.3544C24.6214 22.3544 24.1634 22.2392 23.7494 22.0118H23.7463ZM26.1237 20.7721C26.3778 20.4918 26.5032 20.1243 26.5032 19.6664C26.5032 19.2085 26.3778 18.8317 26.1237 18.5576C25.8697 18.2803 25.5341 18.1433 25.1106 18.1433C24.6872 18.1433 24.3453 18.2803 24.0913 18.5544C23.8372 18.8285 23.7118 19.1992 23.7118 19.6695C23.7118 20.1398 23.8372 20.5043 24.0913 20.7784C24.3453 21.0556 24.6841 21.1926 25.1106 21.1926C25.5372 21.1926 25.8697 21.0525 26.1237 20.7752V20.7721Z" fill="black"/>
<path d="M28.5891 21.093C29.0815 20.6881 29.4673 20.3579 29.7527 20.0994C30.035 19.8409 30.2765 19.5699 30.4709 19.2833C30.6654 18.9999 30.7658 18.7227 30.7658 18.4548C30.7658 18.2492 30.7187 18.0904 30.6215 17.9751C30.5274 17.8599 30.3831 17.8038 30.1918 17.8038C30.0005 17.8038 29.8531 17.8755 29.7433 18.0156C29.6366 18.1589 29.5802 18.3583 29.5802 18.6168H28.3381C28.3475 18.1932 28.4385 17.8381 28.6141 17.5547C28.7867 17.2712 29.0156 17.0625 29.2979 16.9255C29.5802 16.7915 29.897 16.723 30.242 16.723C30.8379 16.723 31.2896 16.8756 31.5938 17.1778C31.898 17.483 32.0486 17.8786 32.0486 18.3676C32.0486 18.9002 31.8667 19.3955 31.4997 19.8502C31.1327 20.305 30.6654 20.7504 30.1008 21.1833H32.1333V22.2236H28.3538V21.2736C28.5232 21.1397 28.6016 21.0774 28.5859 21.0868L28.5891 21.093Z" fill="black"/>
</g>
<defs>
<clipPath id="clip0_229_1919">
<rect width="157" height="91" fill="white"/>
</clipPath>
</defs>
</svg>
