<svg width="102" height="123" viewBox="0 0 102 123" fill="none" xmlns="http://www.w3.org/2000/svg">
<g clip-path="url(#clip0_229_1888)">
<path d="M59.5396 0.931937C30.066 -4.7196 3.54279 15.8586 0.299168 46.8994C-2.95056 77.9402 20.9765 115.911 43.1382 102.739C64.5791 89.9923 91.2305 86.387 99.6481 60.8577C109.08 32.2346 89.007 6.58956 59.5396 0.931937Z" fill="#5E8B4B" fill-opacity="0.58"/>
<path d="M75.2692 66.8379H42.5398C41.305 66.8379 40.3041 67.8358 40.3041 69.0668V120.771C40.3041 122.002 41.305 123 42.5398 123H75.2692C76.504 123 77.5049 122.002 77.5049 120.771V69.0668C77.5049 67.8358 76.504 66.8379 75.2692 66.8379Z" fill="#707A88"/>
<path d="M43.0956 64.5968H74.7072C77.1139 64.5968 79.0687 66.5456 79.0687 68.9451H38.7341C38.7341 66.5456 40.6889 64.5968 43.0956 64.5968Z" fill="#707A88"/>
<path d="M44.464 73.811C44.464 73.404 44.1331 73.0741 43.7248 73.0741C43.3166 73.0741 42.9857 73.404 42.9857 73.811V118.895C42.9857 119.302 43.3166 119.632 43.7248 119.632C44.1331 119.632 44.464 119.302 44.464 118.895V73.811Z" fill="#4D4D4D"/>
<path d="M59.7901 73.811C59.7901 73.404 59.4592 73.0741 59.051 73.0741C58.6428 73.0741 58.3119 73.404 58.3119 73.811V118.895C58.3119 119.302 58.6428 119.632 59.051 119.632C59.4592 119.632 59.7901 119.302 59.7901 118.895V73.811Z" fill="#4D4D4D"/>
<path d="M75.1103 73.811C75.1103 73.404 74.7794 73.0741 74.3712 73.0741C73.963 73.0741 73.6321 73.404 73.6321 73.811V118.895C73.6321 119.302 73.963 119.632 74.3712 119.632C74.7794 119.632 75.1103 119.302 75.1103 118.895V73.811Z" fill="#4D4D4D"/>
<path opacity="0.5" d="M40.3041 69.0669H77.5049V80.4918L40.3041 72.1789V69.0669Z" fill="#4D4D4D"/>
<path d="M54.4511 48.8421L38.6589 34.7007C37.7579 33.8938 36.3714 33.968 35.5621 34.8663L29.1944 41.9342C28.3851 42.8325 28.4595 44.2149 29.3605 45.0217L45.1526 59.1632C46.0537 59.97 47.4402 59.8959 48.2495 58.9976L54.6172 51.9296C55.4265 51.0313 55.3521 49.649 54.4511 48.8421Z" fill="white"/>
<path d="M42.8208 45.9187C42.5764 45.6995 28.3436 42.8737 28.1298 43.1173C27.9099 43.3609 27.9282 43.7385 28.1725 43.9577L46.3454 60.2302C46.5897 60.4495 46.9562 60.4251 47.1761 60.1876C47.396 59.944 43.059 46.1318 42.8208 45.9187Z" fill="#F2F2F2"/>
<path d="M40.9882 47.9466C40.7439 47.7273 36.4068 33.9213 36.6267 33.6838C36.8466 33.4402 37.2254 33.4158 37.4697 33.6411L55.6425 49.9137C55.8869 50.1329 55.9052 50.4983 55.6853 50.7419C55.4654 50.9855 41.2264 48.1658 40.9882 47.9466Z" fill="#E6E6E6"/>
<path d="M10.3662 13.1118L29.7302 28.4708" stroke="#CCCCCC" stroke-width="3" stroke-miterlimit="10"/>
<path d="M13.5609 23.8241L34.3054 39.9687" stroke="#CCCCCC" stroke-width="3" stroke-miterlimit="10"/>
<path d="M5.37549 25.4989L21.9662 38.6594" stroke="#CCCCCC" stroke-width="3" stroke-miterlimit="10"/>
</g>
<defs>
<clipPath id="clip0_229_1888">
<rect width="102" height="123" fill="white"/>
</clipPath>
</defs>
</svg>
