<svg width="157" height="91" viewBox="0 0 157 91" fill="none" xmlns="http://www.w3.org/2000/svg">
<g clip-path="url(#clip0_206_1135)">
<path d="M153.986 53.1411C142.177 73.6329 101.34 75.0034 68.9243 84.2012C35.4172 93.7074 -3.07691 61.0463 0.536326 35.7142C4.14956 10.3821 44.0331 -4.95487 89.6188 1.45837C135.205 7.8716 167.228 30.1606 153.986 53.138V53.1411Z" fill="#5E8B4B" fill-opacity="0.58"/>
<path d="M127.693 15.4453H26.45C24.8494 15.4453 23.5519 16.7338 23.5519 18.3233V76.3944C23.5519 77.9839 24.8494 79.2724 26.45 79.2724H127.693C129.293 79.2724 130.591 77.9839 130.591 76.3944V18.3233C130.591 16.7338 129.293 15.4453 127.693 15.4453Z" fill="#E6E6E6"/>
<path d="M25.1295 15.4453H129.01C129.882 15.4453 130.588 16.1461 130.588 17.012V70.4359H23.5519V17.012C23.5519 16.1461 24.2576 15.4453 25.1295 15.4453Z" fill="#445A3A"/>
<path d="M88.9947 90.3432H65.0915C64.5395 90.3432 64.1443 89.8106 64.3074 89.2873L67.4282 79.2734H86.4824L89.8227 89.2032C90.0109 89.7639 89.5906 90.3432 88.9947 90.3432Z" fill="#CCCCCC"/>
<path d="M67.4596 79.2734H86.4792L89.6941 88.6519C89.6941 88.6519 90.5127 90.7388 88.2043 90.3432L67.4564 79.2734H67.4596Z" fill="#B3B3B3"/>
<path d="M27.0804 17.8828H127.059C127.931 17.8828 128.637 18.5836 128.637 19.4495V70.4408H25.5027V19.4495C25.5027 18.5836 26.2085 17.8828 27.0804 17.8828Z" fill="#D9D9D9"/>
<path d="M63.1783 89.0391H90.7668C91.3533 89.0391 91.8301 89.5125 91.8301 90.095V90.8892C91.8301 90.9484 91.783 90.9951 91.7234 90.9951H62.1087C62.0491 90.9951 62.0021 90.9484 62.0021 90.8892V90.2071C62.0021 89.5623 62.529 89.0391 63.1783 89.0391Z" fill="#CCCCCC"/>
<path d="M27.071 17.8828H127.05C127.909 17.8828 128.605 18.5743 128.605 19.4277V23.9783H25.5027V19.4402C25.5027 18.5805 26.2053 17.8828 27.071 17.8828Z" fill="#4D6F3D"/>
<path d="M115.485 27.5234H38.6258C38.0039 27.5234 37.4998 28.0241 37.4998 28.6416V47.33C37.4998 47.9476 38.0039 48.4482 38.6258 48.4482H115.485C116.107 48.4482 116.611 47.9476 116.611 47.33V28.6416C116.611 28.0241 116.107 27.5234 115.485 27.5234Z" fill="white"/>
<path d="M76.5773 29.5859H40.7555C40.0938 29.5859 39.5574 30.1186 39.5574 30.7758V45.4524C39.5574 46.1095 40.0938 46.6422 40.7555 46.6422H76.5773C77.239 46.6422 77.7755 46.1095 77.7755 45.4524V30.7758C77.7755 30.1186 77.239 29.5859 76.5773 29.5859Z" fill="#CCCCCC"/>
<path d="M95.4571 29.3631L80.4024 29.4727L80.4116 30.7185L95.4663 30.6089L95.4571 29.3631Z" fill="#CCCCCC"/>
<path d="M101.757 33.8017L80.4452 33.9531L80.4519 34.8875L101.764 34.7361L101.757 33.8017Z" fill="#CCCCCC"/>
<path d="M105.47 36.334L80.4635 36.5117L80.4702 37.4461L105.477 37.2684L105.47 36.334Z" fill="#CCCCCC"/>
<path d="M97.6915 38.944L80.4727 39.0664L80.4794 40.0008L97.6983 39.8784L97.6915 38.944Z" fill="#CCCCCC"/>
<path d="M115.485 49.5156H38.6258C38.0039 49.5156 37.4998 50.0163 37.4998 50.6338V68.5155C37.4998 69.133 38.0039 69.6337 38.6258 69.6337H115.485C116.107 69.6337 116.611 69.133 116.611 68.5155V50.6338C116.611 50.0163 116.107 49.5156 115.485 49.5156Z" fill="white"/>
<path d="M51.2439 51.5781H40.6175C39.9558 51.5781 39.4194 52.1108 39.4194 52.7679V63.3207C39.4194 63.9778 39.9558 64.5105 40.6175 64.5105H51.2439C51.9056 64.5105 52.4421 63.9778 52.4421 63.3207V52.7679C52.4421 52.1108 51.9056 51.5781 51.2439 51.5781Z" fill="#CCCCCC"/>
<path d="M69.526 51.5388L54.4713 51.6484L54.4804 52.8943L69.5352 52.7847L69.526 51.5388Z" fill="#CCCCCC"/>
<path d="M75.7936 55.9657L54.4818 56.1172L54.4885 57.0516L75.8004 56.9001L75.7936 55.9657Z" fill="#CCCCCC"/>
<path d="M79.4816 58.5059L54.475 58.6836L54.4818 59.618L79.4883 59.4403L79.4816 58.5059Z" fill="#CCCCCC"/>
<path d="M71.6495 62.3815L54.4307 62.5039L54.4374 63.4383L71.6563 63.3159L71.6495 62.3815Z" fill="#CCCCCC"/>
<path opacity="0.1" d="M106.954 15.4453H129.007C129.879 15.4453 130.588 16.1492 130.588 17.0151V76.2604C130.588 77.9237 129.23 79.2724 127.555 79.2724H106.951V15.4453H106.954Z" fill="#1A1A1A"/>
<path d="M30.1855 19.5078H28.4981C28.0564 19.5078 27.6983 19.8634 27.6983 20.3021V21.9778C27.6983 22.4164 28.0564 22.7721 28.4981 22.7721H30.1855C30.6273 22.7721 30.9853 22.4164 30.9853 21.9778V20.3021C30.9853 19.8634 30.6273 19.5078 30.1855 19.5078Z" fill="white"/>
<path d="M111.457 51.5779L96.4021 51.6875L96.4113 52.9334L111.466 52.8238L111.457 51.5779Z" fill="#CCCCCC"/>
<path d="M111.512 56.0478L90.1997 56.1992L90.2064 57.1336L111.518 56.9822L111.512 56.0478Z" fill="#CCCCCC"/>
<path d="M111.552 58.6192L86.5456 58.7969L86.5523 59.7313L111.559 59.5536L111.552 58.6192Z" fill="#CCCCCC"/>
<path d="M111.652 62.4323L94.4327 62.5547L94.4395 63.4891L111.658 63.3667L111.652 62.4323Z" fill="#CCCCCC"/>
<path d="M108.199 79.5938H113.4C113.4 80.3133 112.813 80.8957 112.089 80.8957H109.514C108.789 80.8957 108.203 80.3133 108.203 79.5938H108.199Z" fill="#999999"/>
<path d="M23.6052 24.8761C30.3644 24.8761 35.8438 21.5529 35.8438 17.4537C35.8438 13.3544 30.3644 10.0312 23.6052 10.0312C16.846 10.0312 11.3666 13.3544 11.3666 17.4537C11.3666 21.5529 16.846 24.8761 23.6052 24.8761Z" fill="#F2F2F2"/>
<path d="M36.3205 24.5195C43.343 24.5195 49.0359 21.5464 49.0359 17.8789C49.0359 14.2114 43.343 11.2383 36.3205 11.2383C29.2981 11.2383 23.6052 14.2114 23.6052 17.8789C23.6052 21.5464 29.2981 24.5195 36.3205 24.5195Z" fill="#F2F2F2"/>
<path d="M11.3666 24.0458C17.6442 24.0458 22.7333 21.4297 22.7333 18.2026C22.7333 14.9755 17.6442 12.3594 11.3666 12.3594C5.08901 12.3594 0 14.9755 0 18.2026C0 21.4297 5.08901 24.0458 11.3666 24.0458Z" fill="#F2F2F2"/>
<path d="M17.0154 30.1044C23.293 30.1044 28.3821 27.4883 28.3821 24.2612C28.3821 21.0341 23.293 18.418 17.0154 18.418C10.7378 18.418 5.6488 21.0341 5.6488 24.2612C5.6488 27.4883 10.7378 30.1044 17.0154 30.1044Z" fill="#F2F2F2"/>
<path d="M34.9719 30.7177C41.2495 30.7177 46.3385 28.1016 46.3385 24.8745C46.3385 21.6474 41.2495 19.0312 34.9719 19.0312C28.6942 19.0312 23.6052 21.6474 23.6052 24.8745C23.6052 28.1016 28.6942 30.7177 34.9719 30.7177Z" fill="#F2F2F2"/>
<path d="M126.651 34.087C133.411 34.087 138.89 30.7639 138.89 26.6646C138.89 22.5653 133.411 19.2422 126.651 19.2422C119.892 19.2422 114.413 22.5653 114.413 26.6646C114.413 30.7639 119.892 34.087 126.651 34.087Z" fill="#F2F2F2"/>
<path d="M139.367 33.7304C146.389 33.7304 152.082 30.7573 152.082 27.0898C152.082 23.4223 146.389 20.4492 139.367 20.4492C132.344 20.4492 126.651 23.4223 126.651 27.0898C126.651 30.7573 132.344 33.7304 139.367 33.7304Z" fill="#F2F2F2"/>
<path d="M114.416 33.2568C120.694 33.2568 125.783 30.6407 125.783 27.4135C125.783 24.1864 120.694 21.5703 114.416 21.5703C108.138 21.5703 103.049 24.1864 103.049 27.4135C103.049 30.6407 108.138 33.2568 114.416 33.2568Z" fill="#F2F2F2"/>
<path d="M120.065 39.3154C126.342 39.3154 131.431 36.6993 131.431 33.4721C131.431 30.245 126.342 27.6289 120.065 27.6289C113.787 27.6289 108.698 30.245 108.698 33.4721C108.698 36.6993 113.787 39.3154 120.065 39.3154Z" fill="#F2F2F2"/>
<path d="M138.021 39.9287C144.299 39.9287 149.388 37.3126 149.388 34.0854C149.388 30.8583 144.299 28.2422 138.021 28.2422C131.744 28.2422 126.655 30.8583 126.655 34.0854C126.655 37.3126 131.744 39.9287 138.021 39.9287Z" fill="#F2F2F2"/>
<path d="M121.084 27.3637C121.31 26.9588 121.624 26.6411 122.028 26.4137C122.433 26.1863 122.891 26.0742 123.402 26.0742C124.029 26.0742 124.566 26.2393 125.014 26.5663C125.459 26.8965 125.761 27.345 125.911 27.9119H124.497C124.39 27.6939 124.243 27.5257 124.048 27.4104C123.854 27.2952 123.634 27.2391 123.389 27.2391C122.994 27.2391 122.671 27.3762 122.427 27.6503C122.182 27.9244 122.056 28.2919 122.056 28.7498C122.056 29.2076 122.179 29.5752 122.427 29.8493C122.671 30.1234 122.994 30.2604 123.389 30.2604C123.634 30.2604 123.854 30.2044 124.048 30.0891C124.243 29.9739 124.39 29.8088 124.497 29.5876H125.911C125.761 30.1545 125.463 30.603 125.014 30.9301C124.569 31.2571 124.029 31.4191 123.402 31.4191C122.891 31.4191 122.433 31.307 122.028 31.0796C121.624 30.8522 121.31 30.5376 121.084 30.1327C120.858 29.7278 120.745 29.2668 120.745 28.7498C120.745 28.2327 120.858 27.7686 121.084 27.3637Z" fill="black"/>
<path d="M127.831 31.0936C127.417 30.8631 127.087 30.5454 126.846 30.1342C126.601 29.7231 126.482 29.2621 126.482 28.7482C126.482 28.2343 126.604 27.7733 126.846 27.3652C127.09 26.9572 127.417 26.6364 127.831 26.409C128.245 26.1785 128.699 26.0664 129.198 26.0664C129.697 26.0664 130.152 26.1817 130.566 26.409C130.98 26.6395 131.306 26.9572 131.544 27.3652C131.783 27.7733 131.902 28.2343 131.902 28.7482C131.902 29.2621 131.783 29.7231 131.541 30.1342C131.3 30.5454 130.973 30.8662 130.563 31.0936C130.152 31.3241 129.697 31.4362 129.201 31.4362C128.706 31.4362 128.248 31.321 127.834 31.0936H127.831ZM130.211 29.8508C130.465 29.5705 130.591 29.2029 130.591 28.7451C130.591 28.2872 130.465 27.9103 130.211 27.6362C129.957 27.359 129.622 27.222 129.198 27.222C128.775 27.222 128.433 27.359 128.179 27.6331C127.925 27.9072 127.799 28.2779 127.799 28.7482C127.799 29.2185 127.925 29.5829 128.179 29.857C128.433 30.1342 128.772 30.2713 129.198 30.2713C129.625 30.2713 129.957 30.1311 130.211 29.8539V29.8508Z" fill="black"/>
<path d="M132.677 30.1747C133.169 29.7697 133.555 29.4396 133.84 29.1811C134.123 28.9225 134.364 28.6516 134.558 28.365C134.753 28.0816 134.853 27.8043 134.853 27.5365C134.853 27.3309 134.806 27.1721 134.709 27.0568C134.615 26.9416 134.471 26.8855 134.279 26.8855C134.088 26.8855 133.941 26.9571 133.831 27.0973C133.724 27.2406 133.668 27.4399 133.668 27.6984H132.426C132.435 27.2748 132.526 26.9198 132.702 26.6363C132.874 26.3529 133.103 26.1442 133.385 26.0071C133.668 25.8732 133.984 25.8047 134.33 25.8047C134.925 25.8047 135.377 25.9573 135.681 26.2594C135.986 26.5647 136.136 26.9603 136.136 27.4493C136.136 27.9819 135.954 28.4771 135.587 28.9319C135.22 29.3866 134.753 29.832 134.188 30.265H136.221V31.3053H132.441V30.3553C132.611 30.2214 132.689 30.1591 132.673 30.1684L132.677 30.1747Z" fill="black"/>
<path d="M16.9966 18.2856C17.2225 17.8807 17.5361 17.563 17.9407 17.3356C18.3453 17.1082 18.8033 16.9961 19.3145 16.9961C19.9418 16.9961 20.4781 17.1612 20.9267 17.4882C21.372 17.8184 21.6731 18.2669 21.8237 18.8338H20.4091C20.3025 18.6158 20.1551 18.4476 19.9606 18.3323C19.7662 18.2171 19.5466 18.161 19.302 18.161C18.9068 18.161 18.5837 18.2981 18.3391 18.5721C18.0944 18.8462 17.9689 19.2138 17.9689 19.6716C17.9689 20.1295 18.0913 20.4971 18.3391 20.7711C18.5837 21.0452 18.9068 21.1823 19.302 21.1823C19.5466 21.1823 19.7662 21.1262 19.9606 21.011C20.1551 20.8957 20.3025 20.7307 20.4091 20.5095H21.8237C21.6731 21.0764 21.3752 21.5249 20.9267 21.852C20.4813 22.179 19.9418 22.341 19.3145 22.341C18.8033 22.341 18.3453 22.2288 17.9407 22.0015C17.5361 21.7741 17.2225 21.4595 16.9966 21.0546C16.7708 20.6497 16.6579 20.1887 16.6579 19.6716C16.6579 19.1546 16.7708 18.6905 16.9966 18.2856Z" fill="black"/>
<path d="M23.7463 22.0116C23.3323 21.7811 23.003 21.4634 22.7615 21.0522C22.5168 20.6411 22.3976 20.1801 22.3976 19.6662C22.3976 19.1522 22.52 18.6912 22.7615 18.2832C23.0061 17.8752 23.3323 17.5544 23.7463 17.327C24.1603 17.0965 24.6151 16.9844 25.1138 16.9844C25.6125 16.9844 26.0673 17.0996 26.4813 17.327C26.8954 17.5575 27.2216 17.8752 27.4599 18.2832C27.6983 18.6912 27.8175 19.1522 27.8175 19.6662C27.8175 20.1801 27.6983 20.6411 27.4568 21.0522C27.2153 21.4634 26.8891 21.7842 26.4782 22.0116C26.0673 22.242 25.6125 22.3542 25.117 22.3542C24.6214 22.3542 24.1635 22.2389 23.7495 22.0116H23.7463ZM26.1238 20.7719C26.3778 20.4916 26.5033 20.124 26.5033 19.6662C26.5033 19.2083 26.3778 18.8314 26.1238 18.5573C25.8697 18.2801 25.5341 18.1431 25.1107 18.1431C24.6873 18.1431 24.3454 18.2801 24.0913 18.5542C23.8373 18.8283 23.7118 19.199 23.7118 19.6693C23.7118 20.1396 23.8373 20.504 24.0913 20.7781C24.3454 21.0553 24.6841 21.1924 25.1107 21.1924C25.5373 21.1924 25.8697 21.0522 26.1238 20.775V20.7719Z" fill="black"/>
<path d="M28.5891 21.0926C29.0815 20.6877 29.4673 20.3575 29.7528 20.099C30.035 19.8405 30.2765 19.5695 30.471 19.283C30.6655 18.9995 30.7658 18.7223 30.7658 18.4544C30.7658 18.2489 30.7188 18.09 30.6216 17.9748C30.5275 17.8595 30.3832 17.8035 30.1919 17.8035C30.0005 17.8035 29.8531 17.8751 29.7433 18.0153C29.6367 18.1585 29.5802 18.3579 29.5802 18.6164H28.3382C28.3476 18.1928 28.4386 17.8377 28.6142 17.5543C28.7867 17.2708 29.0157 17.0622 29.298 16.9251C29.5802 16.7912 29.897 16.7227 30.242 16.7227C30.838 16.7227 31.2896 16.8753 31.5939 17.1774C31.8981 17.4827 32.0487 17.8782 32.0487 18.3672C32.0487 18.8999 31.8667 19.3951 31.4998 19.8498C31.1328 20.3046 30.6655 20.75 30.1009 21.183H32.1333V22.2233H28.3539V21.2733C28.5232 21.1393 28.6017 21.0771 28.586 21.0864L28.5891 21.0926Z" fill="black"/>
</g>
<defs>
<clipPath id="clip0_206_1135">
<rect width="157" height="91" fill="white"/>
</clipPath>
</defs>
</svg>
