<svg width="127" height="142" viewBox="0 0 127 142" fill="none" xmlns="http://www.w3.org/2000/svg">
<g clip-path="url(#clip0_229_7178)">
<path opacity="0.5" d="M70.0203 1.10395C35.3629 -5.57388 4.16979 18.7327 0.348232 55.3893C-3.46887 92.0503 24.6705 136.9 50.7339 121.341C75.9536 106.286 107.298 102.031 117.192 71.8782C128.295 38.0689 104.682 7.78178 70.0203 1.10395Z" fill="#4D6F3D"/>
<path d="M81.86 27.2253H38.8094C33.7302 27.2253 29.6127 31.3478 29.6127 36.4331V132.122C29.6127 137.207 33.7302 141.33 38.8094 141.33H81.86C86.9393 141.33 91.0568 137.207 91.0568 132.122V36.4331C91.0568 31.3478 86.9393 27.2253 81.86 27.2253Z" fill="white"/>
<path d="M81.86 142H38.805C33.3628 142 28.9385 137.571 28.9385 132.122V36.4331C28.9385 30.9845 33.3628 26.5549 38.805 26.5549H81.86C87.3022 26.5549 91.7265 30.9845 91.7265 36.4331V132.122C91.7265 137.571 87.3022 142 81.86 142ZM38.8094 27.8959C34.1084 27.8959 30.2823 31.7265 30.2823 36.4331V132.122C30.2823 136.829 34.1084 140.659 38.8094 140.659H81.8645C86.5656 140.659 90.3916 136.829 90.3916 132.122V36.4331C90.3916 31.7265 86.5656 27.8959 81.8645 27.8959H38.8094Z" fill="#1A1A1A"/>
<path d="M42.8364 27.5918H77.9581C77.9581 31.2794 74.967 34.2696 71.2883 34.2696H49.5062C45.8231 34.2696 42.8364 31.2749 42.8364 27.5918Z" fill="#1A1A1A"/>
<path d="M74.4848 134.67H46.64C46.0236 134.67 45.5239 135.17 45.5239 135.787C45.5239 136.404 46.0236 136.905 46.64 136.905H74.4848C75.1012 136.905 75.6009 136.404 75.6009 135.787C75.6009 135.17 75.1012 134.67 74.4848 134.67Z" fill="#1A1A1A"/>
<path d="M125.317 122.315L84.4852 130.749L86.1638 140.73C86.2977 141.517 86.9763 142.031 87.6817 141.888L125.853 134.003C126.616 133.847 127.116 133.033 126.973 132.189L125.312 122.319L125.317 122.315Z" fill="#D1B299"/>
<path d="M118.339 129.972L119.183 135.367" stroke="#998675" stroke-miterlimit="10"/>
<path d="M117.299 131.778L117.924 135.604" stroke="#998675" stroke-miterlimit="10"/>
<path d="M95.7802 136.207L96.4096 140.038" stroke="#998675" stroke-miterlimit="10"/>
<path d="M99.3875 133.628L100.37 139.242" stroke="#998675" stroke-miterlimit="10"/>
<path d="M100.401 133.387L101.383 139.001" stroke="#998675" stroke-miterlimit="10"/>
<path d="M88.4853 135.85L89.4675 141.464" stroke="#998675" stroke-miterlimit="10"/>
<path d="M84.6503 132.26L125.621 123.799C126.143 123.692 126.487 123.137 126.388 122.561L126.232 121.644C126.134 121.068 125.634 120.688 125.116 120.795L84.1458 129.256C83.6235 129.364 83.2797 129.918 83.378 130.495L83.5342 131.411C83.6324 131.988 84.1324 132.367 84.6503 132.26Z" fill="#445A3A"/>
<path d="M89.896 34.4305L89.713 34.4662C88.8871 34.6361 88.3424 35.5166 88.4987 36.4329L103.481 125.578L106.593 124.934L91.6014 35.7267C91.4541 34.8462 90.6907 34.2696 89.9005 34.4305H89.896Z" fill="#445A3A"/>
<path d="M66.8273 81.2265L55.2855 70.8474C54.627 70.2552 53.6136 70.3096 53.0222 70.9689L48.3683 76.1565C47.7768 76.8158 47.8312 77.8303 48.4897 78.4225L60.0315 88.8016C60.69 89.3938 61.7033 89.3394 62.2948 88.6801L66.9487 83.4926C67.5402 82.8333 67.4858 81.8187 66.8273 81.2265Z" fill="white"/>
<path d="M58.3191 79.0746C58.1405 78.9137 47.7383 76.8397 47.5821 77.0185C47.4214 77.1973 47.4347 77.4744 47.6133 77.6353L60.895 89.5785C61.0736 89.7394 61.3415 89.7216 61.5022 89.5472C61.6629 89.3684 58.4932 79.231 58.3191 79.0746Z" fill="#F2F2F2"/>
<path d="M56.9797 80.563C56.8011 80.4021 53.6314 70.2692 53.7921 70.0948C53.9528 69.916 54.2296 69.8982 54.4082 70.0635L67.6899 82.0068C67.8685 82.1677 67.8819 82.4359 67.7212 82.6146C67.5604 82.7934 57.1538 80.7239 56.9797 80.563Z" fill="#E6E6E6"/>
<path d="M72.5025 84.2102H48.582C47.6796 84.2102 46.9481 84.9426 46.9481 85.8461V123.794C46.9481 124.698 47.6796 125.43 48.582 125.43H72.5025C73.405 125.43 74.1365 124.698 74.1365 123.794V85.8461C74.1365 84.9426 73.405 84.2102 72.5025 84.2102Z" fill="#707A88"/>
<path d="M48.9883 82.5654H72.0918C73.8508 82.5654 75.2794 83.9958 75.2794 85.7568H45.8007C45.8007 83.9958 47.2293 82.5654 48.9883 82.5654Z" fill="#707A88"/>
<path d="M49.9884 89.3282C49.9884 89.0295 49.7465 88.7874 49.4482 88.7874C49.1498 88.7874 48.908 89.0295 48.908 89.3282V122.418C48.908 122.717 49.1498 122.959 49.4482 122.959C49.7465 122.959 49.9884 122.717 49.9884 122.418V89.3282Z" fill="#4D4D4D"/>
<path d="M61.1896 89.3282C61.1896 89.0295 60.9478 88.7874 60.6495 88.7874C60.3511 88.7874 60.1093 89.0295 60.1093 89.3282V122.418C60.1093 122.717 60.3511 122.959 60.6495 122.959C60.9478 122.959 61.1896 122.717 61.1896 122.418V89.3282Z" fill="#4D4D4D"/>
<path d="M72.3909 89.3282C72.3909 89.0295 72.1491 88.7874 71.8507 88.7874C71.5524 88.7874 71.3105 89.0295 71.3105 89.3282V122.418C71.3105 122.717 71.5524 122.959 71.8507 122.959C72.1491 122.959 72.3909 122.717 72.3909 122.418V89.3282Z" fill="#4D4D4D"/>
<path opacity="0.5" d="M46.9481 85.8462H74.1365V94.2315L46.9481 88.1302V85.8462Z" fill="#4D4D4D"/>
</g>
<defs>
<clipPath id="clip0_229_7178">
<rect width="127" height="142" fill="white"/>
</clipPath>
</defs>
</svg>
