<svg width="67" height="67" viewBox="0 0 67 67" fill="none" xmlns="http://www.w3.org/2000/svg">
<g clip-path="url(#clip0_206_1484)">
<g opacity="0.5">
<path d="M65.358 31.7256C59.6616 45.2962 42.1441 47.4437 27.9873 54.3737C13.3461 61.5372 -2.10096 41.6814 0.234709 25.2424C2.57548 8.80331 20.1236 -2.31512 39.4311 0.411177C58.7386 3.1324 71.7428 16.5101 65.358 31.7256Z" fill="#FFFDB6"/>
</g>
<path d="M55.2248 31.937C55.2248 39.4406 46.4176 48.1018 43.6127 50.6708C42.7713 51.4425 42.1593 52.4325 41.8482 53.5291C40.9558 56.6818 40.252 61.4643 33.2756 61.4643C22.2041 61.4643 23.6831 55.5243 22.0052 51.2292C20.7915 48.1272 11.3265 40.9891 11.3265 31.937C11.3265 19.8691 21.1536 10.0859 33.2756 10.0859C45.3976 10.0859 55.2248 19.8691 55.2248 31.937Z" fill="#FFEAB5"/>
<path d="M39.7981 57.4375H24.9733C23.8805 57.4375 22.9946 58.3183 22.9946 59.4048C22.9946 60.4913 23.8805 61.3721 24.9733 61.3721H39.7981C40.8909 61.3721 41.7768 60.4913 41.7768 59.4048C41.7768 58.3183 40.8909 57.4375 39.7981 57.4375Z" fill="#CCCCCC"/>
<path d="M22.9946 59.4062H41.7768V60.9446C41.7768 62.2696 40.6957 63.3409 39.3698 63.3409H25.4017C24.0706 63.3409 22.9946 62.2646 22.9946 60.9446V59.4062Z" fill="#B3B3B3"/>
<path d="M25.2232 62.1328H39.5534C39.691 62.1328 39.8032 62.2445 39.8032 62.3816V62.8537C39.8032 65.1383 37.9418 66.9965 35.6419 66.9965H28.8695C26.7174 66.9965 24.9733 65.2551 24.9733 63.1177V62.3867C24.9733 62.2496 25.0855 62.1379 25.2232 62.1379V62.1328Z" fill="#B3B3B3"/>
<path d="M28.8848 57.1322C29.5375 53.2686 30.0679 49.3899 30.6238 45.5111C31.0623 42.4447 31.8222 38.9873 30.4198 36.0528C29.8129 34.7836 28.5125 33.4331 26.9622 33.7276C25.5699 33.9916 24.8509 35.4994 24.9376 36.8093C25.1722 40.353 29.3692 40.9013 32.1486 40.5408C33.6581 40.3428 35.0809 39.7539 36.0295 38.5253C37.0698 37.185 37.4931 35.3928 38.0438 33.819C38.513 32.4838 39.6298 30.3718 38.2529 29.1939C37.1208 28.2242 35.5909 29.0315 34.9942 30.1839C34.2242 31.6714 34.0814 33.4433 34.9075 34.9156C35.6878 36.3067 36.6669 37.7536 38.0642 38.5913C39.3596 39.368 41.2159 39.5914 42.3888 38.4593C43.3373 37.5505 43.4852 35.6771 42.2256 34.941C40.303 33.819 39.1556 36.6824 38.7833 38.0074C38.2121 40.023 37.8959 42.135 37.5288 44.1962C36.7689 48.4456 36.6669 52.8016 35.1625 56.8885C34.8208 57.8074 36.2997 58.2085 36.6363 57.2946C37.641 54.5734 38.0183 51.7912 38.3498 48.9279C38.6813 46.0645 39.2576 43.13 39.8338 40.2565C40.0684 39.0787 40.2571 37.4236 41.1037 36.4945C41.4708 36.0934 41.6748 36.3777 41.6136 36.8448C41.5422 37.3525 41.017 37.647 40.5478 37.713C39.2831 37.8907 38.1611 36.8905 37.437 35.9868C36.7128 35.0831 35.7694 33.8748 35.8612 32.6919C35.8969 32.2299 36.3048 29.8895 37.2024 30.3159C37.6257 30.519 37.2687 31.3973 37.1718 31.6918C36.9423 32.3873 36.6873 33.0778 36.4476 33.7682C36.0244 34.9816 35.6929 36.3574 34.9534 37.4287C34.2955 38.3831 33.245 38.84 32.1282 39.0177C30.2974 39.3122 26.7378 39.297 26.4675 36.8093C26.3553 35.7939 27.0693 34.7582 28.0943 35.4944C28.9817 36.129 29.3692 37.3271 29.5528 38.3476C30.0424 41.0942 29.2927 44.0794 28.9052 46.7956C28.4309 50.1108 27.9668 53.426 27.4109 56.7311C27.2477 57.6906 28.7216 58.1019 28.8848 57.1372V57.1322Z" fill="#666666"/>
<path d="M24.9733 63.3438H39.8032C39.8032 63.3438 40.4152 66.9991 37.5594 66.9991C34.7035 66.9991 24.9733 63.3438 24.9733 63.3438Z" fill="#999999"/>
<path d="M39.8032 11.0703C39.8032 11.0703 51.3949 13.8525 55.2248 27.1286C58.1265 37.1961 45.1324 49.269 45.1324 49.269C45.1324 49.269 42.552 51.5739 40.7365 57.0925C40.0123 59.2857 40.2469 50.3402 48.6971 40.7246C52.8228 36.0284 51.7162 30.4337 51.1858 27.1286C50.0231 19.8686 39.8032 11.0703 39.8032 11.0703Z" fill="#FFDF8C"/>
<path d="M18.2621 23.2355C16.8494 22.3927 16.676 20.4229 17.9 19.3212C20.4855 16.996 23.9482 14.5387 24.8713 15.7064L25.1977 17.2498C25.3864 18.1281 25.2487 19.047 24.8203 19.839C23.8564 21.616 22.148 23.2355 20.6283 23.7076C19.9246 23.926 19.0321 23.6924 18.2672 23.2355H18.2621Z" fill="#FFFFE1"/>
</g>
<defs>
<clipPath id="clip0_206_1484">
<rect width="67" height="67" fill="white"/>
</clipPath>
</defs>
</svg>
