<svg width="607" height="480" viewBox="0 0 607 480" fill="none" xmlns="http://www.w3.org/2000/svg">
<g opacity="0.5">
<path d="M592.063 267.018C542.056 379.032 383.689 394.867 256.291 450.784C128.893 506.701 -17.5643 341.973 1.72132 205.778C21.0069 69.5832 178.607 -20.7094 353.734 4.10248C528.861 28.9144 648.138 141.425 592.063 267.041V267.018Z" fill="#4D6F3D"/>
</g>
<path d="M217.822 81.4686C217.822 81.4686 221.453 65.3182 240.897 73.0776C240.897 73.0776 247.438 75.04 246.807 79.8445C246.22 84.3332 216.897 88.3256 217.371 84.897L217.822 81.4686Z" fill="#4D6F3D"/>
<path d="M240.897 73.1007C240.897 73.1007 252.31 68.1158 254.273 71.4767C256.235 74.8376 245.972 81.0857 245.972 81.0857" fill="#4D6F3D"/>
<path d="M175.845 410.409C171.65 430.303 149.883 468.04 157.936 471.085C163.575 473.228 177.65 471.784 193.191 471.762C195.199 471.762 208.439 471.829 215.973 471.13C218.86 470.86 220.619 468.649 219.582 466.642L213.018 453.807C211.8 451.416 211.529 448.845 212.251 446.341L240.514 379.665C244.394 368.838 240.334 341.748 237.356 330.785L225.492 296.658C236.792 306.312 230.07 293.207 229.935 292.665C229.416 290.274 233.973 301.823 239.792 296.658C243.153 293.68 244.619 288.402 252.897 292.665C256.349 294.425 287.589 304.394 290.273 348.424C293.093 394.8 241.935 453.987 241.213 468.965C241.146 470.521 242.95 471.784 245.07 471.784H297.356C297.356 471.784 327.333 473.792 319.957 465.085C314.544 458.702 308.318 455.747 307.687 449.86C306.581 439.348 349.664 405.582 349.641 350.815C349.641 324.898 307.867 283.665 298.213 242.568C293.566 222.786 281.815 183.809 277.912 171.741C277.19 169.485 274.687 167.794 271.574 167.455C255.852 165.719 207.559 161.433 175.62 170.546C152.094 177.267 186.605 279.65 183.086 358.913" fill="#4D6F3D"/>
<path d="M255.319 128.301C261.128 111.593 256.517 94.8076 245.021 90.811C233.525 86.8144 219.497 97.1196 213.688 113.828C207.879 130.537 212.49 147.322 223.986 151.319C235.482 155.315 249.51 145.01 255.319 128.301Z" fill="#4D6F3D"/>
<path d="M178.461 172.46C178.461 172.46 210.198 153.288 241.822 183.581C273.446 213.851 299.588 263.881 302.972 273.242C304.866 278.497 306.919 288.918 292.528 295.257C283.077 299.43 276.197 293.633 272.634 288.806C272.543 288.67 270.964 284.182 267.987 277.167C251.498 238.189 178.461 172.46 178.461 172.46Z" fill="#6C925C"/>
<path d="M432.039 128.477H252.92C248.697 128.477 245.273 131.9 245.273 136.123V257.498C245.273 261.721 248.697 265.145 252.92 265.145H432.039C436.262 265.145 439.686 261.721 439.686 257.498V136.123C439.686 131.9 436.262 128.477 432.039 128.477Z" fill="#DCDCDC"/>
<path d="M316.966 264.74C319.651 283.304 311.463 285.898 305.485 285.469C302.418 285.244 299.779 287.635 299.779 290.725V291.311H385.763V291.041C385.763 287.793 382.989 285.311 379.74 285.492C373.786 285.808 365.936 282.988 368.575 264.74" fill="#DCDCDC"/>
<path d="M526.888 292.684H76.5979V306.894H526.888V292.684Z" fill="#BF9567" stroke="#BF9567" stroke-width="2" stroke-miterlimit="10"/>
<path d="M200.77 479H191.657L148.281 318.873L158.499 318.58L200.77 479Z" fill="#BF9567" stroke="#BF9567" stroke-width="2" stroke-miterlimit="10"/>
<path d="M517.573 479H508.46L465.084 318.873L475.325 318.58L517.573 479Z" fill="#BF9567" stroke="#BF9567" stroke-width="2" stroke-miterlimit="10"/>
<path d="M91.0337 479H100.146L143.522 318.873L133.282 318.58L91.0337 479Z" fill="#BF9567" stroke="#BF9567" stroke-width="2" stroke-miterlimit="10"/>
<path d="M407.362 479H416.475L459.85 318.873L449.632 318.58L407.362 479Z" fill="#BF9567" stroke="#BF9567" stroke-width="2" stroke-miterlimit="10"/>
<path d="M184.279 458.103H107.713L110.11 447.721H181.36L184.279 458.103Z" fill="#BF9567" stroke="#BF9567" stroke-width="2" stroke-miterlimit="10"/>
<path d="M500.929 458.103H424.362L426.901 447.721H497.473L500.929 458.103Z" fill="#BF9567" stroke="#BF9567" stroke-width="2" stroke-miterlimit="10"/>
<path d="M171.988 308.812H120.109V320.361H171.988V308.812Z" fill="#A67C52"/>
<path d="M488.497 308.812H436.618V320.361H488.497V308.812Z" fill="#A67C52"/>
<path d="M462.558 320.385H478.28L492.693 375.625H478.46L462.558 320.385Z" fill="#A67C52"/>
<path d="M145.822 320.385H130.1L115.687 375.625H129.92L145.822 320.385Z" fill="#A67C52"/>
<path d="M462.558 320.385H446.813L432.4 375.625H446.633L462.558 320.385Z" fill="#A67C52"/>
<path d="M146.049 320.385H161.793L176.184 375.625H161.951L146.049 320.385Z" fill="#A67C52"/>
<path d="M342.152 262.258C346.288 262.258 349.641 258.906 349.641 254.77C349.641 250.634 346.288 247.281 342.152 247.281C338.016 247.281 334.663 250.634 334.663 254.77C334.663 258.906 338.016 262.258 342.152 262.258Z" fill="#CCCCCC"/>
<path d="M368.859 231.578L378.649 264.195H367.957L368.859 231.578Z" fill="#CCCCCC"/>
</svg>
