<svg width="371" height="480" viewBox="0 0 371 480" fill="none" xmlns="http://www.w3.org/2000/svg">
<path d="M84.5688 19.9848C84.5688 19.9848 82.9042 4.79646 102.046 5.6287C102.046 5.6287 108.287 5.42064 109.328 9.78988C110.368 14.1591 85.8171 26.2265 85.1929 23.1057L84.5688 19.9848Z" fill="#4D6F3D"/>
<path d="M102.254 5.83464C102.254 5.83464 110.784 -1.86355 113.489 0.425103C116.194 2.71375 109.12 11.2442 109.12 11.2442" fill="#4D6F3D"/>
<path d="M102.254 5.83398C106.415 5.83398 109.328 8.74681 109.536 10.4113Z" fill="#4D6F3D"/>
<path d="M147.819 104.868C147.195 101.956 144.906 99.8749 141.994 99.4588C127.429 97.3782 82.9047 91.9687 53.5684 103.412C18.6144 116.936 18.1983 443.381 18.1983 453.992C18.1983 464.603 18.1983 454.408 18.1983 454.616C17.9903 456.696 14.8694 463.354 9.2518 468.14C3.6342 472.925 1.96971 475.006 1.76165 476.67C1.5536 478.335 2.5939 479.999 6.13091 479.999C11.9566 479.999 55.4409 479.999 69.797 479.999C84.1531 479.999 74.5824 477.918 74.7904 475.422L95.8044 229.704C95.8044 227.831 97.0527 226.167 98.9252 225.543C103.503 223.67 111.201 222.006 118.899 227.207C126.597 232.409 132.007 440.468 132.423 475.006C132.423 477.71 134.711 479.999 137.416 479.999H198.794C198.794 479.999 206.7 479.999 199.834 468.972C192.968 457.945 193.8 459.401 193.384 452.119C192.136 435.058 206.284 419.454 166.961 193.294C162.591 168.534 151.772 119.849 148.235 104.66L147.819 104.868Z" fill="#4D6F3D"/>
<path d="M111.2 79.0712C122.461 79.0712 131.59 65.8438 131.59 49.5268C131.59 33.2099 122.461 19.9824 111.2 19.9824C99.9393 19.9824 90.8105 33.2099 90.8105 49.5268C90.8105 65.8438 99.9393 79.0712 111.2 79.0712Z" fill="#4D6F3D"/>
<path d="M72.9175 98.6289C72.9175 98.6289 22.3592 100.085 8.41925 162.711C-5.52072 225.337 1.34525 307.728 4.46614 321.876C7.58702 336.024 11.5401 344.347 32.7621 340.81C53.9842 337.273 50.2391 325.83 50.8633 317.091C51.4875 308.353 49.4069 310.017 47.5344 298.99C37.7556 237.821 72.9175 98.6289 72.9175 98.6289Z" fill="#6C925C"/>
<path d="M49.4075 309.395C50.4478 316.469 56.6897 339.979 43.998 333.529Z" fill="#6C925C"/>
<path d="M143.45 100.71C142.618 101.334 153.021 124.429 155.31 136.496C158.639 154.597 144.49 183.517 171.538 178.316C237.701 165.832 314.059 168.121 362.745 113.193C368.57 106.744 376.893 91.7633 362.12 77.4072C352.55 68.0445 341.523 73.0379 334.657 77.8233C334.657 77.8233 330.287 83.4409 322.381 90.7229C275.36 134.415 143.242 100.918 143.242 100.918L143.45 100.71Z" fill="#6C925C"/>
<path d="M329.664 83.0252C334.449 78.0318 348.181 58.4742 350.677 72.8303Z" fill="#6C925C"/>
</svg>
