<svg width="357" height="251" viewBox="0 0 357 251" fill="none" xmlns="http://www.w3.org/2000/svg">
<path d="M0 5.97489C0 2.67505 2.67505 0 5.9749 0H351.025C354.325 0 357 2.67505 357 5.9749V125.473H0V5.97489Z" fill="#6C925C"/>
<path d="M0 125.473H357V244.971C357 248.27 354.325 250.945 351.025 250.945H5.97489C2.67505 250.945 0 248.27 0 244.971V125.473Z" fill="#445A3A"/>
<path d="M104.474 49.3137C102.412 49.3137 100.59 48.9552 99.0066 48.2382C97.4531 47.5212 96.2283 46.5204 95.332 45.2358C94.4358 43.9512 93.9578 42.5172 93.898 40.9339H97.2141C97.3635 42.4575 98.0357 43.8018 99.2306 44.9669C100.426 46.1022 102.173 46.6698 104.474 46.6698C106.595 46.6698 108.268 46.1321 109.493 45.0566C110.747 43.9512 111.375 42.5621 111.375 40.8891C111.375 39.5447 111.031 38.4692 110.344 37.6626C109.657 36.8262 108.805 36.2137 107.79 35.8254C106.774 35.4071 105.37 34.959 103.577 34.481C101.486 33.9134 99.8281 33.3607 98.6033 32.823C97.3784 32.2852 96.3328 31.4487 95.4665 30.3135C94.6001 29.1783 94.1669 27.6397 94.1669 25.6979C94.1669 24.0847 94.5852 22.6507 95.4216 21.396C96.2581 20.1114 97.4382 19.1106 98.9618 18.3936C100.485 17.6766 102.233 17.3181 104.205 17.3181C107.103 17.3181 109.433 18.0351 111.195 19.4691C112.988 20.8732 114.019 22.6955 114.287 24.9361H110.882C110.673 23.6515 109.971 22.5163 108.776 21.5304C107.581 20.5147 105.967 20.0068 103.936 20.0068C102.054 20.0068 100.485 20.5147 99.2306 21.5304C97.9759 22.5163 97.3485 23.8756 97.3485 25.6083C97.3485 26.9228 97.6921 27.9833 98.3792 28.7899C99.0663 29.5965 99.9178 30.209 100.933 30.6272C101.979 31.0454 103.383 31.4936 105.146 31.9715C107.177 32.5392 108.82 33.1068 110.075 33.6744C111.33 34.2121 112.39 35.0486 113.257 36.1838C114.123 37.3191 114.556 38.8427 114.556 40.7546C114.556 42.2185 114.168 43.6077 113.391 44.9221C112.614 46.2366 111.464 47.2972 109.941 48.1038C108.417 48.9104 106.595 49.3137 104.474 49.3137ZM122.186 19.9172C121.559 19.9172 121.021 19.6931 120.573 19.245C120.125 18.7969 119.901 18.2442 119.901 17.587C119.901 16.9297 120.125 16.392 120.573 15.9738C121.021 15.5256 121.559 15.3016 122.186 15.3016C122.814 15.3016 123.351 15.5256 123.799 15.9738C124.247 16.392 124.472 16.9297 124.472 17.587C124.472 18.2442 124.247 18.7969 123.799 19.245C123.351 19.6931 122.814 19.9172 122.186 19.9172ZM123.755 24.5328V49H120.618V24.5328H123.755ZM129.424 36.7216C129.424 34.2121 129.932 32.0164 130.948 30.1343C131.963 28.2223 133.352 26.7585 135.115 25.7427C136.907 24.6971 138.924 24.1743 141.165 24.1743C143.316 24.1743 145.257 24.6971 146.99 25.7427C148.723 26.7883 149.993 28.1476 150.799 29.8206V15.8393H153.936V49H150.799V43.533C150.052 45.2358 148.827 46.6399 147.125 47.7453C145.422 48.8208 143.42 49.3585 141.12 49.3585C138.879 49.3585 136.863 48.8357 135.07 47.7901C133.308 46.7445 131.918 45.2657 130.903 43.3537C129.917 41.4418 129.424 39.231 129.424 36.7216ZM150.799 36.7664C150.799 34.7947 150.396 33.062 149.589 31.5682C148.783 30.0745 147.677 28.9244 146.273 28.1177C144.899 27.3111 143.375 26.9078 141.702 26.9078C139.97 26.9078 138.416 27.2962 137.042 28.0729C135.668 28.8497 134.577 29.9849 133.771 31.4786C132.994 32.9425 132.606 34.6901 132.606 36.7216C132.606 38.7232 132.994 40.4858 133.771 42.0094C134.577 43.5031 135.668 44.6533 137.042 45.4599C138.416 46.2366 139.97 46.625 141.702 46.625C143.375 46.625 144.899 46.2217 146.273 45.4151C147.677 44.6085 148.783 43.4583 149.589 41.9646C150.396 40.4708 150.799 38.7381 150.799 36.7664ZM169.522 49.3585C166.713 49.3585 164.413 48.7162 162.621 47.4316C160.858 46.1171 159.872 44.3396 159.663 42.099H162.89C163.039 43.4732 163.681 44.5935 164.816 45.4599C165.982 46.2964 167.535 46.7146 169.477 46.7146C171.18 46.7146 172.509 46.3113 173.465 45.5047C174.451 44.6981 174.944 43.6973 174.944 42.5023C174.944 41.6658 174.675 40.9787 174.137 40.441C173.6 39.9032 172.912 39.485 172.076 39.1862C171.269 38.8576 170.164 38.5141 168.76 38.1556C166.938 37.6776 165.459 37.1996 164.324 36.7216C163.188 36.2436 162.217 35.5415 161.411 34.6154C160.634 33.6595 160.246 32.3898 160.246 30.8064C160.246 29.6115 160.604 28.5061 161.321 27.4904C162.038 26.4746 163.054 25.668 164.368 25.0705C165.683 24.4731 167.177 24.1743 168.849 24.1743C171.478 24.1743 173.6 24.8465 175.213 26.1908C176.826 27.5053 177.692 29.3277 177.812 31.6579H174.675C174.585 30.2239 174.018 29.0737 172.972 28.2074C171.956 27.3111 170.552 26.863 168.76 26.863C167.177 26.863 165.892 27.2364 164.906 27.9833C163.92 28.7302 163.427 29.6563 163.427 30.7616C163.427 31.7176 163.711 32.5093 164.279 33.1367C164.876 33.7341 165.608 34.2121 166.474 34.5706C167.341 34.8992 168.506 35.2727 169.97 35.6909C171.732 36.1689 173.136 36.632 174.182 37.0801C175.228 37.5282 176.124 38.1854 176.871 39.0518C177.618 39.9182 178.006 41.0683 178.036 42.5023C178.036 43.8168 177.677 44.9968 176.96 46.0424C176.243 47.0582 175.243 47.8648 173.958 48.4623C172.673 49.0597 171.195 49.3585 169.522 49.3585ZM188.018 27.1767V42.3679C188.018 43.8616 188.302 44.8923 188.87 45.4599C189.437 46.0275 190.438 46.3113 191.872 46.3113H194.74V49H191.379C189.169 49 187.525 48.4921 186.45 47.4764C185.375 46.4308 184.837 44.7279 184.837 42.3679V27.1767H181.431V24.5328H184.837V18.3936H188.018V24.5328H194.74V27.1767H188.018ZM222.05 35.5117C222.05 36.5872 222.021 37.4087 221.961 37.9763H201.661C201.751 39.8285 202.199 41.4119 203.005 42.7264C203.812 44.0408 204.873 45.0416 206.187 45.7287C207.502 46.386 208.936 46.7146 210.489 46.7146C212.52 46.7146 214.223 46.2217 215.598 45.2358C217.002 44.25 217.928 42.9205 218.376 41.2476H221.692C221.094 43.6375 219.81 45.5943 217.838 47.1179C215.896 48.6116 213.447 49.3585 210.489 49.3585C208.189 49.3585 206.127 48.8506 204.305 47.8349C202.483 46.7893 201.049 45.3254 200.003 43.4433C198.987 41.5314 198.479 39.3057 198.479 36.7664C198.479 34.2271 198.987 32.0014 200.003 30.0895C201.019 28.1775 202.438 26.7136 204.26 25.6979C206.083 24.6822 208.159 24.1743 210.489 24.1743C212.819 24.1743 214.851 24.6822 216.583 25.6979C218.346 26.7136 219.69 28.0879 220.616 29.8206C221.572 31.5234 222.05 33.4205 222.05 35.5117ZM218.869 35.4221C218.899 33.5997 218.525 32.0462 217.749 30.7616C217.002 29.477 215.971 28.5061 214.657 27.8489C213.342 27.1916 211.908 26.863 210.355 26.863C208.024 26.863 206.038 27.6099 204.395 29.1036C202.752 30.5973 201.84 32.7035 201.661 35.4221H218.869ZM237.891 19.6931V16.87H245.509V49H242.327V19.6931H237.891ZM252.499 32.6437C252.499 27.5053 253.291 23.5171 254.874 20.679C256.457 17.8409 259.295 16.4219 263.388 16.4219C267.481 16.4219 270.319 17.8409 271.902 20.679C273.486 23.5171 274.277 27.5053 274.277 32.6437C274.277 37.8718 273.486 41.9197 271.902 44.7877C270.319 47.6556 267.481 49.0896 263.388 49.0896C259.266 49.0896 256.412 47.6556 254.829 44.7877C253.276 41.9197 252.499 37.8718 252.499 32.6437ZM271.185 32.6437C271.185 29.8654 270.991 27.5203 270.603 25.6083C270.215 23.6963 269.453 22.1578 268.317 20.9927C267.182 19.8276 265.539 19.245 263.388 19.245C261.237 19.245 259.594 19.8276 258.459 20.9927C257.324 22.1578 256.562 23.6963 256.174 25.6083C255.785 27.5203 255.591 29.8654 255.591 32.6437C255.591 35.5117 255.785 37.9166 256.174 39.8584C256.562 41.7704 257.324 43.3089 258.459 44.474C259.594 45.6391 261.237 46.2217 263.388 46.2217C265.539 46.2217 267.182 45.6391 268.317 44.474C269.453 43.3089 270.215 41.7704 270.603 39.8584C270.991 37.9166 271.185 35.5117 271.185 32.6437ZM291.648 36.7216C291.648 34.2121 292.141 32.0164 293.126 30.1343C294.142 28.2223 295.531 26.7585 297.294 25.7427C299.086 24.6971 301.103 24.1743 303.343 24.1743C305.674 24.1743 307.675 24.7121 309.348 25.7875C311.051 26.863 312.276 28.2372 313.023 29.9102V24.5328H316.16V49H313.023V43.5778C312.246 45.2508 311.006 46.6399 309.303 47.7453C307.63 48.8208 305.629 49.3585 303.299 49.3585C301.088 49.3585 299.086 48.8357 297.294 47.7901C295.531 46.7445 294.142 45.2657 293.126 43.3537C292.141 41.4418 291.648 39.231 291.648 36.7216ZM313.023 36.7664C313.023 34.7947 312.619 33.062 311.813 31.5682C311.006 30.0745 309.901 28.9244 308.497 28.1177C307.123 27.3111 305.599 26.9078 303.926 26.9078C302.193 26.9078 300.64 27.2962 299.266 28.0729C297.891 28.8497 296.801 29.9849 295.994 31.4786C295.218 32.9425 294.829 34.6901 294.829 36.7216C294.829 38.7232 295.218 40.4858 295.994 42.0094C296.801 43.5031 297.891 44.6533 299.266 45.4599C300.64 46.2366 302.193 46.625 303.926 46.625C305.599 46.625 307.123 46.2217 308.497 45.4151C309.901 44.6085 311.006 43.4583 311.813 41.9646C312.619 40.4708 313.023 38.7381 313.023 36.7664ZM309.259 17.1837C309.259 18.528 308.825 19.6185 307.959 20.4549C307.093 21.2615 306.002 21.6649 304.688 21.6649C303.403 21.6649 302.313 21.2615 301.417 20.4549C300.55 19.6185 300.117 18.528 300.117 17.1837C300.117 15.8393 300.55 14.7638 301.417 13.9572C302.313 13.1208 303.403 12.7025 304.688 12.7025C306.002 12.7025 307.093 13.1208 307.959 13.9572C308.825 14.7638 309.259 15.8393 309.259 17.1837ZM307.332 17.1837C307.332 16.3472 307.078 15.69 306.57 15.212C306.062 14.7041 305.435 14.4502 304.688 14.4502C303.941 14.4502 303.314 14.7041 302.806 15.212C302.328 15.69 302.089 16.3472 302.089 17.1837C302.089 17.9903 302.328 18.6475 302.806 19.1554C303.314 19.6633 303.941 19.9172 304.688 19.9172C305.435 19.9172 306.062 19.6633 306.57 19.1554C307.078 18.6475 307.332 17.9903 307.332 17.1837ZM326.458 28.8795C327.145 27.3559 328.19 26.1759 329.594 25.3394C331.028 24.5029 332.776 24.0847 334.837 24.0847V27.3559H333.986C331.715 27.3559 329.893 27.9684 328.519 29.1932C327.145 30.4181 326.458 32.4645 326.458 35.3324V49H323.321V24.5328H326.458V28.8795Z" fill="#C9A788"/>
<path d="M51.797 156.382V154.798L62.6713 140.16H65.1509V154.559H68.3475V156.382H65.1509V161.46H63.0896V156.382H51.797ZM63.1792 142.46L54.2168 154.559H63.1792V142.46ZM78.334 144.91C79.8675 144.91 81.2019 145.268 82.3371 145.985C83.4724 146.702 84.2889 147.609 84.7868 148.704V145.149H86.8781V161.879C86.8781 163.372 86.5494 164.697 85.8922 165.852C85.2549 167.007 84.3586 167.893 83.2035 168.511C82.0483 169.148 80.7339 169.467 79.2601 169.467C77.1688 169.467 75.4262 168.969 74.032 167.973C72.6578 166.977 71.8014 165.623 71.4628 163.91H73.5242C73.8827 165.045 74.5598 165.952 75.5556 166.629C76.5714 167.306 77.8062 167.644 79.2601 167.644C80.3156 167.644 81.2617 167.415 82.0981 166.957C82.9346 166.519 83.5919 165.862 84.0699 164.986C84.5478 164.109 84.7868 163.074 84.7868 161.879V157.846C84.269 158.961 83.4425 159.887 82.3073 160.624C81.1919 161.341 79.8675 161.699 78.334 161.699C76.8402 161.699 75.4959 161.351 74.3009 160.654C73.1258 159.957 72.1997 158.971 71.5226 157.696C70.8653 156.422 70.5367 154.948 70.5367 153.275C70.5367 151.602 70.8653 150.138 71.5226 148.883C72.1997 147.609 73.1258 146.633 74.3009 145.956C75.4959 145.259 76.8402 144.91 78.334 144.91ZM84.7868 153.305C84.7868 151.99 84.518 150.835 83.9802 149.839C83.4425 148.843 82.7056 148.077 81.7695 147.539C80.8534 147.001 79.8376 146.732 78.7223 146.732C77.5672 146.732 76.5315 146.991 75.6154 147.509C74.6992 148.027 73.9723 148.784 73.4345 149.78C72.9167 150.755 72.6578 151.921 72.6578 153.275C72.6578 154.609 72.9167 155.784 73.4345 156.8C73.9723 157.796 74.6992 158.563 75.6154 159.1C76.5315 159.618 77.5672 159.877 78.7223 159.877C79.8376 159.877 80.8534 159.608 81.7695 159.07C82.7056 158.533 83.4425 157.766 83.9802 156.77C84.518 155.774 84.7868 154.619 84.7868 153.305ZM98.8941 151.004C98.8941 148.953 99.3422 147.121 100.238 145.507C101.135 143.874 102.36 142.61 103.913 141.713C105.467 140.797 107.199 140.339 109.111 140.339C111.441 140.339 113.433 140.897 115.086 142.012C116.759 143.108 117.974 144.661 118.731 146.673H116.281C115.684 145.259 114.767 144.153 113.533 143.357C112.318 142.56 110.844 142.162 109.111 142.162C107.578 142.162 106.193 142.52 104.959 143.237C103.744 143.954 102.788 144.99 102.091 146.344C101.394 147.678 101.045 149.232 101.045 151.004C101.045 152.777 101.394 154.33 102.091 155.665C102.788 156.999 103.744 158.025 104.959 158.742C106.193 159.459 107.578 159.817 109.111 159.817C110.844 159.817 112.318 159.429 113.533 158.652C114.767 157.856 115.684 156.76 116.281 155.366H118.731C117.974 157.358 116.759 158.901 115.086 159.997C113.413 161.092 111.421 161.64 109.111 161.64C107.199 161.64 105.467 161.192 103.913 160.295C102.36 159.379 101.135 158.115 100.238 156.501C99.3422 154.888 98.8941 153.056 98.8941 151.004ZM132.278 161.67C130.347 161.67 128.594 161.221 127.02 160.325C125.447 159.409 124.202 158.144 123.286 156.531C122.39 154.898 121.942 153.056 121.942 151.004C121.942 148.953 122.39 147.121 123.286 145.507C124.202 143.874 125.447 142.61 127.02 141.713C128.594 140.797 130.347 140.339 132.278 140.339C134.23 140.339 135.993 140.797 137.566 141.713C139.14 142.61 140.374 143.874 141.271 145.507C142.167 147.121 142.615 148.953 142.615 151.004C142.615 153.056 142.167 154.898 141.271 156.531C140.374 158.144 139.14 159.409 137.566 160.325C135.993 161.221 134.23 161.67 132.278 161.67ZM132.278 159.847C133.832 159.847 135.226 159.489 136.461 158.772C137.696 158.055 138.672 157.029 139.389 155.695C140.106 154.34 140.464 152.777 140.464 151.004C140.464 149.232 140.106 147.678 139.389 146.344C138.672 145.01 137.696 143.984 136.461 143.267C135.226 142.55 133.832 142.191 132.278 142.191C130.725 142.191 129.331 142.55 128.096 143.267C126.861 143.984 125.885 145.01 125.168 146.344C124.451 147.678 124.093 149.232 124.093 151.004C124.093 152.777 124.451 154.34 125.168 155.695C125.885 157.029 126.861 158.055 128.096 158.772C129.331 159.489 130.725 159.847 132.278 159.847ZM145.575 159.817C149.24 157.069 152.068 154.609 154.059 152.438C156.071 150.248 157.077 148.107 157.077 146.015C157.077 144.641 156.728 143.546 156.031 142.729C155.354 141.893 154.239 141.474 152.685 141.474C151.172 141.474 149.997 141.952 149.16 142.908C148.343 143.844 147.885 145.099 147.786 146.673H145.754C145.874 144.462 146.551 142.749 147.786 141.534C149.041 140.299 150.674 139.682 152.685 139.682C154.617 139.682 156.181 140.23 157.376 141.325C158.57 142.401 159.168 143.934 159.168 145.926C159.168 148.336 158.162 150.676 156.151 152.946C154.159 155.197 151.699 157.398 148.772 159.548H159.825V161.311H145.575V159.817ZM187.061 146.463V148.256H171.825V146.463H187.061ZM187.061 152.558V154.32H171.825V152.558H187.061ZM211.982 145.268C211.544 142.679 210.04 141.385 207.471 141.385C205.519 141.385 204.056 142.142 203.08 143.655C202.104 145.169 201.656 147.648 201.735 151.094C202.134 149.899 202.891 148.963 204.006 148.286C205.141 147.589 206.436 147.24 207.89 147.24C209.981 147.24 211.634 147.887 212.849 149.182C214.084 150.457 214.701 152.219 214.701 154.47C214.701 155.784 214.442 156.979 213.924 158.055C213.426 159.11 212.65 159.957 211.594 160.594C210.558 161.231 209.264 161.55 207.71 161.55C204.743 161.55 202.691 160.604 201.556 158.712C200.441 156.82 199.883 154.141 199.883 150.676C199.883 143.307 202.413 139.622 207.471 139.622C209.383 139.622 210.887 140.15 211.982 141.206C213.078 142.241 213.725 143.596 213.924 145.268H211.982ZM207.501 149.033C206.565 149.033 205.679 149.222 204.842 149.6C204.006 149.979 203.319 150.556 202.781 151.333C202.263 152.09 202.004 153.026 202.004 154.141C202.004 155.754 202.482 157.099 203.438 158.174C204.394 159.25 205.788 159.787 207.621 159.787C209.154 159.787 210.379 159.319 211.295 158.383C212.211 157.447 212.669 156.173 212.669 154.559C212.669 152.827 212.221 151.472 211.325 150.497C210.429 149.521 209.154 149.033 207.501 149.033ZM246.527 144.85C248.439 144.85 249.992 145.458 251.187 146.673C252.402 147.868 253.01 149.61 253.01 151.901V161.46H250.948V152.14C250.948 150.367 250.52 149.013 249.664 148.077C248.807 147.141 247.642 146.673 246.168 146.673C244.635 146.673 243.41 147.18 242.494 148.196C241.578 149.212 241.12 150.686 241.12 152.618V161.46H239.058V152.14C239.058 150.367 238.63 149.013 237.774 148.077C236.917 147.141 235.742 146.673 234.248 146.673C232.715 146.673 231.49 147.18 230.574 148.196C229.658 149.212 229.2 150.686 229.2 152.618V161.46H227.108V145.149H229.2V147.957C229.717 146.941 230.454 146.175 231.41 145.657C232.366 145.119 233.432 144.85 234.607 144.85C236.021 144.85 237.256 145.189 238.311 145.866C239.387 146.543 240.164 147.539 240.642 148.853C241.08 147.559 241.827 146.573 242.882 145.896C243.958 145.199 245.172 144.85 246.527 144.85ZM258.699 142.072C258.281 142.072 257.923 141.923 257.624 141.624C257.325 141.325 257.176 140.957 257.176 140.518C257.176 140.08 257.325 139.722 257.624 139.443C257.923 139.144 258.281 138.995 258.699 138.995C259.118 138.995 259.476 139.144 259.775 139.443C260.074 139.722 260.223 140.08 260.223 140.518C260.223 140.957 260.074 141.325 259.775 141.624C259.476 141.923 259.118 142.072 258.699 142.072ZM259.745 145.149V161.46H257.654V145.149H259.745ZM272.129 144.85C274.08 144.85 275.674 145.458 276.908 146.673C278.143 147.868 278.761 149.61 278.761 151.901V161.46H276.699V152.14C276.699 150.367 276.251 149.013 275.355 148.077C274.479 147.141 273.274 146.673 271.74 146.673C270.167 146.673 268.912 147.17 267.976 148.166C267.04 149.162 266.572 150.626 266.572 152.558V161.46H264.481V145.149H266.572V147.927C267.09 146.931 267.837 146.175 268.812 145.657C269.788 145.119 270.894 144.85 272.129 144.85ZM283.744 161.61C283.306 161.61 282.937 161.46 282.639 161.162C282.36 160.863 282.22 160.495 282.22 160.056C282.22 159.618 282.36 159.26 282.639 158.981C282.937 158.682 283.306 158.533 283.744 158.533C284.162 158.533 284.511 158.682 284.79 158.981C285.088 159.26 285.238 159.618 285.238 160.056C285.238 160.495 285.088 160.863 284.79 161.162C284.511 161.46 284.162 161.61 283.744 161.61ZM299.101 139.353V161.46H297.01V139.353H299.101ZM317.28 145.149L307.601 169.138H305.42L308.587 161.371L301.895 145.149H304.195L309.752 159.07L315.129 145.149H317.28ZM325.732 161.699C323.86 161.699 322.327 161.271 321.132 160.415C319.957 159.539 319.299 158.354 319.16 156.86H321.311C321.411 157.776 321.839 158.523 322.596 159.1C323.372 159.658 324.408 159.937 325.703 159.937C326.838 159.937 327.724 159.668 328.361 159.13C329.019 158.592 329.347 157.925 329.347 157.129C329.347 156.571 329.168 156.113 328.81 155.754C328.451 155.396 327.993 155.117 327.435 154.918C326.898 154.699 326.161 154.47 325.225 154.231C324.01 153.912 323.024 153.594 322.267 153.275C321.51 152.956 320.863 152.488 320.325 151.871C319.807 151.233 319.548 150.387 319.548 149.331C319.548 148.535 319.787 147.798 320.265 147.121C320.743 146.444 321.421 145.906 322.297 145.507C323.173 145.109 324.169 144.91 325.284 144.91C327.037 144.91 328.451 145.358 329.526 146.254C330.602 147.131 331.18 148.346 331.259 149.899H329.168C329.108 148.943 328.73 148.176 328.033 147.599C327.356 147.001 326.42 146.702 325.225 146.702C324.169 146.702 323.313 146.951 322.655 147.449C321.998 147.947 321.67 148.565 321.67 149.302C321.67 149.939 321.859 150.467 322.237 150.885C322.635 151.283 323.123 151.602 323.701 151.841C324.279 152.06 325.055 152.309 326.031 152.588C327.206 152.906 328.142 153.215 328.839 153.514C329.536 153.813 330.134 154.251 330.632 154.828C331.13 155.406 331.389 156.173 331.409 157.129C331.409 158.005 331.17 158.792 330.692 159.489C330.214 160.166 329.546 160.704 328.69 161.102C327.834 161.5 326.848 161.699 325.732 161.699Z" fill="#C9A788"/>
<g clip-path="url(#clip0_261_467)">
<g opacity="0.5">
<path d="M277.946 207.361C274.29 216.071 263.048 217.449 253.962 221.897C244.565 226.494 234.651 213.751 236.15 203.2C237.653 192.65 248.915 185.514 261.306 187.264C273.698 189.01 282.044 197.596 277.946 207.361Z" fill="#FFFDB6"/>
</g>
<path d="M271.443 207.498C271.443 212.314 265.79 217.873 263.99 219.521C263.45 220.017 263.057 220.652 262.858 221.356C262.285 223.379 261.833 226.449 257.356 226.449C250.25 226.449 251.2 222.636 250.123 219.88C249.344 217.889 243.269 213.308 243.269 207.498C243.269 199.753 249.576 193.474 257.356 193.474C265.136 193.474 271.443 199.753 271.443 207.498Z" fill="#FFEAB5"/>
<path d="M261.542 223.865H252.028C251.326 223.865 250.758 224.43 250.758 225.127C250.758 225.825 251.326 226.39 252.028 226.39H261.542C262.243 226.39 262.812 225.825 262.812 225.127C262.812 224.43 262.243 223.865 261.542 223.865Z" fill="#CCCCCC"/>
<path d="M250.758 225.129H262.812V226.116C262.812 226.967 262.118 227.654 261.267 227.654H252.303C251.448 227.654 250.758 226.963 250.758 226.116V225.129Z" fill="#B3B3B3"/>
<path d="M252.188 226.879H261.385C261.473 226.879 261.545 226.95 261.545 227.038V227.341C261.545 228.808 260.351 230 258.875 230H254.528C253.147 230 252.028 228.883 252.028 227.511V227.042C252.028 226.954 252.1 226.882 252.188 226.882V226.879Z" fill="#B3B3B3"/>
<path d="M254.538 223.669C254.957 221.189 255.297 218.7 255.654 216.211C255.935 214.243 256.423 212.024 255.523 210.141C255.134 209.326 254.299 208.459 253.304 208.648C252.41 208.818 251.949 209.785 252.005 210.626C252.155 212.9 254.849 213.252 256.633 213.021C257.601 212.894 258.515 212.516 259.123 211.727C259.791 210.867 260.063 209.717 260.416 208.707C260.717 207.85 261.434 206.494 260.55 205.739C259.824 205.116 258.842 205.634 258.459 206.374C257.965 207.329 257.873 208.466 258.403 209.411C258.904 210.303 259.532 211.232 260.429 211.77C261.261 212.268 262.452 212.412 263.205 211.685C263.813 211.102 263.908 209.899 263.1 209.427C261.866 208.707 261.13 210.545 260.891 211.395C260.524 212.689 260.321 214.044 260.086 215.367C259.598 218.094 259.532 220.89 258.567 223.513C258.348 224.102 259.297 224.36 259.513 223.773C260.158 222.027 260.4 220.241 260.612 218.404C260.825 216.566 261.195 214.683 261.565 212.838C261.715 212.083 261.837 211.02 262.38 210.424C262.616 210.167 262.746 210.349 262.707 210.649C262.661 210.975 262.324 211.164 262.023 211.206C261.211 211.32 260.491 210.678 260.027 210.098C259.562 209.518 258.956 208.743 259.015 207.984C259.038 207.687 259.3 206.185 259.876 206.459C260.148 206.589 259.919 207.153 259.856 207.342C259.709 207.788 259.545 208.231 259.392 208.674C259.12 209.453 258.907 210.336 258.433 211.024C258.01 211.636 257.336 211.929 256.619 212.043C255.444 212.232 253.16 212.223 252.987 210.626C252.915 209.974 253.373 209.31 254.031 209.782C254.6 210.189 254.849 210.958 254.967 211.613C255.281 213.376 254.8 215.292 254.551 217.035C254.247 219.163 253.949 221.291 253.592 223.412C253.487 224.027 254.433 224.291 254.538 223.672V223.669Z" fill="#666666"/>
<path d="M252.028 227.654H261.545C261.545 227.654 261.938 230 260.105 230C258.272 230 252.028 227.654 252.028 227.654Z" fill="#999999"/>
<path d="M261.545 194.106C261.545 194.106 268.985 195.892 271.443 204.412C273.305 210.874 264.966 218.622 264.966 218.622C264.966 218.622 263.309 220.101 262.144 223.643C261.679 225.051 261.83 219.31 267.253 213.138C269.901 210.124 269.191 206.534 268.851 204.412C268.104 199.753 261.545 194.106 261.545 194.106Z" fill="#FFDF8C"/>
<path d="M247.72 201.913C246.814 201.373 246.703 200.108 247.488 199.401C249.147 197.909 251.37 196.332 251.962 197.081L252.172 198.072C252.293 198.636 252.204 199.225 251.929 199.734C251.311 200.874 250.214 201.913 249.239 202.216C248.787 202.357 248.215 202.207 247.724 201.913H247.72Z" fill="#FFFFE1"/>
</g>
<g clip-path="url(#clip1_261_467)">
<path d="M145.093 179H65.9075C64.3017 179 63 180.293 63 181.887V226.798C63 228.392 64.3017 229.685 65.9075 229.685H145.093C146.698 229.685 148 228.392 148 226.798V181.887C148 180.293 146.698 179 145.093 179Z" fill="#E6E6E6"/>
<path d="M64.5828 179H146.414C147.289 179 147.997 179.703 147.997 180.572V222.67H63V180.572C63 179.703 63.708 179 64.5828 179Z" fill="#384A30"/>
<path d="M114.97 238.475H95.9862C95.5456 238.475 95.2341 238.053 95.3631 237.634L97.8395 229.682H112.969L115.621 237.566C115.772 238.009 115.439 238.472 114.964 238.472L114.97 238.475Z" fill="#CCCCCC"/>
<path d="M97.8678 229.685H112.972L115.527 237.134C115.527 237.134 116.178 238.791 114.344 238.475L97.8678 229.685Z" fill="#B3B3B3"/>
<path d="M66.134 180.934H144.869C145.744 180.934 146.452 181.637 146.452 182.506V222.673H64.5481V182.506C64.5481 181.637 65.2561 180.934 66.1309 180.934H66.134Z" fill="#D9D9D9"/>
<path d="M94.7149 237.444H116.156C116.744 237.444 117.223 237.919 117.223 238.503V238.891C117.223 238.95 117.176 238.997 117.116 238.997H93.6419C93.5821 238.997 93.5349 238.95 93.5349 238.891V238.616C93.5349 237.969 94.0635 237.444 94.7149 237.444Z" fill="#CCCCCC"/>
<path d="M130.281 229.685H134.413C134.413 230.257 133.947 230.719 133.371 230.719H131.326C130.75 230.719 130.284 230.257 130.284 229.685H130.281Z" fill="#999999"/>
<path d="M66.1246 180.934H144.866C145.728 180.934 146.427 181.628 146.427 182.484V185.775H64.5481V182.497C64.5481 181.634 65.2529 180.934 66.1214 180.934H66.1246Z" fill="#4D6F3D"/>
<path d="M68.1007 182.225H67.0969C66.6538 182.225 66.2946 182.582 66.2946 183.022V184.019C66.2946 184.459 66.6538 184.815 67.0969 184.815H68.1007C68.5439 184.815 68.9031 184.459 68.9031 184.019V183.022C68.9031 182.582 68.5439 182.225 68.1007 182.225Z" fill="white"/>
<path d="M76.3638 186.84H66.8767C66.2528 186.84 65.7471 187.343 65.7471 187.962V220.46C65.7471 221.08 66.2528 221.582 66.8767 221.582H76.3638C76.9877 221.582 77.4935 221.08 77.4935 220.46V187.962C77.4935 187.343 76.9877 186.84 76.3638 186.84Z" fill="white"/>
<path d="M69.0888 187.518H67.6507C66.9869 187.518 66.4487 188.053 66.4487 188.712V190.14C66.4487 190.799 66.9869 191.334 67.6507 191.334H69.0888C69.7526 191.334 70.2908 190.799 70.2908 190.14V188.712C70.2908 188.053 69.7526 187.518 69.0888 187.518Z" fill="#CCCCCC"/>
<path d="M71.9996 192.677L66.4427 192.718L66.452 193.967L72.0088 193.927L71.9996 192.677Z" fill="#CCCCCC"/>
<path d="M74.3388 196.252L66.4724 196.308L66.4792 197.246L74.3455 197.19L74.3388 196.252Z" fill="#CCCCCC"/>
<path d="M75.7191 198.274L66.4902 198.339L66.497 199.277L75.7258 199.211L75.7191 198.274Z" fill="#CCCCCC"/>
<path d="M72.8577 200.319L66.5017 200.364L66.5085 201.301L72.8645 201.256L72.8577 200.319Z" fill="#CCCCCC"/>
<path d="M126.666 192.48H88.5413C87.9174 192.48 87.4116 192.983 87.4116 193.602V213.145C87.4116 213.765 87.9174 214.267 88.5413 214.267H126.666C127.29 214.267 127.796 213.765 127.796 213.145V193.602C127.796 192.983 127.29 192.48 126.666 192.48Z" fill="white"/>
<path opacity="0.1" d="M136.103 179H146.414C147.289 179 148 179.706 148 180.575V226.666C148 228.335 146.637 229.688 144.957 229.688H136.103V179Z" fill="#1A1A1A"/>
<path d="M91.197 199.624H78.4531V200.561H91.197V199.624Z" fill="#CCCCCC"/>
<path d="M99.2933 202.905H83.1857V203.842H99.2933V202.905Z" fill="#CCCCCC"/>
<path d="M91.348 206.186H80.426V207.123H91.348V206.186Z" fill="#CCCCCC"/>
<path d="M107.6 201.23C107.087 201.23 87.4084 212.82 87.4084 213.329C87.4084 213.848 87.8301 214.267 88.3524 214.267H126.864C127.377 214.267 127.792 213.854 127.792 213.345C127.792 212.836 108.113 201.23 107.6 201.23Z" fill="#F2F2F2"/>
<path d="M107.6 205.517C107.087 205.517 87.4084 193.927 87.4084 193.418C87.4084 192.899 87.8301 192.48 88.3524 192.48H126.864C127.377 192.48 127.792 192.893 127.792 193.402C127.792 193.912 108.113 205.517 107.6 205.517Z" fill="#E6E6E6"/>
</g>
<g clip-path="url(#clip2_261_467)">
<path d="M341.363 80H14.6366C12.0759 80 10 82.7382 10 86.1159V97.8841C10 101.262 12.0759 104 14.6366 104H341.363C343.924 104 346 101.262 346 97.8841V86.1159C346 82.7382 343.924 80 341.363 80Z" fill="#4D6F3D"/>
<path d="M13.9176 104C11.8582 104 10.1813 101.814 10.1581 99.097L10.0538 86.3249C10.0229 82.8439 12.1557 80 14.7947 80H24.9528L13.9176 104Z" fill="#445A3A"/>
<path d="M329.606 104H13.8832L24.9145 80H338.164L329.606 104Z" fill="#445A3A"/>
<path d="M160.114 96.4161C160.605 96.4161 160.953 96.1307 161.158 95.5548C161.362 94.9789 161.463 94.0462 161.463 92.7466C161.258 93.1237 160.98 93.4193 160.628 93.6283C160.277 93.8372 159.882 93.9392 159.446 93.9392C158.851 93.9392 158.325 93.7761 157.862 93.455C157.398 93.1288 157.035 92.6497 156.768 92.0075C156.505 91.3654 156.37 90.5856 156.37 89.6682C156.37 88.7508 156.513 87.9761 156.795 87.3034C157.077 86.6306 157.483 86.1108 158.005 85.7438C158.53 85.3768 159.148 85.1934 159.863 85.1934C161.235 85.1934 162.197 85.754 162.742 86.8803C163.29 88.0067 163.561 89.6631 163.561 91.8546C163.561 93.4448 163.453 94.7546 163.232 95.7892C163.016 96.8239 162.649 97.6087 162.135 98.149C161.621 98.6892 160.918 98.9542 160.029 98.9542C159.326 98.9542 158.723 98.7708 158.229 98.4038C157.734 98.0369 157.352 97.5527 157.089 96.9564C156.826 96.355 156.675 95.6975 156.637 94.9738H158.835C158.974 95.9421 159.399 96.4212 160.114 96.4212V96.4161ZM160.922 90.9933C161.154 90.6824 161.27 90.2543 161.27 89.7192C161.27 89.133 161.15 88.6794 160.906 88.3635C160.667 88.0475 160.342 87.8844 159.933 87.8844C159.523 87.8844 159.202 88.0475 158.967 88.3686C158.731 88.6947 158.611 89.1381 158.611 89.6988C158.611 90.2237 158.731 90.6518 158.967 90.9729C159.202 91.2991 159.542 91.4571 159.991 91.4571C160.381 91.4571 160.69 91.2991 160.922 90.9882V90.9933Z" fill="#F2F2F2"/>
<path d="M168.669 96.4161C169.16 96.4161 169.507 96.1307 169.712 95.5548C169.917 94.9789 170.017 94.0462 170.017 92.7466C169.813 93.1237 169.534 93.4193 169.183 93.6283C168.831 93.8372 168.437 93.9392 168 93.9392C167.405 93.9392 166.88 93.7761 166.416 93.455C165.953 93.1288 165.589 92.6497 165.323 92.0075C165.06 91.3654 164.925 90.5856 164.925 89.6682C164.925 88.7508 165.068 87.9761 165.35 87.3034C165.632 86.6306 166.038 86.1108 166.559 85.7438C167.085 85.3768 167.703 85.1934 168.418 85.1934C169.789 85.1934 170.751 85.754 171.296 86.8803C171.845 88.0067 172.115 89.6631 172.115 91.8546C172.115 93.4448 172.007 94.7546 171.787 95.7892C171.571 96.8239 171.204 97.6087 170.69 98.149C170.176 98.6892 169.473 98.9542 168.584 98.9542C167.881 98.9542 167.278 98.7708 166.783 98.4038C166.289 98.0369 165.906 97.5527 165.643 96.9564C165.381 96.355 165.23 95.6975 165.191 94.9738H167.39C167.529 95.9421 167.954 96.4212 168.669 96.4212V96.4161ZM169.476 90.9933C169.708 90.6824 169.824 90.2543 169.824 89.7192C169.824 89.133 169.704 88.6794 169.461 88.3635C169.221 88.0475 168.897 87.8844 168.487 87.8844C168.078 87.8844 167.757 88.0475 167.521 88.3686C167.286 88.6947 167.166 89.1381 167.166 89.6988C167.166 90.2237 167.286 90.6518 167.521 90.9729C167.757 91.2991 168.097 91.4571 168.545 91.4571C168.935 91.4571 169.245 91.2991 169.476 90.9882V90.9933Z" fill="#F2F2F2"/>
<path d="M173.835 86.5797C174.268 86.0394 174.824 85.7744 175.512 85.7744C176.2 85.7744 176.756 86.0445 177.181 86.5797C177.606 87.1199 177.822 87.8844 177.822 88.8732C177.822 89.8619 177.61 90.6264 177.181 91.1666C176.756 91.7069 176.2 91.9719 175.512 91.9719C174.824 91.9719 174.268 91.7018 173.835 91.1666C173.402 90.6315 173.19 89.8619 173.19 88.8732C173.19 87.8844 173.406 87.1199 173.835 86.5797ZM174.832 88.8732C174.832 89.7039 175.056 90.1218 175.5 90.1218C175.713 90.1218 175.879 90.0199 176.002 89.8109C176.126 89.602 176.184 89.2911 176.184 88.8732C176.184 88.0271 175.956 87.6092 175.504 87.6092C175.052 87.6092 174.836 88.0322 174.836 88.8732H174.832ZM182.633 85.9732L177.278 98.888H174.982L180.338 85.9732H182.633ZM180.45 93.6997C180.875 93.1594 181.431 92.8944 182.119 92.8944C182.807 92.8944 183.363 93.1645 183.788 93.6997C184.213 94.2399 184.43 95.0044 184.43 95.9931C184.43 96.9819 184.217 97.7464 183.788 98.2866C183.363 98.8269 182.807 99.0919 182.119 99.0919C181.431 99.0919 180.875 98.8218 180.45 98.2866C180.025 97.7464 179.808 96.9819 179.808 95.9931C179.808 95.0044 180.021 94.2399 180.45 93.6997ZM181.613 95.0401C181.497 95.249 181.439 95.565 181.439 95.9931C181.439 96.8239 181.663 97.2418 182.107 97.2418C182.32 97.2418 182.486 97.1399 182.61 96.9309C182.729 96.722 182.791 96.4111 182.791 95.9931C182.791 95.5752 182.729 95.2643 182.61 95.0503C182.49 94.8362 182.324 94.7292 182.107 94.7292C181.891 94.7292 181.729 94.8311 181.613 95.0401Z" fill="#F2F2F2"/>
</g>
<defs>
<clipPath id="clip0_261_467">
<rect width="43" height="43" fill="white" transform="translate(236 187)"/>
</clipPath>
<clipPath id="clip1_261_467">
<rect width="85" height="60" fill="white" transform="translate(63 179)"/>
</clipPath>
<clipPath id="clip2_261_467">
<rect width="336" height="24" fill="white" transform="translate(10 80)"/>
</clipPath>
</defs>
</svg>
