<svg width="198" height="180" viewBox="0 0 198 180" fill="none" xmlns="http://www.w3.org/2000/svg">
<g clip-path="url(#clip0_229_7909)">
<path opacity="0.5" d="M184.985 49.3825C161.585 1.40601 103.834 -14.3177 55.9896 14.2604C8.1499 42.8433 -20.5778 117.506 21.9289 134.945C63.0557 151.822 96.6772 185.881 142.168 170.549C193.173 153.352 208.389 97.359 184.99 49.3825H184.985Z" fill="#4D6F3D"/>
<path d="M146.761 152.623H164.417V176.492C164.417 178.241 162.994 179.662 161.242 179.662H150.155C148.284 179.662 146.761 178.146 146.761 176.273V152.623Z" fill="#736357"/>
<path d="M198 169.786H113.349L131.626 129.078H178.31L198 169.786Z" fill="#4D6F3D"/>
<path d="M194.944 152.285H114.653L131.994 116.109H176.272L194.944 152.285Z" fill="#4D6F3D"/>
<path d="M191.249 132.824H116.018L144.135 96.2723H162.13L191.249 132.824Z" fill="#4D6F3D"/>
<path d="M185.343 117.253H121.924L145.629 86.4397H160.798L185.343 117.253Z" fill="#4D6F3D"/>
<path d="M175.594 98.7222H131.411L152.891 69.9916L175.594 98.7222Z" fill="#4D6F3D"/>
<path opacity="0.5" d="M146.751 169.81L164.407 169.762L164.417 174.281C164.417 174.309 164.417 174.281 164.45 176.187C164.464 177.164 164.331 177.836 163.949 178.513C163.061 180.081 159.986 179.886 158.735 178.975L146.751 169.815V169.81Z" fill="#534741"/>
<path d="M33.4161 152.952H51.0719V176.821C51.0719 178.57 49.6492 179.991 47.897 179.991H36.8108C34.9392 179.991 33.4161 178.475 33.4161 176.602V152.952Z" fill="#736357"/>
<path d="M84.6505 170.115H0L18.2813 129.407H64.9655L84.6505 170.115Z" fill="#4D6F3D"/>
<path d="M81.5949 152.614H1.30823L18.6441 116.438H62.9269L81.5949 152.614Z" fill="#4D6F3D"/>
<path d="M77.8995 133.153H2.67371L30.7903 96.6012H48.7851L77.8995 133.153Z" fill="#4D6F3D"/>
<path d="M71.9934 117.582H8.57959L32.2798 86.7686H47.4481L71.9934 117.582Z" fill="#4D6F3D"/>
<path d="M62.2441 99.051H18.0616L39.5465 70.3204L62.2441 99.051Z" fill="#4D6F3D"/>
<path opacity="0.5" d="M33.4066 170.139L51.0624 170.091L51.072 174.61C51.072 174.638 51.072 174.61 51.1054 176.516C51.1197 177.493 50.986 178.165 50.6041 178.842C49.716 180.41 46.6413 180.215 45.3904 179.304L33.4066 170.144V170.139Z" fill="#534741"/>
<path d="M89.3103 145.879H110.829V175.663C110.829 177.412 109.406 178.832 107.654 178.832H92.7049C90.8333 178.832 89.3103 177.317 89.3103 175.443V145.879Z" fill="#736357"/>
<path d="M151.76 166.802H48.5797L70.8619 117.182H127.763L151.76 166.802Z" fill="#445A3A"/>
<path d="M148.036 145.469H50.1743L71.3059 101.372H125.276L148.036 145.469Z" fill="#445A3A"/>
<path d="M143.533 121.752H51.8358L86.1066 77.198H108.04L143.533 121.752Z" fill="#445A3A"/>
<path d="M136.334 102.769H59.0356L87.9257 65.2111H106.417L136.334 102.769Z" fill="#445A3A"/>
<path d="M124.45 80.1816H70.5946L96.7823 45.1644L124.45 80.1816Z" fill="#445A3A"/>
<path opacity="0.5" d="M89.296 166.826L110.819 166.764L110.833 172.274C110.833 172.312 110.833 172.274 110.872 174.6C110.891 175.791 110.728 176.611 110.261 177.436C109.177 179.342 105.429 179.109 103.906 177.998L89.296 166.831V166.826Z" fill="#534741"/>
<path d="M58.1334 66.7743C59.5335 66.7743 60.6686 65.6412 60.6686 64.2435C60.6686 62.8457 59.5335 61.7126 58.1334 61.7126C56.7332 61.7126 55.5981 62.8457 55.5981 64.2435C55.5981 65.6412 56.7332 66.7743 58.1334 66.7743Z" fill="#1A1A1A"/>
<path d="M63.3326 61.2837C60.6685 58.5289 56.2092 58.4955 53.3971 61.2075L50.0836 57.7758C54.796 53.2384 62.2775 53.329 66.7702 57.9712L63.3326 61.2837Z" fill="#1A1A1A"/>
<path d="M47.959 55.793L44.278 52.757C47.4911 48.8773 52.1939 46.642 57.5222 46.4656C62.7454 46.2893 67.9495 48.1242 72.194 51.6274L69.1527 55.3021C65.8106 52.5425 61.7285 51.0936 57.6798 51.2318C53.7361 51.3605 50.2842 52.981 47.9543 55.7978L47.959 55.793Z" fill="#1A1A1A"/>
<path d="M42.2441 50.7122L38.563 47.6762C43.0939 42.2046 49.6444 38.9731 57.0066 38.5727C64.3019 38.1771 71.5304 40.6127 77.3743 45.4313L74.333 49.106C69.4201 45.0548 63.3613 43.0005 57.2692 43.3342C51.2486 43.663 45.9156 46.2844 42.2441 50.717V50.7122Z" fill="#1A1A1A"/>
</g>
<defs>
<clipPath id="clip0_229_7909">
<rect width="198" height="180" fill="white"/>
</clipPath>
</defs>
</svg>
