<svg width="276" height="236" viewBox="0 0 276 236" fill="none" xmlns="http://www.w3.org/2000/svg">
<path d="M166.218 158.157H182.806V180.597C182.806 182.241 181.469 183.577 179.823 183.577H169.408C167.649 183.577 166.218 182.152 166.218 180.391V158.157Z" fill="#736357"/>
<path d="M214.353 174.29H134.824L151.999 136.019H195.859L214.353 174.29Z" fill="#4D6F3D"/>
<path opacity="0.5" d="M197.185 52.6746C172.243 1.4997 110.682 -15.2722 59.6823 15.2111C8.6874 45.6995 -21.935 125.339 23.3751 143.941C67.2145 161.944 103.053 198.274 151.544 181.918C205.913 163.576 222.133 103.85 197.19 52.6746H197.185Z" fill="#4D6F3D"/>
<path d="M102.711 151.193H125.649V182.963C125.649 184.829 124.132 186.344 122.264 186.344H106.33C104.335 186.344 102.711 184.727 102.711 182.729V151.193Z" fill="#736357"/>
<path d="M169.279 173.512H59.2942L83.046 120.583H143.7L169.279 173.512Z" fill="#445A3A"/>
<path d="M165.31 150.756H60.994L83.5193 103.719H141.049L165.31 150.756Z" fill="#445A3A"/>
<path d="M160.51 125.458H62.7651L99.2962 77.9337H122.676L160.51 125.458Z" fill="#445A3A"/>
<path d="M152.836 105.209H70.4398L101.235 65.1477H120.946L152.836 105.209Z" fill="#445A3A"/>
<path d="M140.168 81.1163H82.761L110.676 43.7646L140.168 81.1163Z" fill="#445A3A"/>
<path opacity="0.5" d="M102.353 173.713L125.296 173.647L125.311 179.524C125.311 179.565 125.311 179.524 125.352 182.005C125.372 183.276 125.199 184.15 124.7 185.03C123.545 187.063 119.55 186.814 117.926 185.63L102.353 173.718V173.713Z" fill="#534741"/>
<path d="M61.9674 71.2259C63.4599 71.2259 64.6699 70.0173 64.6699 68.5264C64.6699 67.0354 63.4599 65.8268 61.9674 65.8268C60.4749 65.8268 59.265 67.0354 59.265 68.5264C59.265 70.0173 60.4749 71.2259 61.9674 71.2259Z" fill="#1A1A1A"/>
<path d="M67.5097 65.3692C64.6698 62.4306 59.9164 62.3951 56.9188 65.2878L53.3868 61.6274C58.41 56.7875 66.3849 56.8841 71.174 61.8358L67.5097 65.3692Z" fill="#1A1A1A"/>
<path d="M51.1222 59.5126L47.1983 56.2741C50.6234 52.1358 55.6364 49.7514 61.3161 49.5633C66.8838 49.3752 72.4311 51.3325 76.9555 55.0692L73.7136 58.9889C70.1511 56.0453 65.7997 54.4998 61.484 54.6472C57.2802 54.7845 53.6007 56.513 51.1171 59.5177L51.1222 59.5126Z" fill="#1A1A1A"/>
<path d="M45.0302 54.093L41.1064 50.8546C45.9361 45.0182 52.9187 41.5713 60.7664 41.1442C68.5429 40.7223 76.2481 43.3202 82.4774 48.46L79.2355 52.3797C73.9986 48.0584 67.5403 45.8672 61.0463 46.2231C54.6287 46.5739 48.9439 49.3701 45.0302 54.0981V54.093Z" fill="#1A1A1A"/>
<g clip-path="url(#clip0_288_2505)">
<path d="M44.0317 182.118H41.6437V72.9206C41.6437 72.4128 42.1599 72 42.7983 72H42.9124C43.5291 72 44.029 72.3992 44.029 72.888V182.115L44.0317 182.118Z" fill="#534741"/>
<path d="M61.2561 89.6569V89.684C61.2996 90.1158 61.1284 90.4851 60.8296 90.6128L53.4237 93.752C52.5054 94.1403 51.5681 93.7954 50.9269 92.8314L42.638 80.3451C42.5457 80.2772 42.6 79.8535 42.7576 79.4027L42.7847 79.3213C42.9369 78.8841 43.1325 78.5854 43.2194 78.6505L51.5871 91.0011C52.0816 91.7289 52.7961 91.9896 53.497 91.699L60.3569 88.8476C60.7372 88.6901 61.2018 89.1083 61.2534 89.6569H61.2561Z" fill="#534741"/>
<path d="M23.9194 90.341V90.3682C23.8705 90.8027 24.039 91.172 24.3433 91.2969L31.8497 94.3791C32.7816 94.762 33.7379 94.4036 34.4008 93.4287L42.9641 80.7876C43.0592 80.717 43.0075 80.2933 42.8527 79.8398L42.8255 79.7583C42.6761 79.3211 42.4805 79.0224 42.3881 79.0903L33.7488 91.5957C33.238 92.3316 32.5099 92.6031 31.7981 92.318L24.8431 89.5182C24.4574 89.3634 23.9819 89.7898 23.9222 90.341H23.9194Z" fill="#534741"/>
<path d="M69.0805 110.176L69.0886 110.203C69.2299 110.646 69.0886 111.045 68.73 111.208L59.8543 115.213C58.754 115.71 57.4771 115.447 56.4529 114.515L43.2004 102.445C43.0673 102.382 43.0483 101.939 43.1597 101.459L43.1787 101.372C43.2846 100.905 43.4721 100.576 43.5998 100.636L56.9256 112.557C57.7107 113.261 58.6833 113.459 59.5255 113.084L67.7601 109.434C68.2165 109.234 68.9012 109.619 69.0805 110.181V110.176Z" fill="#534741"/>
<path d="M17.084 109.597L17.0758 109.625C16.9346 110.067 17.0758 110.466 17.4344 110.629L26.3102 114.635C27.4105 115.132 28.6874 114.868 29.7116 113.937L42.964 101.866C43.0972 101.804 43.1162 101.361 43.0048 100.88L42.9858 100.793C42.8798 100.326 42.6924 99.9978 42.5647 100.058L29.2389 111.979C28.4537 112.682 27.4811 112.881 26.6389 112.506L18.4043 108.856C17.9479 108.655 17.2633 109.041 17.084 109.603V109.597Z" fill="#534741"/>
<path d="M77.66 139.564L77.6736 139.594C77.891 140.072 77.7307 140.463 77.2743 140.58L65.9399 143.431C64.5353 143.784 62.8427 143.328 61.4381 142.217L43.2547 127.833C43.0781 127.749 43.0211 127.29 43.1325 126.806L43.1515 126.719C43.2574 126.252 43.4802 125.94 43.6514 126.019L61.919 140.259C62.9949 141.098 64.2826 141.443 65.3585 141.18L75.8806 138.603C76.4619 138.459 77.3856 138.959 77.66 139.564Z" fill="#534741"/>
<path d="M8.67279 139.472L8.65921 139.502C8.44187 139.98 8.60216 140.371 9.05858 140.487L20.393 143.339C21.7976 143.692 23.4901 143.236 24.8947 142.125L43.0781 127.74C43.2547 127.656 43.3118 127.197 43.2004 126.714L43.1814 126.627C43.0754 126.16 42.8526 125.848 42.6815 125.926L24.4138 140.167C23.338 141.006 22.0502 141.351 20.9744 141.088L10.4523 138.51C9.87089 138.367 8.94719 138.866 8.67279 139.472Z" fill="#534741"/>
<path d="M82.4497 167.885L82.466 167.918C82.7295 168.417 82.5611 168.803 82.0395 168.89L69.1755 171.022C67.5808 171.285 65.6328 170.709 63.9919 169.487L42.7412 153.664C42.5348 153.568 42.4587 153.099 42.5674 152.615L42.5864 152.528C42.6923 152.061 42.9369 151.757 43.1379 151.852L64.4782 167.535C65.7361 168.461 67.2194 168.895 68.4393 168.7L80.3823 166.791C81.0424 166.685 82.1156 167.252 82.447 167.885H82.4497Z" fill="#534741"/>
<path d="M2.96209 167.692L2.94579 167.725C2.68226 168.225 2.8507 168.61 3.37232 168.697L16.2363 170.829C17.831 171.092 19.779 170.517 21.4199 169.295L42.6706 153.471C42.877 153.376 42.9531 152.906 42.8444 152.423L42.8254 152.336C42.7195 151.869 42.475 151.564 42.2739 151.659L20.9336 167.342C19.6757 168.268 18.1924 168.703 16.9725 168.507L5.02956 166.598C4.36938 166.492 3.29625 167.06 2.9648 167.692H2.96209Z" fill="#534741"/>
<path d="M69.4472 119.919L69.4554 119.947C69.5966 120.389 69.4554 120.788 69.0968 120.951L60.221 124.957C59.1207 125.454 57.8439 125.19 56.8196 124.259L43.5672 112.188C43.434 112.126 43.415 111.683 43.5264 111.202L43.5454 111.115C43.6514 110.648 43.8388 110.32 43.9665 110.38L57.2923 122.301C58.0775 123.004 59.0501 123.203 59.8923 122.828L68.1269 119.178C68.5833 118.977 69.2679 119.363 69.4472 119.925V119.919Z" fill="#534741"/>
<path d="M17.6301 126.388L17.6219 126.415C17.4806 126.858 17.6219 127.257 17.9805 127.42L26.8563 131.425C27.9565 131.922 29.2334 131.659 30.2577 130.728L43.5101 118.657C43.6432 118.594 43.6623 118.152 43.5509 117.671L43.5319 117.584C43.4259 117.117 43.2384 116.788 43.1108 116.848L29.7849 128.77C28.9998 129.473 28.0272 129.671 27.185 129.296L18.9504 125.647C18.494 125.446 17.8094 125.831 17.6301 126.393V126.388Z" fill="#534741"/>
<path d="M77.5949 155.45L77.6084 155.48C77.8258 155.958 77.6655 156.349 77.2091 156.466L65.8747 159.317C64.4701 159.67 62.7775 159.214 61.373 158.104L43.1895 143.719C43.0129 143.635 42.9559 143.176 43.0673 142.692L43.0863 142.606C43.1923 142.139 43.415 141.826 43.5862 141.905L61.8538 156.146C62.9297 156.985 64.2174 157.33 65.2933 157.066L75.8154 154.489C76.3968 154.345 77.3205 154.845 77.5949 155.45Z" fill="#534741"/>
<path d="M7.96375 150.942L7.95016 150.972C7.73282 151.45 7.89311 151.841 8.34953 151.958L19.6839 154.809C21.0885 155.162 22.7811 154.706 24.1856 153.596L42.3691 139.211C42.5457 139.127 42.6027 138.668 42.4913 138.185L42.4723 138.098C42.3664 137.631 42.1436 137.318 41.9724 137.397L23.7048 151.638C22.6289 152.477 21.3412 152.822 20.2653 152.558L9.74324 149.981C9.16185 149.837 8.23814 150.337 7.96375 150.942Z" fill="#534741"/>
<path d="M60.9192 99.1831V99.2103C60.9627 99.642 60.7915 100.011 60.4927 100.139L53.0867 103.278C52.1685 103.667 51.2312 103.322 50.59 102.358L42.3011 89.8713C42.2088 89.8034 42.2631 89.3798 42.4207 88.929L42.4478 88.8475C42.6 88.4103 42.7956 88.1116 42.8825 88.1768L51.2502 100.527C51.7447 101.255 52.4592 101.516 53.1601 101.225L60.02 98.3739C60.4003 98.2164 60.8649 98.6346 60.9165 99.1831H60.9192Z" fill="#534741"/>
<path d="M24.1476 97.3718V97.399C24.1042 97.8308 24.2753 98.2001 24.5742 98.3277L31.9801 101.467C32.8984 101.855 33.8357 101.51 34.4768 100.546L42.7657 88.06C42.8581 87.9921 42.8038 87.5685 42.6462 87.1177L42.619 87.0362C42.4669 86.599 42.2713 86.3003 42.1843 86.3655L33.8167 98.716C33.3222 99.4438 32.6077 99.7045 31.9068 99.414L25.0469 96.5626C24.6665 96.4051 24.202 96.8233 24.1503 97.3718H24.1476Z" fill="#534741"/>
</g>
<path d="M45.5707 72.7917L42.1833 72.3398L37.089 183.445L39.7626 181.762L42.5574 185.558L44.3287 182.033L46.3984 184.196L45.5707 72.7917Z" fill="#534741"/>
<g clip-path="url(#clip1_288_2505)">
<path d="M85.6787 196.235H83.2906V87.0381C83.2906 86.5303 83.8068 86.1176 84.4453 86.1176H84.5594C85.1761 86.1176 85.676 86.5167 85.676 87.0056V196.232L85.6787 196.235Z" fill="#534741"/>
<path d="M102.903 103.774V103.802C102.947 104.233 102.775 104.603 102.477 104.73L95.0707 107.87C94.1524 108.258 93.2151 107.913 92.574 106.949L84.2851 94.4626C84.1927 94.3947 84.247 93.9711 84.4046 93.5203L84.4318 93.4388C84.5839 93.0016 84.7795 92.7029 84.8665 92.7681L93.2341 105.119C93.7286 105.846 94.4431 106.107 95.144 105.817L102.004 102.965C102.384 102.808 102.849 103.226 102.9 103.774H102.903Z" fill="#534741"/>
<path d="M65.5664 104.459V104.486C65.5175 104.92 65.686 105.29 65.9902 105.415L73.4967 108.497C74.4286 108.88 75.3849 108.521 76.0478 107.546L84.6111 94.9052C84.7061 94.8346 84.6545 94.411 84.4997 93.9575L84.4725 93.876C84.3231 93.4388 84.1275 93.1401 84.0351 93.208L75.3957 105.713C74.885 106.449 74.1569 106.721 73.4451 106.436L66.4901 103.636C66.1043 103.481 65.6289 103.907 65.5691 104.459H65.5664Z" fill="#534741"/>
<path d="M110.727 124.294L110.736 124.321C110.877 124.763 110.736 125.162 110.377 125.325L101.501 129.331C100.401 129.828 99.1241 129.564 98.0998 128.633L84.8474 116.562C84.7143 116.5 84.6952 116.057 84.8066 115.576L84.8256 115.49C84.9316 115.022 85.1191 114.694 85.2467 114.754L98.5726 126.675C99.3577 127.378 100.33 127.577 101.173 127.202L109.407 123.552C109.864 123.351 110.548 123.737 110.727 124.299V124.294Z" fill="#534741"/>
<path d="M58.731 123.715L58.7229 123.742C58.5816 124.185 58.7229 124.584 59.0815 124.747L67.9572 128.752C69.0575 129.249 70.3344 128.986 71.3586 128.055L84.6111 115.984C84.7442 115.921 84.7632 115.479 84.6518 114.998L84.6328 114.911C84.5269 114.444 84.3394 114.115 84.2117 114.175L70.8859 126.097C70.1007 126.8 69.1281 126.998 68.2859 126.623L60.0514 122.974C59.595 122.773 58.9103 123.158 58.731 123.72V123.715Z" fill="#534741"/>
<path d="M119.307 153.682L119.321 153.712C119.538 154.19 119.378 154.581 118.921 154.697L107.587 157.549C106.182 157.902 104.49 157.446 103.085 156.335L84.9018 141.95C84.7252 141.866 84.6681 141.407 84.7795 140.924L84.7985 140.837C84.9045 140.37 85.1273 140.058 85.2984 140.136L103.566 154.377C104.642 155.216 105.93 155.561 107.005 155.298L117.528 152.721C118.109 152.577 119.033 153.076 119.307 153.682Z" fill="#534741"/>
<path d="M50.3198 153.589L50.3062 153.619C50.0889 154.097 50.2492 154.488 50.7056 154.605L62.04 157.456C63.4446 157.809 65.1372 157.353 66.5417 156.243L84.7251 141.858C84.9017 141.774 84.9588 141.315 84.8474 140.832L84.8284 140.745C84.7224 140.278 84.4997 139.965 84.3285 140.044L66.0609 154.285C64.985 155.124 63.6973 155.469 62.6214 155.205L52.0993 152.628C51.5179 152.484 50.5942 152.984 50.3198 153.589Z" fill="#534741"/>
<path d="M124.097 182.003L124.113 182.035C124.377 182.535 124.208 182.921 123.686 183.007L110.823 185.139C109.228 185.403 107.28 184.827 105.639 183.605L84.3882 167.781C84.1817 167.686 84.1057 167.216 84.2143 166.733L84.2334 166.646C84.3393 166.179 84.5838 165.875 84.7849 165.97L106.125 181.652C107.383 182.578 108.866 183.013 110.086 182.817L122.029 180.908C122.689 180.802 123.763 181.37 124.094 182.003H124.097Z" fill="#534741"/>
<path d="M44.6091 181.81L44.5928 181.843C44.3293 182.342 44.4977 182.728 45.0194 182.815L57.8833 184.946C59.4781 185.21 61.426 184.634 63.0669 183.412L84.3176 167.588C84.5241 167.493 84.6001 167.023 84.4915 166.54L84.4725 166.453C84.3665 165.986 84.122 165.682 83.921 165.777L62.5806 181.46C61.3228 182.386 59.8394 182.82 58.6196 182.625L46.6766 180.716C46.0164 180.61 44.9433 181.177 44.6118 181.81H44.6091Z" fill="#534741"/>
<path d="M111.094 134.037L111.102 134.064C111.244 134.507 111.102 134.906 110.744 135.069L101.868 139.075C100.768 139.572 99.4908 139.308 98.4666 138.377L85.2141 126.306C85.081 126.243 85.062 125.801 85.1734 125.32L85.1924 125.233C85.2984 124.766 85.4858 124.438 85.6135 124.497L98.9393 136.419C99.7245 137.122 100.697 137.32 101.539 136.946L109.774 133.296C110.23 133.095 110.915 133.48 111.094 134.043V134.037Z" fill="#534741"/>
<path d="M59.277 140.506L59.2689 140.533C59.1276 140.975 59.2689 141.375 59.6275 141.538L68.5032 145.543C69.6035 146.04 70.8804 145.777 71.9046 144.845L85.1571 132.774C85.2902 132.712 85.3092 132.269 85.1978 131.789L85.1788 131.702C85.0729 131.235 84.8854 130.906 84.7577 130.966L71.4319 142.887C70.6468 143.591 69.6742 143.789 68.832 143.414L60.5974 139.764C60.141 139.563 59.4563 139.949 59.277 140.511V140.506Z" fill="#534741"/>
<path d="M119.242 169.568L119.255 169.598C119.473 170.076 119.312 170.467 118.856 170.584L107.522 173.435C106.117 173.788 104.425 173.332 103.02 172.221L84.8365 157.837C84.6599 157.752 84.6029 157.294 84.7143 156.81L84.7333 156.723C84.8392 156.256 85.062 155.944 85.2332 156.023L103.501 170.263C104.577 171.102 105.864 171.447 106.94 171.184L117.462 168.607C118.044 168.463 118.967 168.962 119.242 169.568Z" fill="#534741"/>
<path d="M49.6107 165.06L49.5971 165.09C49.3798 165.568 49.5401 165.959 49.9965 166.076L61.3309 168.927C62.7355 169.28 64.428 168.824 65.8326 167.713L84.016 153.329C84.1926 153.245 84.2497 152.786 84.1383 152.302L84.1193 152.215C84.0133 151.748 83.7906 151.436 83.6194 151.515L65.3518 165.755C64.2759 166.594 62.9882 166.939 61.9123 166.676L51.3902 164.099C50.8088 163.955 49.8851 164.455 49.6107 165.06Z" fill="#534741"/>
<path d="M102.566 113.301V113.328C102.61 113.76 102.439 114.129 102.14 114.257L94.7338 117.396C93.8155 117.784 92.8782 117.439 92.2371 116.475L83.9482 103.989C83.8558 103.921 83.9101 103.497 84.0677 103.047L84.0949 102.965C84.247 102.528 84.4426 102.229 84.5295 102.294L92.8972 114.645C93.3917 115.373 94.1062 115.633 94.8071 115.343L101.667 112.492C102.047 112.334 102.512 112.752 102.564 113.301H102.566Z" fill="#534741"/>
<path d="M65.7947 111.489V111.517C65.7512 111.948 65.9223 112.318 66.2212 112.445L73.6271 115.585C74.5454 115.973 75.4827 115.628 76.1239 114.664L84.4128 102.178C84.5051 102.11 84.4508 101.686 84.2932 101.235L84.2661 101.154C84.1139 100.717 83.9183 100.418 83.8314 100.483L75.4637 112.834C74.9692 113.561 74.2547 113.822 73.5538 113.532L66.6939 110.68C66.3136 110.523 65.849 110.941 65.7974 111.489H65.7947Z" fill="#534741"/>
</g>
<path d="M90.3501 203.294H76.9412L78.8224 194.054C79.1642 192.369 79.3591 190.64 79.4015 188.899L79.5992 180.875L81.3731 182.146L83.4747 180.796L85.3108 182.855L87.9406 180.706L88.0254 187.504C88.0564 190.002 88.305 192.486 88.7626 194.909L90.3529 203.294H90.3501Z" fill="#534741"/>
<path d="M48.7029 196.235H34.5883L36.5685 186.995C36.9283 185.311 37.1335 183.581 37.1781 181.84L37.3862 173.816L39.2535 175.088L41.4657 173.737L43.3984 175.797L46.1666 173.647L46.2558 180.445C46.2885 182.943 46.5502 185.427 47.0319 187.85L48.7059 196.235H48.7029Z" fill="#534741"/>
<path d="M211.482 157.837H136.053L152.34 123.828H193.944L211.482 157.837Z" fill="#4D6F3D"/>
<path d="M208.011 139.545H137.335L163.751 105.181H180.657L208.011 139.545Z" fill="#4D6F3D"/>
<path d="M202.462 124.902H142.884L165.151 95.9336H179.401L202.462 124.902Z" fill="#4D6F3D"/>
<path d="M193.302 107.481H151.793L171.978 80.4706L193.302 107.481Z" fill="#4D6F3D"/>
<path opacity="0.5" d="M166.209 174.314L182.797 174.27L182.806 178.517C182.806 178.544 182.806 178.517 182.837 180.31C182.851 181.228 182.725 181.86 182.366 182.496C181.532 183.971 178.643 183.787 177.468 182.931L166.209 174.319V174.314Z" fill="#534741"/>
<g clip-path="url(#clip2_288_2505)">
<path d="M171.726 209.748H153.882L156.386 200.467C156.841 198.775 157.1 197.037 157.156 195.289L157.419 187.228L159.78 188.506L162.577 187.149L165.02 189.218L168.52 187.059L168.632 193.887C168.674 196.397 169.004 198.891 169.613 201.326L171.73 209.748H171.726Z" fill="#534741"/>
<path d="M271.765 181.777L271.441 179.109L170.168 195.509L172.262 197.243L169.442 200.069L173.002 200.778L171.499 202.752L271.765 181.777Z" fill="#534741"/>
<path d="M249.756 157.745H249.718C249.117 157.783 248.651 158.092 248.538 158.529L245.798 169.344C245.46 170.686 246.129 171.896 247.583 172.574L266.408 181.305C266.521 181.415 267.088 181.253 267.671 180.944L267.776 180.887C268.34 180.586 268.712 180.254 268.6 180.148L249.944 171.281C248.843 170.758 248.335 169.834 248.587 168.813L251.049 158.808C251.184 158.254 250.515 157.704 249.752 157.749L249.756 157.745Z" fill="#534741"/>
<path d="M221.12 153.216L221.079 153.208C220.444 153.106 219.929 153.385 219.782 153.913L216.166 166.925C215.719 168.538 216.346 170.234 217.835 171.443L237.133 187.071C237.246 187.241 237.855 187.173 238.494 186.92L238.611 186.875C239.227 186.634 239.641 186.302 239.532 186.14L220.421 170.385C219.294 169.454 218.82 168.161 219.154 166.929L222.421 154.87C222.601 154.203 221.929 153.344 221.124 153.216H221.12Z" fill="#534741"/>
<path d="M188.331 148.306L188.286 148.295C187.587 148.099 187.083 148.396 187.023 149.052L185.504 165.192C185.316 167.193 186.294 169.417 188.109 171.109L211.61 193.01C211.761 193.236 212.4 193.214 213.039 192.965L213.155 192.92C213.772 192.679 214.155 192.302 214.008 192.087L190.688 170.042C189.312 168.742 188.572 167.05 188.707 165.52L190.023 150.552C190.094 149.723 189.218 148.562 188.335 148.314L188.331 148.306Z" fill="#534741"/>
<path d="M170.991 148.444L170.946 148.429C170.224 148.21 169.732 148.519 169.702 149.209L168.954 166.234C168.86 168.345 169.965 170.707 171.893 172.524L196.849 196.023C197.014 196.265 197.661 196.253 198.3 195.997L198.416 195.952C199.033 195.703 199.401 195.315 199.243 195.085L174.461 171.435C172.998 170.04 172.164 168.239 172.224 166.626L172.825 150.833C172.859 149.959 171.912 148.719 170.999 148.444H170.991Z" fill="#534741"/>
<path d="M254.601 202.79L254.564 202.801C253.985 202.963 253.451 202.899 253.21 202.635L247.294 196.169C246.561 195.366 246.82 194.341 247.982 193.433L263.048 181.698C263.119 181.589 263.705 181.521 264.352 181.551H264.469C265.093 181.585 265.544 181.694 265.472 181.8L250.609 193.572C249.733 194.266 249.538 195.05 250.091 195.664L255.492 201.671C255.793 202.002 255.327 202.583 254.598 202.786L254.601 202.79Z" fill="#534741"/>
<path d="M229.176 214.995L229.142 215.01C228.574 215.278 228.003 215.248 227.702 214.935L220.286 207.255C219.365 206.302 219.436 204.96 220.47 203.683L233.856 187.139C233.908 186.992 234.506 186.849 235.183 186.819H235.307C235.964 186.789 236.453 186.883 236.401 187.026L223.229 203.6C222.451 204.576 222.402 205.597 223.098 206.328L229.89 213.473C230.266 213.868 229.894 214.656 229.176 214.991V214.995Z" fill="#534741"/>
<path d="M197.33 230.157L197.292 230.18C196.691 230.53 196.127 230.481 195.868 230.059L189.463 219.613C188.669 218.317 188.906 216.512 190.098 214.805L205.513 192.718C205.585 192.519 206.197 192.334 206.874 192.308H206.998C207.656 192.277 208.13 192.409 208.058 192.601L192.853 214.733C191.959 216.037 191.778 217.413 192.376 218.404L198.228 228.119C198.552 228.657 198.086 229.713 197.326 230.153L197.33 230.157Z" fill="#534741"/>
<path d="M179.323 235.442L179.286 235.465C178.673 235.834 178.113 235.781 177.872 235.325L171.922 224.039C171.185 222.641 171.497 220.7 172.757 218.876L189.055 195.256C189.138 195.041 189.751 194.849 190.431 194.827H190.555C191.209 194.8 191.679 194.947 191.6 195.154L175.512 218.824C174.565 220.218 174.328 221.695 174.884 222.769L180.316 233.264C180.616 233.844 180.105 234.975 179.331 235.446L179.323 235.442Z" fill="#534741"/>
<path d="M236.63 159.551H236.592C235.991 159.589 235.525 159.898 235.412 160.335L232.672 171.15C232.333 172.492 233.002 173.702 234.457 174.38L253.282 183.111C253.395 183.221 253.962 183.059 254.545 182.75L254.65 182.693C255.214 182.392 255.586 182.06 255.473 181.954L236.818 173.087C235.716 172.564 235.209 171.64 235.461 170.619L237.923 160.614C238.058 160.06 237.389 159.51 236.626 159.555L236.63 159.551Z" fill="#534741"/>
<path d="M239.457 209.889L239.419 209.896C238.825 210.002 238.299 209.806 238.092 209.406L232.927 199.522C232.288 198.297 232.66 196.963 233.92 195.968L250.218 183.103C250.305 182.967 250.891 182.994 251.53 183.163L251.647 183.194C252.267 183.356 252.703 183.589 252.62 183.721L236.521 196.677C235.57 197.442 235.292 198.459 235.773 199.394L240.479 208.559C240.738 209.067 240.212 209.757 239.464 209.889H239.457Z" fill="#534741"/>
<path d="M207.671 154.771L207.63 154.763C206.994 154.662 206.479 154.94 206.333 155.468L202.717 168.48C202.269 170.093 202.897 171.789 204.386 172.999L223.684 188.626C223.797 188.796 224.406 188.728 225.045 188.475L225.161 188.43C225.778 188.189 226.191 187.857 226.082 187.695L206.972 171.94C205.844 171.009 205.37 169.716 205.705 168.484L208.971 156.425C209.152 155.758 208.479 154.899 207.675 154.771H207.671Z" fill="#534741"/>
<path d="M208.524 222.59L208.483 222.598C207.848 222.699 207.333 222.421 207.186 221.893L203.57 208.881C203.123 207.268 203.75 205.572 205.239 204.362L224.537 188.735C224.65 188.565 225.259 188.633 225.898 188.886L226.015 188.931C226.631 189.172 227.044 189.504 226.935 189.666L207.825 205.421C206.697 206.352 206.224 207.645 206.558 208.877L209.825 220.936C210.005 221.603 209.332 222.462 208.528 222.59H208.524Z" fill="#534741"/>
</g>
<path d="M87.2178 86.9092L83.8304 86.4574L78.7361 197.562L81.4097 195.88L84.2045 199.675L85.9758 196.151L88.0455 198.314L87.2178 86.9092Z" fill="#534741"/>
<defs>
<clipPath id="clip0_288_2505">
<rect width="79.7647" height="110.118" fill="white" transform="translate(2.82355 72)"/>
</clipPath>
<clipPath id="clip1_288_2505">
<rect width="79.7647" height="110.118" fill="white" transform="translate(44.4706 86.1176)"/>
</clipPath>
<clipPath id="clip2_288_2505">
<rect width="122.824" height="84.7059" fill="white" transform="translate(153.176 151.059)"/>
</clipPath>
</defs>
</svg>
