<svg width="353" height="209" viewBox="0 0 353 209" fill="none" xmlns="http://www.w3.org/2000/svg">
<g clip-path="url(#clip0_206_1324)">
<path opacity="0.5" d="M346.217 120.312C319.615 166.705 227.62 169.808 154.596 190.632C79.107 212.154 -7.60979 138.209 0.529841 80.857C8.67654 23.505 98.5234 -11.2178 201.216 3.30174C303.908 17.8213 376.048 68.2837 346.217 120.305V120.312Z" fill="#445A3A"/>
<path d="M127.712 70.7007C127.712 70.7007 132.474 21.5217 162.263 34.7579C192.051 48.0011 181.241 70.7007 181.241 70.7007H127.719H127.712Z" fill="#1A1A1A"/>
<path d="M135.357 34.1107C134.042 34.5338 140.013 37.5167 138.543 40.6547C137.816 42.2061 144.57 39.4912 142.352 38.2289C139.264 36.473 140.811 30.1899 140.084 31.7342C138.769 34.5267 137.349 33.4619 135.357 34.1107Z" fill="#1A1A1A"/>
<path d="M89.5642 49.3064L80.4848 53.467L77.6374 47.3531L86.6108 43.0586L89.5642 49.3064Z" fill="#B13634" stroke="#B13634" stroke-miterlimit="10"/>
<path d="M82.6845 46.3626C85.3779 45.1142 87.3068 43.5554 86.9929 42.8807C86.6789 42.206 84.2411 42.6711 81.5477 43.9194C78.8544 45.1677 76.9255 46.7266 77.2394 47.4013C77.5533 48.0759 79.9912 47.6109 82.6845 46.3626Z" fill="#B2B2B2"/>
<path d="M83.4224 44.8939C84.3497 44.4641 85.0041 43.9067 84.8841 43.6488C84.7642 43.391 83.9152 43.5303 82.9879 43.9601C82.0606 44.3899 81.4062 44.9473 81.5262 45.2052C81.6462 45.463 82.4951 45.3237 83.4224 44.8939Z" fill="#808080"/>
<path d="M83.8144 42.7812L83.2848 43.6893C83.2024 43.8307 83.2504 44.012 83.3921 44.0943L83.734 44.2929C83.8757 44.3752 84.0573 44.3273 84.1398 44.1859L84.6694 43.2778C84.7518 43.1365 84.7038 42.9552 84.5621 42.8729L84.2202 42.6742C84.0785 42.592 83.8969 42.6399 83.8144 42.7812Z" fill="#666666"/>
<path d="M221.353 41.1541L212.266 45.3076L209.426 39.2008L218.392 34.9062L221.353 41.1541Z" fill="#B13634" stroke="#B13634" stroke-miterlimit="10"/>
<path d="M214.466 38.2141C217.159 36.9658 219.088 35.4069 218.774 34.7323C218.46 34.0576 216.023 34.5226 213.329 35.771C210.636 37.0193 208.707 38.5782 209.021 39.2528C209.335 39.9275 211.773 39.4624 214.466 38.2141Z" fill="#B2B2B2"/>
<path d="M215.204 36.7454C216.131 36.3157 216.786 35.7582 216.666 35.5004C216.546 35.2425 215.697 35.3819 214.769 35.8117C213.842 36.2414 213.188 36.7989 213.308 37.0567C213.428 37.3146 214.277 37.1752 215.204 36.7454Z" fill="#808080"/>
<path d="M215.605 34.625L215.075 35.5331C214.993 35.6745 215.041 35.8558 215.182 35.938L215.524 36.1367C215.666 36.219 215.847 36.1711 215.93 36.0297L216.459 35.1216C216.542 34.9802 216.494 34.7989 216.352 34.7166L216.01 34.518C215.869 34.4357 215.687 34.4836 215.605 34.625Z" fill="#666666"/>
<path d="M111.008 42.7435L120.632 45.9521L122.646 38.6817L113.114 35.2969L111.008 42.7435Z" fill="#1E4C9A" stroke="#1E4C9A" stroke-miterlimit="10"/>
<path d="M123.052 38.6905C123.325 37.9027 121.234 36.4675 118.383 35.4849C115.532 34.5023 112.999 34.3444 112.727 35.1322C112.454 35.92 114.545 37.3552 117.396 38.3378C120.247 39.3204 122.779 39.4783 123.052 38.6905Z" fill="#B2B2B2"/>
<path d="M118.478 36.9079C118.582 36.6098 117.871 36.0931 116.89 35.7538C115.909 35.4145 115.03 35.381 114.927 35.6791C114.823 35.9771 115.534 36.4938 116.515 36.8332C117.496 37.1725 118.375 37.2059 118.478 36.9079Z" fill="#808080"/>
<path d="M116.152 36.2206L116.463 35.9456C116.59 35.8327 116.619 35.6212 116.513 35.4731L115.863 34.5423C115.764 34.3942 115.573 34.373 115.446 34.4859L115.135 34.7609C115.008 34.8737 114.979 35.0853 115.085 35.2333L115.735 36.1642C115.834 36.3123 116.025 36.3334 116.152 36.2206Z" fill="#666666"/>
<path d="M311.666 177.281H247.729V90.9672C247.729 88.8799 249.064 87.1875 250.718 87.1875H284.795C286.491 87.1875 288.095 88.1606 289.162 89.8319L308.437 120.147C310.528 123.441 311.673 127.545 311.673 131.776V177.281H311.666Z" fill="#6C925C"/>
<path d="M287.332 124.649H257.762C256.801 124.649 256.872 124.832 256.886 123.866L256.285 97.4359C256.299 96.2442 257.275 95.2852 258.469 95.2852C266.587 95.2922 266.707 95.2922 268.283 95.2922H278.231C279.461 95.2922 280.634 95.9057 281.404 96.9564C283.29 99.0085 291.168 112.111 294.878 117.223C295.21 117.682 295.217 124.063 295.217 124.656C295.217 124.656 288.427 124.642 287.339 124.642L287.332 124.649Z" fill="#4E88C9" stroke="#596A25" stroke-width="2.5" stroke-miterlimit="10"/>
<path d="M260.772 96.207H266.926L277.398 123.744H270.572L260.772 96.207Z" fill="#C1D9F3"/>
<path d="M253.078 87.2718C253.078 87.2718 245.107 85.7415 245.376 94.2177V177.28H251.269C251.269 177.28 249.17 87.1871 253.078 87.2718Z" fill="#596A25"/>
<path d="M256.278 130.719V157.515" stroke="#596A25" stroke-miterlimit="10"/>
<path d="M296.122 130.719L282.697 153.926" stroke="#596A25" stroke-miterlimit="10"/>
<path d="M258.787 130.719H265.11V130.902C265.11 132.242 264.022 133.335 262.673 133.335H261.408C259.959 133.335 258.787 132.164 258.787 130.719Z" fill="#596A25"/>
<path d="M280.69 208.303C294.219 208.303 305.187 197.357 305.187 183.855C305.187 170.352 294.219 159.406 280.69 159.406C267.161 159.406 256.193 170.352 256.193 183.855C256.193 197.357 267.161 208.303 280.69 208.303Z" fill="#333333"/>
<path d="M280.69 200.624C289.97 200.624 297.492 193.116 297.492 183.855C297.492 174.594 289.97 167.086 280.69 167.086C271.411 167.086 263.888 174.594 263.888 183.855C263.888 193.116 271.411 200.624 280.69 200.624Z" fill="#4D4D4D"/>
<path d="M280.69 194.468C286.563 194.468 291.324 189.716 291.324 183.855C291.324 177.994 286.563 173.242 280.69 173.242C274.817 173.242 270.056 177.994 270.056 183.855C270.056 189.716 274.817 194.468 280.69 194.468Z" fill="#808080"/>
<path d="M280.528 188.72C283.22 188.72 285.403 186.541 285.403 183.854C285.403 181.167 283.22 178.988 280.528 178.988C277.835 178.988 275.652 181.167 275.652 183.854C275.652 186.541 277.835 188.72 280.528 188.72Z" fill="#B3B3B3"/>
<path d="M280.69 176.689C281.236 176.689 281.679 176.247 281.679 175.702C281.679 175.157 281.236 174.715 280.69 174.715C280.144 174.715 279.701 175.157 279.701 175.702C279.701 176.247 280.144 176.689 280.69 176.689Z" fill="#1A1A1A"/>
<path d="M280.69 193.389C281.236 193.389 281.679 192.947 281.679 192.401C281.679 191.856 281.236 191.414 280.69 191.414C280.144 191.414 279.701 191.856 279.701 192.401C279.701 192.947 280.144 193.389 280.69 193.389Z" fill="#1A1A1A"/>
<path d="M272.31 185.139C272.857 185.139 273.299 184.697 273.299 184.151C273.299 183.606 272.857 183.164 272.31 183.164C271.764 183.164 271.321 183.606 271.321 184.151C271.321 184.697 271.764 185.139 272.31 185.139Z" fill="#1A1A1A"/>
<path d="M289.091 185.139C289.637 185.139 290.08 184.697 290.08 184.151C290.08 183.606 289.637 183.164 289.091 183.164C288.545 183.164 288.102 183.606 288.102 184.151C288.102 184.697 288.545 185.139 289.091 185.139Z" fill="#1A1A1A"/>
<path d="M273.589 181.209C274.135 181.209 274.578 180.767 274.578 180.222C274.578 179.676 274.135 179.234 273.589 179.234C273.043 179.234 272.6 179.676 272.6 180.222C272.6 180.767 273.043 181.209 273.589 181.209Z" fill="#1A1A1A"/>
<path d="M276.366 178.08C276.912 178.08 277.355 177.638 277.355 177.093C277.355 176.547 276.912 176.105 276.366 176.105C275.82 176.105 275.377 176.547 275.377 177.093C275.377 177.638 275.82 178.08 276.366 178.08Z" fill="#1A1A1A"/>
<path d="M288.102 181.209C288.648 181.209 289.091 180.767 289.091 180.222C289.091 179.676 288.648 179.234 288.102 179.234C287.556 179.234 287.113 179.676 287.113 180.222C287.113 180.767 287.556 181.209 288.102 181.209Z" fill="#1A1A1A"/>
<path d="M284.838 178.08C285.384 178.08 285.827 177.638 285.827 177.093C285.827 176.547 285.384 176.105 284.838 176.105C284.291 176.105 283.848 176.547 283.848 177.093C283.848 177.638 284.291 178.08 284.838 178.08Z" fill="#1A1A1A"/>
<path d="M273.589 188.912C274.135 188.912 274.578 188.47 274.578 187.925C274.578 187.38 274.135 186.938 273.589 186.938C273.043 186.938 272.6 187.38 272.6 187.925C272.6 188.47 273.043 188.912 273.589 188.912Z" fill="#1A1A1A"/>
<path d="M276.366 192.029C276.912 192.029 277.355 191.587 277.355 191.042C277.355 190.497 276.912 190.055 276.366 190.055C275.82 190.055 275.377 190.497 275.377 191.042C275.377 191.587 275.82 192.029 276.366 192.029Z" fill="#1A1A1A"/>
<path d="M288.102 188.912C288.648 188.912 289.091 188.47 289.091 187.925C289.091 187.38 288.648 186.938 288.102 186.938C287.556 186.938 287.113 187.38 287.113 187.925C287.113 188.47 287.556 188.912 288.102 188.912Z" fill="#1A1A1A"/>
<path d="M284.838 192.029C285.384 192.029 285.827 191.587 285.827 191.042C285.827 190.497 285.384 190.055 284.838 190.055C284.291 190.055 283.848 190.497 283.848 191.042C283.848 191.587 284.291 192.029 284.838 192.029Z" fill="#1A1A1A"/>
<path d="M307.455 131.777H311.666V143.074H308.606C307.815 143.074 307.179 142.433 307.179 141.65V132.059C307.179 131.904 307.306 131.777 307.462 131.777H307.455Z" fill="#E6E6E6"/>
<path d="M307.476 131.777H311.666V135.48H307.172V132.081C307.172 131.911 307.306 131.777 307.476 131.777Z" fill="#C1272D"/>
<path d="M291.409 114.105H292.977C295.514 114.105 297.57 116.158 297.57 118.689V120.544C297.57 123.096 295.493 125.163 292.942 125.163H291.409V114.105Z" fill="#333333"/>
<path d="M36.5435 157.506H236.742V70.6992H70.6848L36.5435 98.0177V157.506Z" fill="#596A25"/>
<path d="M39.3486 154.985H233.378V73.2266H72.43L39.3486 98.9584V154.985Z" fill="#6C925C"/>
<path d="M74.4225 73.2266H72.43V154.992H74.4225V73.2266Z" fill="#596A25"/>
<path d="M111.362 73.2266H109.369V154.992H111.362V73.2266Z" fill="#596A25"/>
<path d="M148.068 73.2266H146.075V154.992H148.068V73.2266Z" fill="#596A25"/>
<path d="M215.771 73.2266H213.778V154.992H215.771V73.2266Z" fill="#596A25"/>
<path d="M183.149 73.2266H181.156V154.992H183.149V73.2266Z" fill="#596A25"/>
<path d="M216.576 73.2266H215.17V154.992H216.576V73.2266Z" fill="#5E8B4B" fill-opacity="0.58"/>
<path d="M149.884 73.2266H148.478V154.992H149.884V73.2266Z" fill="#5E8B4B" fill-opacity="0.58"/>
<path d="M112.768 73.2266H111.362V154.992H112.768V73.2266Z" fill="#5E8B4B" fill-opacity="0.58"/>
<path d="M75.8286 73.2266H74.4225V154.992H75.8286V73.2266Z" fill="#5E8B4B" fill-opacity="0.58"/>
<path d="M245.369 157.516H57.9807V177.282H245.369V157.516Z" fill="#333333"/>
<path d="M57.9807 166.477H45.955V173.472H57.9807V166.477Z" fill="#333333"/>
<path d="M45.4322 165.039H45.955V175.053H45.4675C45.0789 175.053 44.7609 174.735 44.7609 174.347V165.709C44.7609 165.342 45.0647 165.039 45.4322 165.039Z" fill="#333333"/>
<path d="M43.9201 166.991H44.7609V172.732H43.9201C43.5456 172.732 43.2418 172.428 43.2418 172.055V167.661C43.2418 167.288 43.5456 166.984 43.9201 166.984V166.991Z" fill="#C1272D"/>
<path d="M93.5846 208.303C107.114 208.303 118.081 197.357 118.081 183.855C118.081 170.352 107.114 159.406 93.5846 159.406C80.0555 159.406 69.088 170.352 69.088 183.855C69.088 197.357 80.0555 208.303 93.5846 208.303Z" fill="#333333"/>
<path d="M93.5846 200.624C102.864 200.624 110.387 193.116 110.387 183.855C110.387 174.594 102.864 167.086 93.5846 167.086C84.305 167.086 76.7825 174.594 76.7825 183.855C76.7825 193.116 84.305 200.624 93.5846 200.624Z" fill="#4D4D4D"/>
<path d="M93.5846 194.468C99.4575 194.468 104.218 189.716 104.218 183.855C104.218 177.994 99.4575 173.242 93.5846 173.242C87.7117 173.242 82.9508 177.994 82.9508 183.855C82.9508 189.716 87.7117 194.468 93.5846 194.468Z" fill="#808080"/>
<path d="M93.4221 188.72C96.1146 188.72 98.2974 186.541 98.2974 183.854C98.2974 181.167 96.1146 178.988 93.4221 178.988C90.7295 178.988 88.5468 181.167 88.5468 183.854C88.5468 186.541 90.7295 188.72 93.4221 188.72Z" fill="#B3B3B3"/>
<path d="M93.5846 176.689C94.1309 176.689 94.5738 176.247 94.5738 175.702C94.5738 175.157 94.1309 174.715 93.5846 174.715C93.0383 174.715 92.5954 175.157 92.5954 175.702C92.5954 176.247 93.0383 176.689 93.5846 176.689Z" fill="#1A1A1A"/>
<path d="M93.5846 193.389C94.1309 193.389 94.5738 192.947 94.5738 192.401C94.5738 191.856 94.1309 191.414 93.5846 191.414C93.0383 191.414 92.5954 191.856 92.5954 192.401C92.5954 192.947 93.0383 193.389 93.5846 193.389Z" fill="#1A1A1A"/>
<path d="M85.1976 185.139C85.744 185.139 86.1868 184.697 86.1868 184.151C86.1868 183.606 85.744 183.164 85.1976 183.164C84.6513 183.164 84.2085 183.606 84.2085 184.151C84.2085 184.697 84.6513 185.139 85.1976 185.139Z" fill="#1A1A1A"/>
<path d="M101.986 185.139C102.532 185.139 102.975 184.697 102.975 184.151C102.975 183.606 102.532 183.164 101.986 183.164C101.439 183.164 100.996 183.606 100.996 184.151C100.996 184.697 101.439 185.139 101.986 185.139Z" fill="#1A1A1A"/>
<path d="M86.4836 181.209C87.0299 181.209 87.4728 180.767 87.4728 180.222C87.4728 179.676 87.0299 179.234 86.4836 179.234C85.9373 179.234 85.4944 179.676 85.4944 180.222C85.4944 180.767 85.9373 181.209 86.4836 181.209Z" fill="#1A1A1A"/>
<path d="M89.2533 178.08C89.7996 178.08 90.2425 177.638 90.2425 177.093C90.2425 176.547 89.7996 176.105 89.2533 176.105C88.707 176.105 88.2641 176.547 88.2641 177.093C88.2641 177.638 88.707 178.08 89.2533 178.08Z" fill="#1A1A1A"/>
<path d="M100.996 181.209C101.543 181.209 101.986 180.767 101.986 180.222C101.986 179.676 101.543 179.234 100.996 179.234C100.45 179.234 100.007 179.676 100.007 180.222C100.007 180.767 100.45 181.209 100.996 181.209Z" fill="#1A1A1A"/>
<path d="M97.7321 178.08C98.2784 178.08 98.7213 177.638 98.7213 177.093C98.7213 176.547 98.2784 176.105 97.7321 176.105C97.1858 176.105 96.7429 176.547 96.7429 177.093C96.7429 177.638 97.1858 178.08 97.7321 178.08Z" fill="#1A1A1A"/>
<path d="M86.4836 188.912C87.0299 188.912 87.4728 188.47 87.4728 187.925C87.4728 187.38 87.0299 186.938 86.4836 186.938C85.9373 186.938 85.4944 187.38 85.4944 187.925C85.4944 188.47 85.9373 188.912 86.4836 188.912Z" fill="#1A1A1A"/>
<path d="M89.2533 192.029C89.7996 192.029 90.2425 191.587 90.2425 191.042C90.2425 190.497 89.7996 190.055 89.2533 190.055C88.707 190.055 88.2641 190.497 88.2641 191.042C88.2641 191.587 88.707 192.029 89.2533 192.029Z" fill="#1A1A1A"/>
<path d="M100.996 188.912C101.543 188.912 101.986 188.47 101.986 187.925C101.986 187.38 101.543 186.938 100.996 186.938C100.45 186.938 100.007 187.38 100.007 187.925C100.007 188.47 100.45 188.912 100.996 188.912Z" fill="#1A1A1A"/>
<path d="M97.7321 192.029C98.2784 192.029 98.7213 191.587 98.7213 191.042C98.7213 190.497 98.2784 190.055 97.7321 190.055C97.1858 190.055 96.7429 190.497 96.7429 191.042C96.7429 191.587 97.1858 192.029 97.7321 192.029Z" fill="#1A1A1A"/>
<path d="M159.698 208.303C173.227 208.303 184.194 197.357 184.194 183.855C184.194 170.352 173.227 159.406 159.698 159.406C146.169 159.406 135.201 170.352 135.201 183.855C135.201 197.357 146.169 208.303 159.698 208.303Z" fill="#333333"/>
<path d="M159.698 200.624C168.977 200.624 176.5 193.116 176.5 183.855C176.5 174.594 168.977 167.086 159.698 167.086C150.418 167.086 142.896 174.594 142.896 183.855C142.896 193.116 150.418 200.624 159.698 200.624Z" fill="#4D4D4D"/>
<path d="M159.698 194.468C165.571 194.468 170.332 189.716 170.332 183.855C170.332 177.994 165.571 173.242 159.698 173.242C153.825 173.242 149.064 177.994 149.064 183.855C149.064 189.716 153.825 194.468 159.698 194.468Z" fill="#808080"/>
<path d="M159.535 188.72C162.228 188.72 164.411 186.541 164.411 183.854C164.411 181.167 162.228 178.988 159.535 178.988C156.843 178.988 154.66 181.167 154.66 183.854C154.66 186.541 156.843 188.72 159.535 188.72Z" fill="#B3B3B3"/>
<path d="M159.698 176.689C160.244 176.689 160.687 176.247 160.687 175.702C160.687 175.157 160.244 174.715 159.698 174.715C159.152 174.715 158.709 175.157 158.709 175.702C158.709 176.247 159.152 176.689 159.698 176.689Z" fill="#1A1A1A"/>
<path d="M159.698 193.389C160.244 193.389 160.687 192.947 160.687 192.401C160.687 191.856 160.244 191.414 159.698 191.414C159.152 191.414 158.709 191.856 158.709 192.401C158.709 192.947 159.152 193.389 159.698 193.389Z" fill="#1A1A1A"/>
<path d="M151.318 185.139C151.864 185.139 152.307 184.697 152.307 184.151C152.307 183.606 151.864 183.164 151.318 183.164C150.772 183.164 150.329 183.606 150.329 184.151C150.329 184.697 150.772 185.139 151.318 185.139Z" fill="#1A1A1A"/>
<path d="M168.099 185.139C168.645 185.139 169.088 184.697 169.088 184.151C169.088 183.606 168.645 183.164 168.099 183.164C167.553 183.164 167.11 183.606 167.11 184.151C167.11 184.697 167.553 185.139 168.099 185.139Z" fill="#1A1A1A"/>
<path d="M152.597 181.209C153.143 181.209 153.586 180.767 153.586 180.222C153.586 179.676 153.143 179.234 152.597 179.234C152.051 179.234 151.608 179.676 151.608 180.222C151.608 180.767 152.051 181.209 152.597 181.209Z" fill="#1A1A1A"/>
<path d="M155.374 178.08C155.92 178.08 156.363 177.638 156.363 177.093C156.363 176.547 155.92 176.105 155.374 176.105C154.827 176.105 154.385 176.547 154.385 177.093C154.385 177.638 154.827 178.08 155.374 178.08Z" fill="#1A1A1A"/>
<path d="M167.11 181.209C167.656 181.209 168.099 180.767 168.099 180.222C168.099 179.676 167.656 179.234 167.11 179.234C166.563 179.234 166.121 179.676 166.121 180.222C166.121 180.767 166.563 181.209 167.11 181.209Z" fill="#1A1A1A"/>
<path d="M163.852 178.08C164.399 178.08 164.842 177.638 164.842 177.093C164.842 176.547 164.399 176.105 163.852 176.105C163.306 176.105 162.863 176.547 162.863 177.093C162.863 177.638 163.306 178.08 163.852 178.08Z" fill="#1A1A1A"/>
<path d="M152.597 188.912C153.143 188.912 153.586 188.47 153.586 187.925C153.586 187.38 153.143 186.938 152.597 186.938C152.051 186.938 151.608 187.38 151.608 187.925C151.608 188.47 152.051 188.912 152.597 188.912Z" fill="#1A1A1A"/>
<path d="M155.374 192.029C155.92 192.029 156.363 191.587 156.363 191.042C156.363 190.497 155.92 190.055 155.374 190.055C154.827 190.055 154.385 190.497 154.385 191.042C154.385 191.587 154.827 192.029 155.374 192.029Z" fill="#1A1A1A"/>
<path d="M167.11 188.912C167.656 188.912 168.099 188.47 168.099 187.925C168.099 187.38 167.656 186.938 167.11 186.938C166.563 186.938 166.121 187.38 166.121 187.925C166.121 188.47 166.563 188.912 167.11 188.912Z" fill="#1A1A1A"/>
<path d="M163.852 192.029C164.399 192.029 164.842 191.587 164.842 191.042C164.842 190.497 164.399 190.055 163.852 190.055C163.306 190.055 162.863 190.497 162.863 191.042C162.863 191.587 163.306 192.029 163.852 192.029Z" fill="#1A1A1A"/>
<path d="M231.414 165.039H196.135C193.209 165.039 190.836 167.407 190.836 170.328V181.646C190.836 184.567 193.209 186.935 196.135 186.935H231.414C234.341 186.935 236.713 184.567 236.713 181.646V170.328C236.713 167.407 234.341 165.039 231.414 165.039Z" fill="#919BA2"/>
<path d="M308.776 151.887H311.666V163.184H308.606C307.815 163.184 307.179 162.542 307.179 161.759V153.487C307.179 152.606 307.893 151.887 308.783 151.887H308.776Z" fill="#808080"/>
<path d="M308.67 151.887H308.797V163.184C306.317 163.184 304.303 161.174 304.303 158.699V156.245C304.303 153.84 306.261 151.887 308.67 151.887Z" fill="#E6E6E6"/>
<path d="M272.409 96.207H275.2L285.678 123.744H282.697L272.409 96.207Z" fill="#C1D9F3"/>
<path d="M96.538 70.6804C94.92 70.6804 93.3161 70.3066 91.8817 69.5662C87.5364 67.3237 79.4957 61.7811 85.5792 53.6222C93.6482 42.7907 74.041 39.6738 92.4823 31.6912C106.458 25.6408 110.486 32.0579 111.623 35.5133C112.068 36.8742 112.782 38.1295 113.729 39.2013C116.689 42.558 122.285 50.0258 119.664 56.0057C118.639 58.3469 117.961 60.5752 117.516 62.5638C116.449 67.2955 112.301 70.7015 107.44 70.6945L96.538 70.6804Z" fill="#333333"/>
<path d="M191.317 70.6782C190.214 70.6782 189.119 70.4384 188.13 69.9659C184.11 68.0479 174.529 62.3218 181.015 53.62C189.084 42.7885 169.477 39.6716 187.918 31.689C202.346 25.4411 206.176 32.4788 207.158 35.8354C207.483 36.9426 208.041 37.951 208.811 38.8042C211.652 41.9422 217.827 49.7768 215.1 55.9964C213.743 59.1062 212.994 62.0186 212.584 64.4233C211.97 68.0408 208.847 70.6852 205.172 70.6782L191.317 70.6641V70.6782Z" fill="#333333"/>
<path d="M75.1291 70.7025C75.1291 70.7025 64.785 59.0671 73.4263 52.5019C79.0858 48.2074 84.3003 49.2652 87.2325 50.5133C88.6598 51.1198 89.5642 52.5372 89.5289 54.0886C89.4723 56.4932 89.762 60.0896 91.8747 60.8371C95.1107 61.9865 96.7782 70.7025 96.7782 70.7025H75.122H75.1291Z" fill="#4D4D4D"/>
<path d="M228.079 70.7C228.079 70.7 242.479 54.488 230.446 45.349C222.568 39.362 215.297 40.8429 211.214 42.5776C209.228 43.4238 207.963 45.3983 208.013 47.5491C208.091 50.8916 207.695 55.9054 204.741 56.9491C200.234 58.5428 197.909 70.693 197.909 70.693H228.072L228.079 70.7Z" fill="#4D4D4D"/>
<path d="M107.44 70.6858C107.44 70.6858 111.086 32.98 133.929 43.1346C156.773 53.2891 148.478 70.6858 148.478 70.6858H107.44Z" fill="#808080"/>
<path d="M158.483 70.6858C158.483 70.6858 162.128 32.98 184.972 43.1346C207.815 53.2891 199.52 70.6858 199.52 70.6858H158.483Z" fill="#808080"/>
<path d="M92.8427 25.7107C91.4931 25.5697 95.6619 30.6117 93.097 32.8471C91.8323 33.9543 98.9686 34.194 97.4777 32.1772C95.4075 29.3847 99.2936 24.3568 98.0289 25.4498C95.7396 27.4384 94.8917 25.9223 92.8427 25.7037V25.7107Z" fill="#333333"/>
<path d="M191.847 25.4061C190.497 25.265 194.666 30.307 192.101 32.5424C190.836 33.6496 197.973 33.8893 196.482 31.8725C194.411 29.08 198.298 24.0521 197.033 25.1451C194.744 27.1337 193.896 25.6176 191.847 25.399V25.4061Z" fill="#333333"/>
<path d="M121.692 38.4475C120.639 38.3347 123.896 42.2766 121.89 44.0255C120.9 44.8928 126.475 45.0762 125.309 43.5036C123.691 41.3176 126.73 37.3898 125.74 38.2501C123.946 39.8015 123.289 38.6168 121.692 38.4475Z" fill="#808080"/>
<path d="M164.34 42.6419C163.33 42.9662 167.908 45.251 166.785 47.6627C166.227 48.8545 171.406 46.7742 169.703 45.801C167.336 44.4542 168.523 39.6378 167.965 40.8225C166.954 42.9662 165.873 42.1482 164.34 42.6419Z" fill="#808080"/>
<path d="M228.8 39.9353C228.037 39.2019 228.185 44.3074 225.521 44.4555C224.207 44.5331 228.496 48.1012 228.546 46.1409C228.616 43.4259 233.428 42.1848 232.121 42.2553C229.754 42.3823 229.959 41.0424 228.8 39.9283V39.9353Z" fill="#4D4D4D"/>
<path d="M76.4716 46.7897C75.4117 46.7968 79.0929 50.3438 77.2982 52.3112C76.415 53.2844 81.9757 52.8401 80.6403 51.4086C78.782 49.42 81.361 45.1749 80.4707 46.141C78.8668 47.8827 78.0755 46.7827 76.4645 46.7968L76.4716 46.7897Z" fill="#4D4D4D"/>
<path d="M147.771 70.7015L157.917 70.4617L157.338 62.9375L147.227 62.9798L147.771 70.7015Z" fill="#1E4C9A" stroke="#1E4C9A" stroke-miterlimit="10"/>
<path d="M152.274 64.4046C155.29 64.3636 157.726 63.6548 157.715 62.8215C157.703 61.9881 155.249 61.3457 152.233 61.3867C149.217 61.4277 146.781 62.1365 146.792 62.9699C146.804 63.8032 149.258 64.4456 152.274 64.4046Z" fill="#B2B2B2"/>
<path d="M150.944 63.2594C151.982 63.2463 152.82 62.9801 152.816 62.6646C152.812 62.3492 151.968 62.104 150.93 62.1171C149.892 62.1301 149.054 62.3963 149.058 62.7118C149.061 63.0272 149.906 63.2724 150.944 63.2594Z" fill="#808080"/>
<path d="M150.399 62.8174L150.597 62.4507C150.682 62.2956 150.633 62.0911 150.484 61.9923L149.559 61.3365C149.417 61.2378 149.227 61.2731 149.142 61.4282L148.944 61.7949C148.859 61.95 148.909 62.1545 149.057 62.2533L149.983 62.9091C150.124 63.0078 150.315 62.9725 150.399 62.8174Z" fill="#666666"/>
<path d="M31.5835 208.293H327.889" stroke="#333333" stroke-width="2" stroke-miterlimit="10"/>
<path d="M184.894 73.2188H183.488V154.984H184.894V73.2188Z" fill="#5E8B4B" fill-opacity="0.58"/>
<path d="M114.93 115.516C118.251 112.773 120.872 110.523 122.787 108.76C124.702 106.997 126.32 105.157 127.648 103.225C128.976 101.293 129.634 99.4168 129.634 97.5904C129.634 96.2012 129.309 95.1222 128.666 94.3395C128.023 93.5638 127.055 93.1689 125.769 93.1689C124.483 93.1689 123.472 93.6484 122.745 94.6145C122.017 95.5806 121.649 96.9416 121.649 98.7045H113.255C113.326 95.8274 113.941 93.4228 115.114 91.4976C116.287 89.5655 117.827 88.148 119.742 87.2313C121.656 86.3146 123.783 85.8633 126.129 85.8633C130.163 85.8633 133.209 86.8928 135.258 88.959C137.307 91.0252 138.338 93.7189 138.338 97.0333C138.338 100.658 137.102 104.015 134.622 107.11C132.149 110.206 128.991 113.231 125.161 116.172H138.897V123.231H113.361V116.785C114.513 115.869 115.043 115.445 114.937 115.516H114.93Z" fill="white"/>
<path d="M146.089 90.942C148.343 87.5924 151.982 85.9141 156.999 85.9141C162.015 85.9141 165.654 87.5924 167.908 90.942C170.162 94.2916 171.293 98.8822 171.293 104.7C171.293 110.518 170.162 115.207 167.908 118.564C165.654 121.913 162.015 123.592 156.999 123.592C151.982 123.592 148.343 121.913 146.089 118.564C143.835 115.214 142.705 110.595 142.705 104.7C142.705 98.8047 143.828 94.2916 146.089 90.942ZM161.634 96.809C160.885 94.9615 159.345 94.0447 157.006 94.0447C154.667 94.0447 153.12 94.9685 152.378 96.809C151.629 98.6566 151.261 101.287 151.261 104.707C151.261 107.006 151.396 108.91 151.671 110.419C151.94 111.928 152.491 113.148 153.325 114.072C154.158 115.003 155.388 115.468 157.013 115.468C158.638 115.468 159.867 115.003 160.701 114.072C161.528 113.141 162.086 111.921 162.355 110.419C162.623 108.917 162.764 107.013 162.764 104.707C162.764 101.287 162.39 98.6566 161.648 96.809H161.634Z" fill="white"/>
<path d="M91.5143 128.789V140.671H88.6174V133.549L85.9537 140.671H83.6149L80.9371 133.528V140.671H78.0401V128.789H81.467L84.809 137.011L88.1158 128.789H91.5214H91.5143Z" fill="white"/>
<path d="M96.4956 128.789V140.671H93.5987V128.789H96.4956Z" fill="white"/>
<path d="M101.498 138.436H105.299V140.671H98.6012V128.789H101.498V138.436Z" fill="white"/>
<path d="M109.588 138.436H113.39V140.671H106.691V128.789H109.588V138.436Z" fill="white"/>
<path d="M117.678 128.789V140.671H114.782V128.789H117.678Z" fill="white"/>
<path d="M122.335 140.007C121.402 139.485 120.66 138.765 120.116 137.835C119.565 136.904 119.296 135.86 119.296 134.697C119.296 133.533 119.572 132.489 120.116 131.566C120.667 130.642 121.402 129.915 122.335 129.401C123.267 128.879 124.292 128.625 125.415 128.625C126.539 128.625 127.563 128.886 128.496 129.401C129.429 129.923 130.163 130.642 130.7 131.566C131.237 132.489 131.506 133.533 131.506 134.697C131.506 135.86 131.237 136.904 130.693 137.835C130.149 138.765 129.414 139.492 128.489 140.007C127.563 140.528 126.539 140.782 125.422 140.782C124.306 140.782 123.274 140.521 122.342 140.007H122.335ZM127.69 137.2C128.263 136.565 128.545 135.733 128.545 134.697C128.545 133.66 128.263 132.807 127.69 132.186C127.118 131.559 126.362 131.248 125.408 131.248C124.454 131.248 123.684 131.559 123.112 132.179C122.54 132.8 122.257 133.639 122.257 134.704C122.257 135.768 122.54 136.593 123.112 137.214C123.684 137.842 124.447 138.152 125.408 138.152C126.369 138.152 127.118 137.835 127.69 137.207V137.2Z" fill="white"/>
<path d="M143.758 140.671H140.861L136.014 133.344V140.671H133.117V128.789H136.014L140.861 136.151V128.789H143.758V140.671Z" fill="white"/>
<path d="M148.76 131.106V133.511H152.646V135.746H148.76V138.355H153.155V140.675H145.863V128.793H153.155V131.113H148.76V131.106Z" fill="white"/>
<path d="M161.104 140.671L158.631 136.186H157.939V140.671H155.042V128.789H159.91C160.85 128.789 161.648 128.951 162.312 129.283C162.976 129.607 163.471 130.058 163.796 130.63C164.121 131.201 164.291 131.835 164.291 132.534C164.291 133.323 164.064 134.029 163.619 134.649C163.174 135.27 162.517 135.707 161.641 135.968L164.389 140.671H161.118H161.104ZM157.931 134.134H159.726C160.256 134.134 160.659 134.007 160.92 133.746C161.189 133.486 161.316 133.119 161.316 132.646C161.316 132.174 161.182 131.842 160.92 131.582C160.659 131.321 160.256 131.194 159.726 131.194H157.931V134.141V134.134Z" fill="white"/>
<path d="M178.252 128.789V131.109H175.101V140.671H172.204V131.109H169.053V128.789H178.259H178.252Z" fill="white"/>
<path d="M182.259 140.007C181.326 139.485 180.584 138.765 180.04 137.835C179.489 136.904 179.22 135.86 179.22 134.697C179.22 133.533 179.496 132.489 180.04 131.566C180.591 130.642 181.326 129.915 182.259 129.401C183.191 128.879 184.216 128.625 185.339 128.625C186.463 128.625 187.487 128.886 188.42 129.401C189.352 129.923 190.087 130.642 190.624 131.566C191.161 132.489 191.43 133.533 191.43 134.697C191.43 135.86 191.161 136.904 190.617 137.835C190.073 138.765 189.338 139.492 188.413 140.007C187.487 140.528 186.463 140.782 185.346 140.782C184.23 140.782 183.198 140.521 182.266 140.007H182.259ZM187.614 137.2C188.187 136.565 188.469 135.733 188.469 134.697C188.469 133.66 188.187 132.807 187.614 132.186C187.042 131.559 186.286 131.248 185.332 131.248C184.378 131.248 183.608 131.559 183.036 132.179C182.463 132.8 182.181 133.639 182.181 134.704C182.181 135.768 182.463 136.593 183.036 137.214C183.608 137.842 184.371 138.152 185.332 138.152C186.293 138.152 187.042 137.835 187.614 137.207V137.2Z" fill="white"/>
<path d="M203.689 140.671H200.792L195.945 133.344V140.671H193.048V128.789H195.945L200.792 136.151V128.789H203.689V140.671Z" fill="white"/>
<path d="M207.758 140.358C207.066 140.076 206.515 139.66 206.105 139.103C205.695 138.546 205.476 137.883 205.455 137.107H208.543C208.585 137.545 208.741 137.883 209.002 138.116C209.263 138.349 209.603 138.461 210.019 138.461C210.436 138.461 210.79 138.363 211.037 138.165C211.284 137.968 211.411 137.693 211.411 137.347C211.411 137.051 211.312 136.811 211.115 136.621C210.917 136.431 210.677 136.268 210.387 136.148C210.097 136.022 209.687 135.88 209.157 135.725C208.387 135.486 207.758 135.253 207.278 135.013C206.79 134.773 206.374 134.428 206.02 133.962C205.667 133.497 205.497 132.898 205.497 132.15C205.497 131.043 205.9 130.176 206.699 129.555C207.497 128.935 208.55 128.617 209.836 128.617C211.122 128.617 212.203 128.927 213.008 129.555C213.814 130.183 214.238 131.05 214.294 132.171H211.157C211.136 131.79 210.995 131.487 210.733 131.269C210.472 131.05 210.14 130.937 209.73 130.937C209.376 130.937 209.094 131.029 208.882 131.219C208.67 131.403 208.557 131.671 208.557 132.023C208.557 132.404 208.734 132.707 209.101 132.919C209.461 133.13 210.027 133.363 210.797 133.61C211.567 133.871 212.189 134.118 212.669 134.357C213.15 134.597 213.566 134.936 213.913 135.387C214.266 135.838 214.435 136.416 214.435 137.129C214.435 137.841 214.266 138.419 213.92 138.976C213.573 139.526 213.072 139.971 212.422 140.295C211.765 140.619 210.995 140.789 210.097 140.789C209.2 140.789 208.444 140.647 207.758 140.365V140.358Z" fill="white"/>
</g>
<defs>
<clipPath id="clip0_206_1324">
<rect width="353" height="209" fill="white"/>
</clipPath>
</defs>
</svg>
