<svg width="204" height="184" viewBox="0 0 204 184" fill="none" xmlns="http://www.w3.org/2000/svg">
<g clip-path="url(#clip0_206_1765)">
<path opacity="0.5" d="M202.992 87.4994C211.676 39.2239 163.543 0.037753 95.5092 3.78197e-05C27.463 -0.0376774 -8.2175 28.1356 3.18866 72.5264C12.0615 107.061 -23.8584 138.49 32.8195 147.756C96.3662 158.14 194.308 135.787 202.992 87.4994Z" fill="#4D6F3D"/>
<path d="M123.48 60.6185L90.8963 31.426C89.0372 29.7604 86.1765 29.9134 84.5067 31.7678L71.3685 46.3584C69.6987 48.2128 69.8521 51.0663 71.7112 52.7319L104.295 81.9244C106.154 83.59 109.014 83.437 110.684 81.5826L123.822 66.9921C125.492 65.1377 125.339 62.2841 123.48 60.6185Z" fill="white"/>
<path d="M99.4793 54.5735C98.9752 54.1209 69.6091 48.2876 69.168 48.7905C68.7142 49.2933 68.752 50.0728 69.2562 50.5254L106.752 84.1171C107.256 84.5697 108.012 84.5194 108.466 84.0291C108.919 83.5262 99.9709 55.0135 99.4793 54.5735Z" fill="#F2F2F2"/>
<path d="M95.7109 58.7601C95.2067 58.3075 86.2583 29.8074 86.712 29.3171C87.1657 28.8142 87.9471 28.7639 88.4513 29.2291L125.947 62.8208C126.451 63.2733 126.489 64.0276 126.035 64.5305C125.581 65.0334 96.2024 59.2127 95.7109 58.7601Z" fill="#E6E6E6"/>
<path d="M137.781 68.0645H70.2518C67.7042 68.0645 65.6389 70.1245 65.6389 72.6657V179.4C65.6389 181.941 67.7042 184.001 70.2518 184.001H137.781C140.329 184.001 142.394 181.941 142.394 179.4V72.6657C142.394 70.1245 140.329 68.0645 137.781 68.0645Z" fill="#707A88"/>
<path d="M71.4114 63.4375H136.634C141.6 63.4375 145.633 67.4605 145.633 72.4137H62.4125C62.4125 67.4605 66.4456 63.4375 71.4114 63.4375Z" fill="#707A88"/>
<path d="M74.2345 82.4587C74.2345 81.6186 73.5517 80.9375 72.7095 80.9375C71.8672 80.9375 71.1844 81.6186 71.1844 82.4587V175.527C71.1844 176.367 71.8672 177.048 72.7095 177.048C73.5517 177.048 74.2345 176.367 74.2345 175.527V82.4587Z" fill="#4D4D4D"/>
<path d="M105.844 82.4587C105.844 81.6186 105.161 80.9375 104.319 80.9375C103.477 80.9375 102.794 81.6186 102.794 82.4587V175.527C102.794 176.367 103.477 177.048 104.319 177.048C105.161 177.048 105.844 176.367 105.844 175.527V82.4587Z" fill="#4D4D4D"/>
<path d="M137.466 82.4587C137.466 81.6186 136.783 80.9375 135.941 80.9375C135.099 80.9375 134.416 81.6186 134.416 82.4587V175.527C134.416 176.367 135.099 177.048 135.941 177.048C136.783 177.048 137.466 176.367 137.466 175.527V82.4587Z" fill="#4D4D4D"/>
<path opacity="0.5" d="M65.6389 72.666H142.394V96.2506L65.6389 79.0902V72.666Z" fill="#4D4D4D"/>
</g>
<defs>
<clipPath id="clip0_206_1765">
<rect width="204" height="184" fill="white"/>
</clipPath>
</defs>
</svg>
