<svg width="159" height="98" viewBox="0 0 159 98" fill="none" xmlns="http://www.w3.org/2000/svg">
<g clip-path="url(#clip0_206_1310)">
<path opacity="0.5" d="M143.954 56.7009C149.559 25.4124 118.498 0.0238806 74.5811 2.66e-05C30.6646 -0.0238274 11.394 15.9981 9.13108 39.2239C6.34411 67.8168 14.4033 90.4304 50.9912 96.4336C92.0096 103.16 138.356 87.9893 143.961 56.7009H143.954Z" fill="#4D6F3D"/>
<path d="M0 44.7734H32.1573" stroke="#CCCCCC" stroke-width="3" stroke-miterlimit="10"/>
<path d="M11.9419 53.1211H52.5871" stroke="#CCCCCC" stroke-width="3" stroke-miterlimit="10"/>
<path d="M4.97845 61.4727H32.5385" stroke="#CCCCCC" stroke-width="3" stroke-miterlimit="10"/>
<path d="M141.794 26.1211H47.7516C46.1773 26.1211 44.9011 27.3991 44.9011 28.9756V77.5264C44.9011 79.1029 46.1773 80.3809 47.7516 80.3809H141.794C143.368 80.3809 144.644 79.1029 144.644 77.5264V28.9756C144.644 27.3991 143.368 26.1211 141.794 26.1211Z" fill="white"/>
<path d="M94.7807 47.9141C93.5182 47.9141 44.9011 76.7614 44.9011 78.0257C44.9011 79.3138 45.9413 80.3554 47.2276 80.3634L142.35 80.4032C143.612 80.4032 144.636 79.3774 144.636 78.1132C144.636 76.8489 96.0431 47.922 94.7807 47.9141Z" fill="#F2F2F2"/>
<path d="M94.7727 58.5866C93.5103 58.5866 44.9091 29.6995 44.917 28.4352C44.917 27.1471 45.9571 26.1055 47.2514 26.1055L142.373 26.1452C143.636 26.1452 144.66 27.1709 144.66 28.4352C144.66 29.6995 96.0431 58.5946 94.7807 58.5866H94.7727Z" fill="#E6E6E6"/>
<path d="M138.276 43.8747C149.068 43.8747 157.817 35.1137 157.817 24.3065C157.817 13.4993 149.068 4.73828 138.276 4.73828C127.484 4.73828 118.736 13.4993 118.736 24.3065C118.736 35.1137 127.484 43.8747 138.276 43.8747Z" fill="white"/>
<path d="M138.268 45.0687C126.835 45.0687 117.537 35.7577 117.537 24.3078C117.537 12.8579 126.835 3.54688 138.268 3.54688C149.702 3.54688 159 12.8579 159 24.3078C159 35.7577 149.702 45.0687 138.268 45.0687ZM138.268 5.93227C128.153 5.93227 119.919 14.1778 119.919 24.3078C119.919 34.4377 128.153 42.6833 138.268 42.6833C148.384 42.6833 156.618 34.4377 156.618 24.3078C156.618 14.1778 148.384 5.93227 138.268 5.93227Z" fill="#808080"/>
<path d="M135.818 33.2838C135.278 32.7749 135 32.1547 135 31.4073C135 30.6599 135.27 30.0079 135.818 29.491C136.358 28.9742 137.064 28.7198 137.922 28.7198C138.779 28.7198 139.454 28.9742 139.994 29.491C140.534 30.0079 140.812 30.644 140.812 31.4073C140.812 32.1706 140.542 32.7749 139.994 33.2838C139.454 33.7927 138.764 34.0392 137.922 34.0392C137.08 34.0392 136.366 33.7847 135.818 33.2838ZM140.495 13L139.923 26.7081H135.778L135.206 13H140.495Z" fill="#808080"/>
</g>
<defs>
<clipPath id="clip0_206_1310">
<rect width="159" height="98" fill="white"/>
</clipPath>
</defs>
</svg>
