<svg width="435" height="24" viewBox="0 0 435 24" fill="none" xmlns="http://www.w3.org/2000/svg">
<g clip-path="url(#clip0_206_1521)">
<path d="M428.997 0H6.00276C2.68753 0 0 2.7382 0 6.11595V17.8841C0 21.2618 2.68753 24 6.00276 24H428.997C432.312 24 435 21.2618 435 17.8841V6.11595C435 2.7382 432.312 0 428.997 0Z" fill="#4D6F3D"/>
<path d="M5.07234 24C2.40611 24 0.235116 21.8135 0.205102 19.097L0.0700401 6.32491C0.0300217 2.84392 2.79129 0 6.20786 0H19.3589L5.07234 24Z" fill="#445A3A"/>
<path d="M413.775 24H5.02731L19.3089 0H424.855L413.775 24Z" fill="#445A3A"/>
<path d="M194.344 16.4181C194.98 16.4181 195.43 16.1327 195.695 15.5567C195.96 14.9808 196.09 14.0481 196.09 12.7485C195.825 13.1257 195.465 13.4213 195.01 13.6302C194.554 13.8392 194.044 13.9411 193.479 13.9411C192.709 13.9411 192.028 13.778 191.428 13.4569C190.828 13.1308 190.358 12.6517 190.012 12.0095C189.672 11.3673 189.497 10.5875 189.497 9.67015C189.497 8.75276 189.682 7.97807 190.047 7.30531C190.413 6.63256 190.938 6.11271 191.613 5.74575C192.293 5.37879 193.094 5.19531 194.019 5.19531C195.795 5.19531 197.041 5.75594 197.746 6.8823C198.456 8.00865 198.806 9.66505 198.806 11.8566C198.806 13.4467 198.666 14.7566 198.381 15.7912C198.101 16.8258 197.626 17.6107 196.961 18.1509C196.295 18.6912 195.385 18.9562 194.234 18.9562C193.324 18.9562 192.544 18.7727 191.903 18.4058C191.263 18.0388 190.768 17.5546 190.428 16.9583C190.087 16.3569 189.892 15.6995 189.842 14.9757H192.689C192.869 15.9441 193.419 16.4232 194.344 16.4232V16.4181ZM195.39 10.9953C195.69 10.6844 195.84 10.2563 195.84 9.72111C195.84 9.135 195.685 8.6814 195.37 8.36541C195.06 8.04942 194.639 7.88633 194.109 7.88633C193.579 7.88633 193.164 8.04942 192.859 8.37051C192.554 8.69669 192.398 9.1401 192.398 9.70073C192.398 10.2257 192.554 10.6538 192.859 10.9749C193.164 11.3011 193.604 11.4591 194.184 11.4591C194.69 11.4591 195.09 11.3011 195.39 10.9902V10.9953Z" fill="#F2F2F2"/>
<path d="M205.419 16.4181C206.055 16.4181 206.505 16.1327 206.77 15.5567C207.035 14.9808 207.165 14.0481 207.165 12.7485C206.9 13.1257 206.54 13.4213 206.085 13.6302C205.63 13.8392 205.119 13.9411 204.554 13.9411C203.784 13.9411 203.103 13.778 202.503 13.4569C201.903 13.1308 201.433 12.6517 201.087 12.0095C200.747 11.3673 200.572 10.5875 200.572 9.67015C200.572 8.75276 200.757 7.97807 201.122 7.30531C201.488 6.63256 202.013 6.11271 202.688 5.74575C203.369 5.37879 204.169 5.19531 205.094 5.19531C206.87 5.19531 208.116 5.75594 208.821 6.8823C209.531 8.00865 209.882 9.66505 209.882 11.8566C209.882 13.4467 209.741 14.7566 209.456 15.7912C209.176 16.8258 208.701 17.6107 208.036 18.1509C207.37 18.6912 206.46 18.9562 205.309 18.9562C204.399 18.9562 203.619 18.7727 202.978 18.4058C202.338 18.0388 201.843 17.5546 201.503 16.9583C201.162 16.3569 200.967 15.6995 200.917 14.9757H203.764C203.944 15.9441 204.494 16.4232 205.419 16.4232V16.4181ZM206.465 10.9953C206.765 10.6844 206.915 10.2563 206.915 9.72111C206.915 9.135 206.76 8.6814 206.445 8.36541C206.135 8.04942 205.715 7.88633 205.184 7.88633C204.654 7.88633 204.239 8.04942 203.934 8.37051C203.629 8.69669 203.474 9.1401 203.474 9.70073C203.474 10.2257 203.629 10.6538 203.934 10.9749C204.239 11.3011 204.679 11.4591 205.259 11.4591C205.765 11.4591 206.165 11.3011 206.465 10.9902V10.9953Z" fill="#F2F2F2"/>
<path d="M212.108 6.58261C212.668 6.04237 213.388 5.77734 214.279 5.77734C215.169 5.77734 215.889 6.04746 216.44 6.58261C216.99 7.12285 217.27 7.88735 217.27 8.87609C217.27 9.86484 216.995 10.6293 216.44 11.1696C215.889 11.7098 215.169 11.9748 214.279 11.9748C213.388 11.9748 212.668 11.7047 212.108 11.1696C211.547 10.6344 211.272 9.86484 211.272 8.87609C211.272 7.88735 211.552 7.12285 212.108 6.58261ZM213.398 8.87609C213.398 9.70684 213.688 10.1248 214.264 10.1248C214.539 10.1248 214.754 10.0228 214.914 9.81387C215.074 9.60491 215.149 9.29401 215.149 8.87609C215.149 8.03005 214.854 7.61213 214.269 7.61213C213.683 7.61213 213.403 8.03515 213.403 8.87609H213.398ZM223.498 5.97611L216.565 18.891H213.593L220.526 5.97611H223.498ZM220.671 13.7026C221.222 13.1624 221.942 12.8973 222.832 12.8973C223.723 12.8973 224.443 13.1674 224.993 13.7026C225.544 14.2428 225.824 15.0073 225.824 15.9961C225.824 16.9848 225.549 17.7493 224.993 18.2896C224.443 18.8298 223.723 19.0948 222.832 19.0948C221.942 19.0948 221.222 18.8247 220.671 18.2896C220.121 17.7493 219.841 16.9848 219.841 15.9961C219.841 15.0073 220.116 14.2428 220.671 13.7026ZM222.177 15.043C222.027 15.252 221.952 15.568 221.952 15.9961C221.952 16.8268 222.242 17.2447 222.817 17.2447C223.093 17.2447 223.308 17.1428 223.468 16.9339C223.623 16.7249 223.703 16.414 223.703 15.9961C223.703 15.5781 223.623 15.2673 223.468 15.0532C223.313 14.8391 223.098 14.7321 222.817 14.7321C222.537 14.7321 222.327 14.834 222.177 15.043Z" fill="#F2F2F2"/>
</g>
<defs>
<clipPath id="clip0_206_1521">
<rect width="435" height="24" fill="white"/>
</clipPath>
</defs>
</svg>
