<svg width="237" height="175" viewBox="0 0 237 175" fill="none" xmlns="http://www.w3.org/2000/svg">
<g clip-path="url(#clip0_206_1752)">
<path opacity="0.5" d="M235.809 101.915C245.894 45.6809 190 0.0425945 110.957 4.13443e-05C31.8936 -0.0425118 -9.55318 32.766 3.70214 84.4681C14 124.681 -27.7234 161.298 38.1277 172.085C111.957 184.17 225.745 158.149 235.83 101.915H235.809Z" fill="#4D6F3D"/>
<path d="M151.872 46.8928L25.1702 96.829C19.4894 99.0631 18.383 106.595 23.1489 110.382L63.8511 142.616C66.2341 144.51 69.4681 144.935 72.2553 143.765L204.936 87.7865C211.149 85.1694 211.83 76.6588 206.128 73.0631L166.723 48.2758C162.277 45.4673 156.766 44.9567 151.872 46.8928Z" fill="#445A3A"/>
<path d="M38.915 152.021L19.7873 136.341L17.9575 128.213L38.1065 145L38.915 152.021Z" fill="#999999"/>
<path d="M74.9575 154.679L23.383 118.254C21.7873 117.126 20.8086 115.36 20.7022 113.445L20.2554 104.232L76.4256 143.062L76.6596 153.786C76.6596 154.679 75.6809 155.19 74.9362 154.658L74.9575 154.679Z" fill="#CCCCCC"/>
<path d="M76.2341 154.68L206.34 94.8074C208.404 93.8499 209.745 91.8499 209.851 89.5733L210.191 81.084L74.4255 142.658L74.5319 153.616C74.5319 154.488 75.4468 155.041 76.2341 154.68Z" fill="#CCCCCC"/>
<path d="M36.0214 120.553L17.9575 128.212L38.1065 145L57.0639 135.361L36.0214 120.553Z" fill="#B3B3B3"/>
<path d="M37.7874 145.17L57.0639 135.361L57.298 142.106L38.915 152.021L37.7874 145.17Z" fill="#999999"/>
<path d="M21.5107 133.979L34.3618 144.234V146.17L21.6597 136.021L21.5107 133.979Z" fill="#666666"/>
<path d="M59.1702 97.021L149.17 59.6168C149.872 59.3189 150.66 59.3827 151.298 59.7657L175.106 74.1274C176.766 75.1274 176.596 77.5742 174.808 78.3402L84.9149 116.489C84.1914 116.787 83.3829 116.723 82.7234 116.319L58.8297 101.212C57.2127 100.191 57.4042 97.7657 59.1914 97.021H59.1702Z" fill="#6C925C"/>
<path opacity="0.5" d="M210.064 81.0838C210.064 81.0838 210.426 83.4242 210.277 86.2114C210.128 89.3817 209.341 93.1051 206.66 94.6157L143.724 123.573L75.7661 141.85L210.043 81.0625L210.064 81.0838Z" fill="#1A3200"/>
</g>
<defs>
<clipPath id="clip0_206_1752">
<rect width="237" height="175" fill="white"/>
</clipPath>
</defs>
</svg>
